League Gothic Condensed Italic.ufo
<glyph name="exclam" format="1">
  <advance width="143"/>
  <unicode hex="0021"/>
  <outline>
    <contour>
      <point x="32" y="198" type="line"/>
      <point x="88" y="198" type="line"/>
      <point x="218" y="735" type="line"/>
      <point x="130" y="735" type="line"/>
    </contour>
    <contour>
      <point x="-23" y="0" type="line"/>
      <point x="57" y="0" type="line"/>
      <point x="81" y="111" type="line"/>
      <point x="0" y="111" type="line"/>
    </contour>
  </outline>
</glyph>
<glyph name="numbersign" format="1">
  <advance width="391"/>
  <unicode hex="0023"/>
  <outline>
    <contour>
      <point x="11" y="214" type="line"/>
      <point x="70" y="214" type="line"/>
      <point x="6" y="0" type="line"/>
      <point x="82" y="0" type="line"/>
      <point x="92" y="35"/>
      <point x="103" y="71"/>
      <point x="113" y="107" type="curve" smooth="yes"/>
      <point x="145" y="214" type="line"/>
      <point x="203" y="214" type="line"/>
      <point x="140" y="0" type="line"/>
      <point x="216" y="0" type="line"/>
      <point x="226" y="35"/>
      <point x="237" y="71"/>
      <point x="247" y="107" type="curve" smooth="yes"/>
      <point x="279" y="214" type="line"/>
      <point x="335" y="214" type="line"/>
      <point x="363" y="309" type="line"/>
      <point x="307" y="309" type="line"/>
      <point x="312" y="329"/>
      <point x="319" y="351"/>
      <point x="326" y="372" type="curve" smooth="yes"/>
      <point x="345" y="435" type="line"/>
      <point x="401" y="435" type="line"/>
      <point x="429" y="530" type="line"/>
      <point x="372" y="530" type="line"/>
      <point x="433" y="735" type="line"/>
      <point x="358" y="735" type="line"/>
      <point x="327" y="632" type="line" smooth="yes"/>
      <point x="317" y="598"/>
      <point x="306" y="562"/>
      <point x="297" y="530" type="curve"/>
      <point x="239" y="530" type="line"/>
      <point x="299" y="735" type="line"/>
      <point x="224" y="735" type="line"/>
      <point x="193" y="632" type="line" smooth="yes"/>
      <point x="183" y="598"/>
      <point x="172" y="562"/>
      <point x="163" y="530" type="curve"/>
      <point x="105" y="530" type="line"/>
      <point x="78" y="435" type="line"/>
      <point x="135" y="435" type="line"/>
      <point x="116" y="372" type="line"/>
      <point x="109" y="352"/>
      <point x="102" y="328"/>
      <point x="97" y="309" type="curve"/>
      <point x="39" y="309" type="line"/>
    </contour>
    <contour>
      <point x="211" y="435" type="line"/>
      <point x="269" y="435" type="line"/>
      <point x="250" y="372" type="line"/>
      <point x="243" y="352"/>
      <point x="236" y="328"/>
      <point x="231" y="309" type="curve"/>
      <point x="173" y="309" type="line"/>
    </contour>
  </outline>
</glyph>
<glyph name="dollar" format="1">
  <advance width="234"/>
  <unicode hex="0024"/>
  <outline>
    <contour>
      <point x="220" y="795" type="line"/>
      <point x="206" y="731" type="line"/>
      <point x="176" y="722"/>
      <point x="152" y="698"/>
      <point x="135" y="667" type="curve" smooth="yes"/>
      <point x="117" y="636"/>
      <point x="104" y="600"/>
      <point x="97" y="564" type="curve"/>
      <point x="92" y="543"/>
      <point x="91" y="523"/>
      <point x="91" y="503" type="curve" smooth="yes"/>
      <point x="91" y="463"/>
      <point x="99" y="427"/>
      <point x="107" y="392" type="curve"/>
      <point x="117" y="357"/>
      <point x="124" y="332"/>
      <point x="133" y="306" type="curve" smooth="yes"/>
      <point x="137" y="293"/>
      <point x="140" y="279"/>
      <point x="143" y="265" type="curve" smooth="yes"/>
      <point x="149" y="237"/>
      <point x="151" y="208"/>
      <point x="145" y="180" type="curve" smooth="yes"/>
      <point x="140" y="156"/>
      <point x="133" y="134"/>
      <point x="125" y="118" type="curve" smooth="yes"/>
      <point x="116" y="101"/>
      <point x="106" y="90"/>
      <point x="94" y="90" type="curve" smooth="yes"/>
      <point x="78" y="90"/>
      <point x="71" y="101"/>
      <point x="68" y="118" type="curve"/>
      <point x="64" y="134"/>
      <point x="65" y="157"/>
      <point x="69" y="181" type="curve"/>
      <point x="3" y="175" type="line"/>
      <point x="-5" y="134"/>
      <point x="-6" y="95"/>
      <point x="0" y="64" type="curve" smooth="yes"/>
      <point x="7" y="33"/>
      <point x="22" y="11"/>
      <point x="51" y="3" type="curve"/>
      <point x="29" y="-105" type="line"/>
      <point x="71" y="-105" type="line"/>
      <point x="93" y="1" type="line"/>
      <point x="125" y="6"/>
      <point x="151" y="30"/>
      <point x="172" y="63" type="curve" smooth="yes"/>
      <point x="192" y="95"/>
      <point x="206" y="137"/>
      <point x="215" y="181" type="curve" smooth="yes"/>
      <point x="220" y="202"/>
      <point x="222" y="223"/>
      <point x="222" y="243" type="curve" smooth="yes"/>
      <point x="222" y="282"/>
      <point x="215" y="319"/>
      <point x="205" y="353" type="curve" smooth="yes"/>
      <point x="200" y="370"/>
      <point x="196" y="386"/>
      <point x="191" y="401" type="curve" smooth="yes"/>
      <point x="183" y="426"/>
      <point x="174" y="454"/>
      <point x="169" y="482" type="curve" smooth="yes"/>
      <point x="164" y="509"/>
      <point x="161" y="538"/>
      <point x="167" y="566" type="curve" smooth="yes"/>
      <point x="171" y="586"/>
      <point x="178" y="605"/>
      <point x="186" y="620" type="curve" smooth="yes"/>
      <point x="194" y="635"/>
      <point x="202" y="645"/>
      <point x="213" y="645" type="curve"/>
      <point x="235" y="646"/>
      <point x="236" y="617"/>
      <point x="232" y="584" type="curve"/>
      <point x="300" y="596" type="line"/>
      <point x="305" y="629"/>
      <point x="305" y="662"/>
      <point x="298" y="687" type="curve"/>
      <point x="290" y="712"/>
      <point x="276" y="730"/>
      <point x="249" y="734" type="curve"/>
      <point x="262" y="795" type="line"/>
    </contour>
  </outline>
</glyph>
<glyph name="quotesingle" format="1">
  <advance width="97"/>
  <unicode hex="0027"/>
  <outline>
    <contour>
      <point x="140" y="466" type="line"/>
      <point x="206" y="735" type="line"/>
      <point x="125" y="735" type="line"/>
      <point x="77" y="466" type="line"/>
    </contour>
  </outline>
</glyph>
<glyph name="parenleft" format="1">
  <advance width="194"/>
  <unicode hex="0028"/>
  <outline>
    <contour>
      <point x="232" y="786" type="line"/>
      <point x="208" y="745"/>
      <point x="178" y="688"/>
      <point x="155" y="639" type="curve" smooth="yes"/>
      <point x="115" y="555"/>
      <point x="69" y="436"/>
      <point x="43" y="315" type="curve" smooth="yes"/>
      <point x="30" y="253"/>
      <point x="21" y="192"/>
      <point x="18" y="138" type="curve" smooth="yes"/>
      <point x="13" y="29"/>
      <point x="17" y="-65"/>
      <point x="33" y="-154" type="curve"/>
      <point x="104" y="-102" type="line"/>
      <point x="98" y="-69"/>
      <point x="94" y="-32"/>
      <point x="92" y="12" type="curve" smooth="yes"/>
      <point x="88" y="87"/>
      <point x="92" y="190"/>
      <point x="119" y="315" type="curve" smooth="yes"/>
      <point x="132" y="378"/>
      <point x="148" y="435"/>
      <point x="167" y="486" type="curve" smooth="yes"/>
      <point x="204" y="588"/>
      <point x="240" y="666"/>
      <point x="282" y="733" type="curve"/>
    </contour>
  </outline>
</glyph>
<glyph name="parenright" format="1">
  <advance width="194"/>
  <unicode hex="0029"/>
  <outline>
    <contour>
      <point x="126" y="733" type="line"/>
      <point x="132" y="704"/>
      <point x="136" y="658"/>
      <point x="138" y="618" type="curve" smooth="yes"/>
      <point x="141" y="544"/>
      <point x="137" y="434"/>
      <point x="112" y="315" type="curve" smooth="yes"/>
      <point x="99" y="254"/>
      <point x="81" y="195"/>
      <point x="64" y="145" type="curve"/>
      <point x="26" y="47"/>
      <point x="-10" y="-38"/>
      <point x="-51" y="-102" type="curve"/>
      <point x="-2" y="-154" type="line"/>
      <point x="27" y="-103"/>
      <point x="53" y="-55"/>
      <point x="75" y="-9" type="curve" smooth="yes"/>
      <point x="115" y="75"/>
      <point x="160" y="190"/>
      <point x="187" y="315" type="curve" smooth="yes"/>
      <point x="200" y="377"/>
      <point x="209" y="438"/>
      <point x="212" y="493" type="curve" smooth="yes"/>
      <point x="217" y="604"/>
      <point x="212" y="698"/>
      <point x="198" y="786" type="curve"/>
    </contour>
  </outline>
</glyph>
<glyph name="asterisk" format="1">
  <advance width="229"/>
  <unicode hex="002A"/>
  <outline>
    <contour>
      <point x="148" y="659" type="line"/>
      <point x="105" y="682" type="line"/>
      <point x="76" y="613" type="line"/>
      <point x="128" y="594" type="line"/>
      <point x="67" y="529" type="line"/>
      <point x="106" y="480" type="line"/>
      <point x="149" y="541" type="line"/>
      <point x="167" y="480" type="line"/>
      <point x="225" y="529" type="line"/>
      <point x="196" y="594" type="line"/>
      <point x="253" y="613" type="line"/>
      <point x="253" y="682" type="line"/>
      <point x="201" y="658" type="line"/>
      <point x="222" y="735" type="line"/>
      <point x="159" y="735" type="line"/>
    </contour>
  </outline>
</glyph>
<glyph name="plus" format="1">
  <advance width="341"/>
  <unicode hex="002B"/>
  <outline>
    <contour>
      <point x="42" y="317" type="line"/>
      <point x="150" y="317" type="line"/>
      <point x="114" y="148" type="line"/>
      <point x="183" y="148" type="line"/>
      <point x="219" y="317" type="line"/>
      <point x="327" y="317" type="line"/>
      <point x="345" y="401" type="line"/>
      <point x="237" y="401" type="line"/>
      <point x="273" y="570" type="line"/>
      <point x="204" y="570" type="line"/>
      <point x="168" y="401" type="line"/>
      <point x="60" y="401" type="line"/>
    </contour>
  </outline>
</glyph>
<glyph name="hyphen" format="1">
  <advance width="160"/>
  <unicode hex="002D"/>
  <outline>
    <contour>
      <point x="31" y="222" type="line"/>
      <point x="136" y="222" type="line"/>
      <point x="156" y="317" type="line"/>
      <point x="51" y="317" type="line"/>
    </contour>
  </outline>
</glyph>
<glyph name="period" format="1">
  <advance width="124"/>
  <unicode hex="002E"/>
  <outline>
    <contour>
      <point x="1" y="0" type="line"/>
      <point x="82" y="0" type="line"/>
      <point x="105" y="111" type="line"/>
      <point x="24" y="111" type="line"/>
    </contour>
  </outline>
</glyph>
<glyph name="slash" format="1">
  <advance width="241"/>
  <unicode hex="002F"/>
  <outline>
    <contour>
      <point x="-57" y="-72" type="line"/>
      <point x="10" y="-72" type="line"/>
      <point x="339" y="735" type="line"/>
      <point x="273" y="735" type="line"/>
    </contour>
  </outline>
</glyph>
<glyph name="one" format="1">
  <advance width="169"/>
  <unicode hex="0031"/>
  <outline>
    <contour>
      <point x="124" y="576" type="line"/>
      <point x="1" y="0" type="line"/>
      <point x="84" y="0" type="line"/>
      <point x="241" y="735" type="line"/>
      <point x="184" y="735" type="line"/>
      <point x="178" y="722"/>
      <point x="170" y="707"/>
      <point x="163" y="697" type="curve"/>
      <point x="146" y="677"/>
      <point x="121" y="652"/>
      <point x="95" y="643" type="curve"/>
      <point x="81" y="576" type="line"/>
    </contour>
  </outline>
</glyph>
<glyph name="two" format="1">
  <advance width="244"/>
  <unicode hex="0032"/>
  <outline>
    <contour>
      <point x="159" y="502" type="line"/>
      <point x="170" y="553" type="line"/>
      <point x="172" y="565"/>
      <point x="190" y="643"/>
      <point x="206" y="643" type="curve" smooth="yes"/>
      <point x="220" y="643"/>
      <point x="209" y="576"/>
      <point x="204" y="553" type="curve" smooth="yes"/>
      <point x="170" y="409"/>
      <point x="82" y="263"/>
      <point x="-9" y="107" type="curve"/>
      <point x="-32" y="0" type="line"/>
      <point x="161" y="0" type="line"/>
      <point x="184" y="107" type="line"/>
      <point x="81" y="107" type="line"/>
      <point x="152" y="228"/>
      <point x="257" y="427"/>
      <point x="285" y="560" type="curve" smooth="yes"/>
      <point x="299" y="624"/>
      <point x="320" y="743"/>
      <point x="227" y="743" type="curve" smooth="yes"/>
      <point x="137" y="743"/>
      <point x="103" y="626"/>
      <point x="87" y="553" type="curve" smooth="yes"/>
      <point x="76" y="502" type="line"/>
    </contour>
  </outline>
</glyph>
<glyph name="six" format="1">
  <advance width="235"/>
  <unicode hex="0036"/>
  <outline>
    <contour>
      <point x="239" y="321" type="line" smooth="yes"/>
      <point x="250" y="373"/>
      <point x="262" y="456"/>
      <point x="185" y="456" type="curve" smooth="yes"/>
      <point x="170" y="456"/>
      <point x="150" y="445"/>
      <point x="147" y="439" type="curve"/>
      <point x="176" y="575" type="line" smooth="yes"/>
      <point x="178" y="584"/>
      <point x="191" y="649"/>
      <point x="207" y="649" type="curve" smooth="yes"/>
      <point x="225" y="649"/>
      <point x="206" y="556"/>
      <point x="199" y="523" type="curve"/>
      <point x="279" y="523" type="line"/>
      <point x="290" y="575" type="line" smooth="yes"/>
      <point x="302" y="635"/>
      <point x="315" y="743"/>
      <point x="227" y="743" type="curve" smooth="yes"/>
      <point x="142" y="743"/>
      <point x="109" y="647"/>
      <point x="93" y="575" type="curve" smooth="yes"/>
      <point x="0" y="141" type="line" smooth="yes"/>
      <point x="-10" y="89"/>
      <point x="-16" y="-8"/>
      <point x="63" y="-8" type="curve" smooth="yes"/>
      <point x="141" y="-8"/>
      <point x="185" y="75"/>
      <point x="200" y="141" type="curve" smooth="yes"/>
    </contour>
    <contour>
      <point x="126" y="342" type="line"/>
      <point x="130" y="353"/>
      <point x="136" y="372"/>
      <point x="151" y="372" type="curve" smooth="yes"/>
      <point x="167" y="372"/>
      <point x="164" y="348"/>
      <point x="163" y="339" type="curve"/>
      <point x="118" y="129" type="line" smooth="yes"/>
      <point x="115" y="115"/>
      <point x="106" y="86"/>
      <point x="90" y="86" type="curve" smooth="yes"/>
      <point x="75" y="86"/>
      <point x="78" y="115"/>
      <point x="81" y="129" type="curve" smooth="yes"/>
    </contour>
  </outline>
</glyph>
<glyph name="less" format="1">
  <advance width="340"/>
  <unicode hex="003C"/>
  <outline>
    <contour>
      <point x="43" y="320" type="line"/>
      <point x="275" y="72" type="line"/>
      <point x="298" y="179" type="line"/>
      <point x="212" y="268" type="line" smooth="yes"/>
      <point x="184" y="297"/>
      <point x="153" y="328"/>
      <point x="127" y="356" type="curve"/>
      <point x="373" y="533" type="line"/>
      <point x="396" y="640" type="line"/>
      <point x="58" y="392" type="line"/>
    </contour>
  </outline>
</glyph>
<glyph name="equal" format="1">
  <advance width="340"/>
  <unicode hex="003D"/>
  <outline>
    <contour>
      <point x="63" y="422" type="line"/>
      <point x="348" y="422" type="line"/>
      <point x="366" y="506" type="line"/>
      <point x="81" y="506" type="line"/>
    </contour>
    <contour>
      <point x="23" y="233" type="line"/>
      <point x="308" y="233" type="line"/>
      <point x="326" y="317" type="line"/>
      <point x="41" y="317" type="line"/>
    </contour>
  </outline>
</glyph>
<glyph name="question" format="1">
  <advance width="153"/>
  <unicode hex="003F"/>
  <outline>
    <contour>
      <point x="118" y="198" type="line"/>
      <point x="145" y="323" type="line" smooth="yes"/>
      <point x="149" y="342"/>
      <point x="153" y="359"/>
      <point x="159" y="376" type="curve" smooth="yes"/>
      <point x="171" y="408"/>
      <point x="186" y="436"/>
      <point x="201" y="460" type="curve" smooth="yes"/>
      <point x="208" y="471"/>
      <point x="215" y="482"/>
      <point x="221" y="492" type="curve" smooth="yes"/>
      <point x="244" y="528"/>
      <point x="266" y="568"/>
      <point x="275" y="609" type="curve" smooth="yes"/>
      <point x="286" y="663"/>
      <point x="289" y="739"/>
      <point x="210" y="739" type="curve" smooth="yes"/>
      <point x="177" y="739"/>
      <point x="148" y="717"/>
      <point x="125" y="690" type="curve" smooth="yes"/>
      <point x="102" y="662"/>
      <point x="83" y="631"/>
      <point x="77" y="615" type="curve"/>
      <point x="128" y="574" type="line"/>
      <point x="133" y="583"/>
      <point x="141" y="602"/>
      <point x="153" y="618" type="curve" smooth="yes"/>
      <point x="164" y="633"/>
      <point x="175" y="645"/>
      <point x="188" y="645" type="curve" smooth="yes"/>
      <point x="232" y="645"/>
      <point x="185" y="565"/>
      <point x="172" y="544" type="curve" smooth="yes"/>
      <point x="157" y="519"/>
      <point x="139" y="491"/>
      <point x="122" y="455" type="curve" smooth="yes"/>
      <point x="105" y="419"/>
      <point x="85" y="376"/>
      <point x="74" y="323" type="curve" smooth="yes"/>
      <point x="47" y="198" type="line"/>
    </contour>
    <contour>
      <point x="1" y="0" type="line"/>
      <point x="82" y="0" type="line"/>
      <point x="106" y="111" type="line"/>
      <point x="25" y="111" type="line"/>
    </contour>
  </outline>
</glyph>
<glyph name="at" format="1">
  <advance width="338"/>
  <unicode hex="0040"/>
  <outline>
    <contour>
      <point x="392" y="578" type="line" smooth="yes"/>
      <point x="397" y="602"/>
      <point x="402" y="645"/>
      <point x="387" y="681" type="curve"/>
      <point x="370" y="717"/>
      <point x="339" y="746"/>
      <point x="277" y="746" type="curve" smooth="yes"/>
      <point x="217" y="746"/>
      <point x="173" y="717"/>
      <point x="141" y="681" type="curve" smooth="yes"/>
      <point x="110" y="644"/>
      <point x="96" y="602"/>
      <point x="91" y="578" type="curve" smooth="yes"/>
      <point x="1" y="152" type="line"/>
      <point x="-3" y="129"/>
      <point x="-7" y="88"/>
      <point x="8" y="53" type="curve"/>
      <point x="25" y="19"/>
      <point x="57" y="-11"/>
      <point x="116" y="-11" type="curve" smooth="yes"/>
      <point x="187" y="-11"/>
      <point x="232" y="26"/>
      <point x="267" y="69" type="curve"/>
      <point x="207" y="119" type="line"/>
      <point x="188" y="97"/>
      <point x="168" y="84"/>
      <point x="136" y="84" type="curve" smooth="yes"/>
      <point x="109" y="84"/>
      <point x="96" y="97"/>
      <point x="91" y="111" type="curve"/>
      <point x="85" y="123"/>
      <point x="83" y="140"/>
      <point x="86" y="152" type="curve"/>
      <point x="176" y="578" type="line"/>
      <point x="179" y="589"/>
      <point x="188" y="608"/>
      <point x="200" y="622" type="curve"/>
      <point x="211" y="637"/>
      <point x="229" y="648"/>
      <point x="256" y="648" type="curve" smooth="yes"/>
      <point x="283" y="648"/>
      <point x="299" y="637"/>
      <point x="304" y="622" type="curve"/>
      <point x="309" y="611"/>
      <point x="309" y="595"/>
      <point x="308" y="584" type="curve"/>
      <point x="301" y="591"/>
      <point x="292" y="598"/>
      <point x="276" y="598" type="curve" smooth="yes"/>
      <point x="228" y="598"/>
      <point x="204" y="557"/>
      <point x="193" y="508" type="curve" smooth="yes"/>
      <point x="144" y="275" type="line" smooth="yes"/>
      <point x="133" y="224"/>
      <point x="143" y="183"/>
      <point x="177" y="183" type="curve" smooth="yes"/>
      <point x="199" y="183"/>
      <point x="228" y="203"/>
      <point x="236" y="221" type="curve"/>
      <point x="243" y="190" type="line"/>
      <point x="310" y="190" type="line"/>
    </contour>
    <contour>
      <point x="246" y="281" type="line"/>
      <point x="244" y="269"/>
      <point x="238" y="264"/>
      <point x="231" y="264" type="curve" smooth="yes"/>
      <point x="226" y="264"/>
      <point x="220" y="271"/>
      <point x="222" y="281" type="curve" smooth="yes"/>
      <point x="269" y="500" type="line" smooth="yes"/>
      <point x="271" y="510"/>
      <point x="278" y="517"/>
      <point x="283" y="517" type="curve" smooth="yes"/>
      <point x="290" y="517"/>
      <point x="295" y="510"/>
      <point x="293" y="500" type="curve" smooth="yes"/>
    </contour>
  </outline>
</glyph>
<glyph name="B" format="1">
  <advance width="248"/>
  <unicode hex="0042"/>
  <outline>
    <contour>
      <point x="84" y="0" type="line" smooth="yes"/>
      <point x="127" y="0"/>
      <point x="157" y="39"/>
      <point x="171" y="63" type="curve" smooth="yes"/>
      <point x="185" y="87"/>
      <point x="206" y="153"/>
      <point x="218" y="208" type="curve" smooth="yes"/>
      <point x="225" y="244"/>
      <point x="234" y="293"/>
      <point x="234" y="316" type="curve"/>
      <point x="233" y="357"/>
      <point x="222" y="372"/>
      <point x="208" y="388" type="curve"/>
      <point x="230" y="402"/>
      <point x="243" y="423"/>
      <point x="255" y="445" type="curve"/>
      <point x="266" y="469"/>
      <point x="276" y="505"/>
      <point x="283" y="540" type="curve" smooth="yes"/>
      <point x="298" y="611"/>
      <point x="296" y="660"/>
      <point x="282" y="692" type="curve"/>
      <point x="268" y="721"/>
      <point x="247" y="735"/>
      <point x="205" y="735" type="curve" smooth="yes"/>
      <point x="132" y="735" type="line"/>
      <point x="-24" y="0" type="line"/>
    </contour>
    <contour>
      <point x="192" y="628" type="line"/>
      <point x="198" y="628"/>
      <point x="206" y="628"/>
      <point x="211" y="622" type="curve"/>
      <point x="216" y="611"/>
      <point x="213" y="583"/>
      <point x="202" y="530" type="curve" smooth="yes"/>
      <point x="191" y="477"/>
      <point x="182" y="449"/>
      <point x="172" y="438" type="curve"/>
      <point x="166" y="432"/>
      <point x="155" y="432"/>
      <point x="150" y="432" type="curve"/>
    </contour>
    <contour>
      <point x="129" y="333" type="line"/>
      <point x="134" y="333"/>
      <point x="143" y="334"/>
      <point x="148" y="328" type="curve" smooth="yes"/>
      <point x="156" y="318"/>
      <point x="149" y="282"/>
      <point x="136" y="220" type="curve" smooth="yes"/>
      <point x="123" y="157"/>
      <point x="113" y="123"/>
      <point x="102" y="112" type="curve" smooth="yes"/>
      <point x="96" y="106"/>
      <point x="85" y="107"/>
      <point x="81" y="107" type="curve"/>
    </contour>
  </outline>
</glyph>
<glyph name="E" format="1">
  <advance width="214"/>
  <unicode hex="0045"/>
  <outline>
    <contour>
      <point x="-24" y="0" type="line"/>
      <point x="141" y="0" type="line"/>
      <point x="165" y="111" type="line"/>
      <point x="82" y="111" type="line"/>
      <point x="125" y="313" type="line"/>
      <point x="185" y="313" type="line"/>
      <point x="210" y="431" type="line"/>
      <point x="150" y="431" type="line"/>
      <point x="191" y="624" type="line"/>
      <point x="274" y="624" type="line"/>
      <point x="298" y="735" type="line"/>
      <point x="132" y="735" type="line"/>
    </contour>
    <contour>
      <point x="193" y="10" type="move" name="ogonek"/>
    </contour>
    <contour>
      <point x="107" y="0" type="move" name="bottom"/>
    </contour>
    <contour>
      <point x="107" y="735" type="move" name="top"/>
    </contour>
  </outline>
</glyph>
<glyph name="I" format="1">
  <advance width="143"/>
  <unicode hex="0049"/>
  <outline>
    <contour>
      <point x="-24" y="0" type="line"/>
      <point x="58" y="0" type="line"/>
      <point x="215" y="735" type="line"/>
      <point x="132" y="735" type="line"/>
    </contour>
    <contour>
      <point x="129" y="10" type="move" name="ogonek"/>
    </contour>
    <contour>
      <point x="72" y="735" type="move" name="top"/>
    </contour>
  </outline>
</glyph>
<glyph name="J" format="1">
  <advance width="154"/>
  <unicode hex="004A"/>
  <outline>
    <contour>
      <point x="-43" y="-6" type="line"/>
      <point x="48" y="-15"/>
      <point x="88" y="51"/>
      <point x="106" y="136" type="curve" smooth="yes"/>
      <point x="233" y="735" type="line"/>
      <point x="150" y="735" type="line"/>
      <point x="26" y="153" type="line" smooth="yes"/>
      <point x="22" y="133"/>
      <point x="10" y="95"/>
      <point x="-21" y="102" type="curve"/>
    </contour>
    <contour>
      <point x="77" y="735" type="move" name="top"/>
    </contour>
  </outline>
</glyph>
<glyph name="L" format="1">
  <advance width="207"/>
  <unicode hex="004C"/>
  <outline>
    <contour>
      <point x="-24" y="0" type="line"/>
      <point x="144" y="0" type="line"/>
      <point x="166" y="100" type="line"/>
      <point x="80" y="100" type="line"/>
      <point x="215" y="735" type="line"/>
      <point x="132" y="735" type="line"/>
    </contour>
    <contour>
      <point x="104" y="735" type="move" name="top"/>
    </contour>
    <contour>
      <point x="104" y="0" type="move" name="bottom"/>
    </contour>
  </outline>
</glyph>
<glyph name="M" format="1">
  <advance width="320"/>
  <unicode hex="004D"/>
  <outline>
    <contour>
      <point x="128" y="0" type="line"/>
      <point x="233" y="362" type="line"/>
      <point x="158" y="0" type="line"/>
      <point x="235" y="0" type="line"/>
      <point x="392" y="735" type="line"/>
      <point x="300" y="735" type="line"/>
      <point x="188" y="388" type="line"/>
      <point x="224" y="735" type="line"/>
      <point x="132" y="735" type="line"/>
      <point x="-24" y="0" type="line"/>
      <point x="52" y="0" type="line"/>
      <point x="129" y="362" type="line"/>
      <point x="83" y="0" type="line"/>
    </contour>
  </outline>
</glyph>
<glyph name="N" format="1">
  <advance width="267"/>
  <unicode hex="004E"/>
  <outline>
    <contour>
      <point x="112" y="0" type="line"/>
      <point x="182" y="0" type="line"/>
      <point x="339" y="735" type="line"/>
      <point x="262" y="735" type="line"/>
      <point x="188" y="388" type="line"/>
      <point x="202" y="735" type="line"/>
      <point x="132" y="735" type="line"/>
      <point x="-24" y="0" type="line"/>
      <point x="52" y="0" type="line"/>
      <point x="128" y="357" type="line"/>
    </contour>
    <contour>
      <point x="134" y="735" type="move" name="top"/>
    </contour>
    <contour>
      <point x="134" y="0" type="move" name="bottom"/>
    </contour>
  </outline>
</glyph>
<glyph name="P" format="1">
  <advance width="241"/>
  <unicode hex="0050"/>
  <outline>
    <contour>
      <point x="-24" y="0" type="line"/>
      <point x="58" y="0" type="line"/>
      <point x="121" y="294" type="line"/>
      <point x="151" y="295"/>
      <point x="184" y="306"/>
      <point x="209" y="336" type="curve" smooth="yes"/>
      <point x="238" y="371"/>
      <point x="264" y="432"/>
      <point x="282" y="515" type="curve" smooth="yes"/>
      <point x="300" y="598"/>
      <point x="299" y="656"/>
      <point x="284" y="691" type="curve" smooth="yes"/>
      <point x="270" y="725"/>
      <point x="249" y="735"/>
      <point x="216" y="735" type="curve" smooth="yes"/>
      <point x="132" y="735" type="line"/>
    </contour>
    <contour>
      <point x="192" y="627" type="line"/>
      <point x="201" y="627"/>
      <point x="213" y="627"/>
      <point x="215" y="616" type="curve"/>
      <point x="220" y="598"/>
      <point x="210" y="552"/>
      <point x="201" y="511" type="curve" smooth="yes"/>
      <point x="192" y="470"/>
      <point x="184" y="432"/>
      <point x="173" y="416" type="curve" smooth="yes"/>
      <point x="166" y="406"/>
      <point x="152" y="404"/>
      <point x="144" y="404" type="curve"/>
    </contour>
  </outline>
</glyph>
<glyph name="Q" format="1">
  <advance width="244"/>
  <unicode hex="0051"/>
  <outline>
    <contour>
      <point x="295" y="594" type="line" smooth="yes"/>
      <point x="308" y="654"/>
      <point x="307" y="743"/>
      <point x="227" y="743" type="curve" smooth="yes"/>
      <point x="152" y="743"/>
      <point x="114" y="670"/>
      <point x="98" y="594" type="curve" smooth="yes"/>
      <point x="2" y="141" type="line" smooth="yes"/>
      <point x="-11" y="77"/>
      <point x="-10" y="-2"/>
      <point x="61" y="-7" type="curve"/>
      <point x="62" y="-7"/>
      <point x="62" y="-8"/>
      <point x="64" y="-8" type="curve" smooth="yes"/>
      <point x="72" y="-8" type="line"/>
      <point x="85" y="-6" type="line"/>
      <point x="88" y="-6"/>
      <point x="91" y="-5"/>
      <point x="94" y="-4" type="curve"/>
      <point x="95" y="-4" type="line"/>
      <point x="100" y="-32"/>
      <point x="118" y="-56"/>
      <point x="165" y="-56" type="curve"/>
      <point x="184" y="34" type="line"/>
      <point x="175" y="37"/>
      <point x="169" y="43"/>
      <point x="165" y="52" type="curve"/>
      <point x="165" y="53" type="line"/>
      <point x="166" y="52"/>
      <point x="165" y="53"/>
      <point x="166" y="54" type="curve"/>
      <point x="180" y="80"/>
      <point x="193" y="111"/>
      <point x="199" y="141" type="curve" smooth="yes"/>
    </contour>
    <contour>
      <point x="114" y="141" type="line" smooth="yes"/>
      <point x="110" y="121"/>
      <point x="101" y="97"/>
      <point x="91" y="97" type="curve" smooth="yes"/>
      <point x="82" y="97"/>
      <point x="82" y="118"/>
      <point x="87" y="141" type="curve" smooth="yes"/>
      <point x="183" y="594" type="line" smooth="yes"/>
      <point x="188" y="618"/>
      <point x="195" y="638"/>
      <point x="206" y="638" type="curve" smooth="yes"/>
      <point x="217" y="638"/>
      <point x="215" y="617"/>
      <point x="210" y="594" type="curve" smooth="yes"/>
    </contour>
  </outline>
</glyph>
<glyph name="R" format="1">
  <advance width="247"/>
  <unicode hex="0052"/>
  <outline>
    <contour>
      <point x="182" y="0" type="line"/>
      <point x="207" y="356" type="line"/>
      <point x="240" y="387"/>
      <point x="266" y="453"/>
      <point x="281" y="523" type="curve" smooth="yes"/>
      <point x="310" y="662"/>
      <point x="294" y="735"/>
      <point x="216" y="735" type="curve" smooth="yes"/>
      <point x="132" y="735" type="line"/>
      <point x="-24" y="0" type="line"/>
      <point x="58" y="0" type="line"/>
      <point x="127" y="320" type="line"/>
      <point x="101" y="0" type="line"/>
    </contour>
    <contour>
      <point x="192" y="628" type="line"/>
      <point x="197" y="628"/>
      <point x="208" y="629"/>
      <point x="213" y="618" type="curve" smooth="yes"/>
      <point x="218" y="606"/>
      <point x="212" y="573"/>
      <point x="201" y="519" type="curve" smooth="yes"/>
      <point x="190" y="466"/>
      <point x="181" y="429"/>
      <point x="169" y="416" type="curve" smooth="yes"/>
      <point x="162" y="408"/>
      <point x="152" y="405"/>
      <point x="145" y="405" type="curve"/>
    </contour>
    <contour>
      <point x="124" y="735" type="move" name="top"/>
    </contour>
    <contour>
      <point x="124" y="0" type="move" name="bottom"/>
    </contour>
  </outline>
</glyph>
<glyph name="U" format="1">
  <advance width="250"/>
  <unicode hex="0055"/>
  <outline>
    <contour>
      <point x="239" y="735" type="line"/>
      <point x="113" y="141" type="line" smooth="yes"/>
      <point x="108" y="117"/>
      <point x="101" y="97"/>
      <point x="89" y="97" type="curve" smooth="yes"/>
      <point x="76" y="97"/>
      <point x="76" y="113"/>
      <point x="82" y="141" type="curve" smooth="yes"/>
      <point x="208" y="735" type="line"/>
      <point x="125" y="735" type="line"/>
      <point x="0" y="141" type="line" smooth="yes"/>
      <point x="-16" y="66"/>
      <point x="-13" y="-8"/>
      <point x="66" y="-8" type="curve" smooth="yes"/>
      <point x="141" y="-8"/>
      <point x="178" y="58"/>
      <point x="196" y="141" type="curve" smooth="yes"/>
      <point x="322" y="735" type="line"/>
    </contour>
    <contour>
      <point x="225" y="10" type="move" name="ogonek"/>
    </contour>
    <contour>
      <point x="125" y="735" type="move" name="top"/>
    </contour>
  </outline>
</glyph>
<glyph name="V" format="1">
  <advance width="240"/>
  <unicode hex="0056"/>
  <outline>
    <contour>
      <point x="113" y="735" type="line"/>
      <point x="24" y="0" type="line"/>
      <point x="106" y="0" type="line"/>
      <point x="331" y="735" type="line"/>
      <point x="250" y="735" type="line"/>
      <point x="142" y="359" type="line"/>
      <point x="194" y="735" type="line"/>
    </contour>
  </outline>
</glyph>
<glyph name="asciicircum" format="1">
  <advance width="353"/>
  <unicode hex="005E"/>
  <outline>
    <contour>
      <point x="214" y="735" type="line"/>
      <point x="30" y="395" type="line"/>
      <point x="106" y="395" type="line"/>
      <point x="235" y="633" type="line"/>
      <point x="263" y="395" type="line"/>
      <point x="339" y="395" type="line"/>
      <point x="301" y="735" type="line"/>
    </contour>
  </outline>
</glyph>
<glyph name="underscore" format="1">
  <advance width="354"/>
  <unicode hex="005F"/>
  <outline>
    <contour>
      <point x="-8" y="-159" type="line"/>
      <point x="290" y="-159" type="line"/>
      <point x="308" y="-75" type="line"/>
      <point x="9" y="-75" type="line"/>
    </contour>
  </outline>
</glyph>
<glyph name="grave" format="1">
  <advance width="330"/>
  <unicode hex="0060"/>
  <outline>
    <contour>
      <point x="160" y="727" type="line"/>
      <point x="187" y="637" type="line"/>
      <point x="251" y="637" type="line"/>
      <point x="240" y="727" type="line"/>
    </contour>
    <contour>
      <point x="205.5" y="547" type="move" name="_top"/>
    </contour>
  </outline>
</glyph>
<glyph name="d" format="1">
  <advance width="231"/>
  <unicode hex="0064"/>
  <outline>
    <contour>
      <point x="319" y="735" type="line"/>
      <point x="240" y="735" type="line"/>
      <point x="195" y="524" type="line"/>
      <point x="195" y="537"/>
      <point x="175" y="555"/>
      <point x="161" y="555" type="curve" smooth="yes"/>
      <point x="110" y="555"/>
      <point x="87" y="493"/>
      <point x="77" y="448" type="curve" smooth="yes"/>
      <point x="3" y="99" type="line"/>
      <point x="-3" y="60"/>
      <point x="-23" y="-8"/>
      <point x="25" y="-8" type="curve" smooth="yes"/>
      <point x="51" y="-8"/>
      <point x="83" y="18"/>
      <point x="90" y="30" type="curve"/>
      <point x="84" y="0" type="line"/>
      <point x="163" y="0" type="line"/>
    </contour>
    <contour>
      <point x="110" y="125" type="line" smooth="yes"/>
      <point x="106" y="106"/>
      <point x="98" y="87"/>
      <point x="88" y="87" type="curve" smooth="yes"/>
      <point x="77" y="87"/>
      <point x="78" y="105"/>
      <point x="82" y="125" type="curve" smooth="yes"/>
      <point x="148" y="431" type="line" smooth="yes"/>
      <point x="152" y="450"/>
      <point x="160" y="467"/>
      <point x="169" y="467" type="curve" smooth="yes"/>
      <point x="179" y="467"/>
      <point x="179" y="447"/>
      <point x="176" y="431" type="curve" smooth="yes"/>
    </contour>
    <contour>
      <point x="116" y="274" type="move" name="center"/>
    </contour>
  </outline>
</glyph>
<glyph name="e" format="1">
  <advance width="223"/>
  <unicode hex="0065"/>
  <outline>
    <contour>
      <point x="133" y="196" type="line"/>
      <point x="120" y="136" type="line" smooth="yes"/>
      <point x="116" y="117"/>
      <point x="106" y="81"/>
      <point x="90" y="81" type="curve" smooth="yes"/>
      <point x="79" y="81"/>
      <point x="82" y="114"/>
      <point x="86" y="136" type="curve"/>
      <point x="112" y="255" type="line"/>
      <point x="221" y="255" type="line"/>
      <point x="255" y="418" type="line" smooth="yes"/>
      <point x="269" y="481"/>
      <point x="274" y="555"/>
      <point x="190" y="555" type="curve" smooth="yes"/>
      <point x="123" y="555"/>
      <point x="83" y="480"/>
      <point x="69" y="415" type="curve" smooth="yes"/>
      <point x="8" y="130" type="line" smooth="yes"/>
      <point x="-4" y="67"/>
      <point x="-3" y="-8"/>
      <point x="66" y="-8" type="curve" smooth="yes"/>
      <point x="143" y="-8"/>
      <point x="178" y="56"/>
      <point x="193" y="127" type="curve" smooth="yes"/>
      <point x="208" y="196" type="line"/>
    </contour>
    <contour>
      <point x="145" y="411" type="line" smooth="yes"/>
      <point x="148" y="427"/>
      <point x="158" y="467"/>
      <point x="171" y="467" type="curve" smooth="yes"/>
      <point x="188" y="467"/>
      <point x="185" y="438"/>
      <point x="179" y="411" type="curve" smooth="yes"/>
      <point x="162" y="334" type="line"/>
      <point x="128" y="334" type="line"/>
    </contour>
    <contour>
      <point x="201" y="10" type="move" name="ogonek"/>
    </contour>
    <contour>
      <point x="112" y="0" type="move" name="bottom"/>
    </contour>
    <contour>
      <point x="112" y="547" type="move" name="top"/>
    </contour>
  </outline>
</glyph>
<glyph name="g" format="1">
  <advance width="245"/>
  <unicode hex="0067"/>
  <outline>
    <contour>
      <point x="263" y="429" type="line"/>
      <point x="264" y="435"/>
      <point x="265" y="449"/>
      <point x="264" y="453" type="curve"/>
      <point x="270" y="460"/>
      <point x="284" y="465"/>
      <point x="303" y="465" type="curve"/>
      <point x="322" y="555" type="line"/>
      <point x="295" y="555"/>
      <point x="273" y="541"/>
      <point x="252" y="521" type="curve"/>
      <point x="245" y="543"/>
      <point x="227" y="555"/>
      <point x="197" y="555" type="curve" smooth="yes"/>
      <point x="130" y="555"/>
      <point x="90" y="474"/>
      <point x="77" y="416" type="curve" smooth="yes"/>
      <point x="45" y="267" type="line" smooth="yes"/>
      <point x="35" y="221"/>
      <point x="41" y="186"/>
      <point x="58" y="148" type="curve"/>
      <point x="33" y="129"/>
      <point x="6" y="96"/>
      <point x="0" y="66" type="curve" smooth="yes"/>
      <point x="-8" y="25"/>
      <point x="6" y="4"/>
      <point x="27" y="-7" type="curve"/>
      <point x="26" y="-7" type="line"/>
      <point x="-3" y="-26"/>
      <point x="-35" y="-52"/>
      <point x="-43" y="-90" type="curve" smooth="yes"/>
      <point x="-56" y="-154"/>
      <point x="-28" y="-196"/>
      <point x="40" y="-196" type="curve" smooth="yes"/>
      <point x="122" y="-196"/>
      <point x="167" y="-129"/>
      <point x="183" y="-56" type="curve" smooth="yes"/>
      <point x="192" y="-11"/>
      <point x="185" y="18"/>
      <point x="172" y="40" type="curve"/>
      <point x="160" y="58"/>
      <point x="139" y="65"/>
      <point x="119" y="71" type="curve" smooth="yes"/>
      <point x="104" y="75"/>
      <point x="82" y="85"/>
      <point x="86" y="105" type="curve" smooth="yes"/>
      <point x="88" y="115"/>
      <point x="93" y="124"/>
      <point x="97" y="129" type="curve"/>
      <point x="102" y="129" type="line" smooth="yes"/>
      <point x="170" y="129"/>
      <point x="212" y="206"/>
      <point x="228" y="264" type="curve"/>
    </contour>
    <contour>
      <point x="150" y="262" type="line" smooth="yes"/>
      <point x="147" y="248"/>
      <point x="138" y="213"/>
      <point x="125" y="213" type="curve" smooth="yes"/>
      <point x="115" y="213"/>
      <point x="118" y="243"/>
      <point x="122" y="262" type="curve" smooth="yes"/>
      <point x="155" y="417" type="line" smooth="yes"/>
      <point x="159" y="437"/>
      <point x="169" y="467"/>
      <point x="179" y="467" type="curve" smooth="yes"/>
      <point x="192" y="467"/>
      <point x="188" y="439"/>
      <point x="183" y="417" type="curve" smooth="yes"/>
    </contour>
    <contour>
      <point x="86" y="-35" type="line"/>
      <point x="98" y="-40"/>
      <point x="109" y="-50"/>
      <point x="104" y="-74" type="curve"/>
      <point x="99" y="-94"/>
      <point x="81" y="-111"/>
      <point x="59" y="-111" type="curve" smooth="yes"/>
      <point x="37" y="-111"/>
      <point x="31" y="-94"/>
      <point x="36" y="-73" type="curve"/>
      <point x="40" y="-52"/>
      <point x="53" y="-37"/>
      <point x="64" y="-27" type="curve"/>
    </contour>
    <contour>
      <point x="123" y="547" type="move" name="top"/>
    </contour>
  </outline>
</glyph>
<glyph name="h" format="1">
  <advance width="229"/>
  <unicode hex="0068"/>
  <outline>
    <contour>
      <point x="146" y="431" type="line" smooth="yes"/>
      <point x="149" y="444"/>
      <point x="156" y="467"/>
      <point x="167" y="467" type="curve" smooth="yes"/>
      <point x="179" y="467"/>
      <point x="175" y="443"/>
      <point x="172" y="431" type="curve" smooth="yes"/>
      <point x="80" y="0" type="line"/>
      <point x="155" y="0" type="line"/>
      <point x="251" y="448" type="line" smooth="yes"/>
      <point x="258" y="481"/>
      <point x="265" y="555"/>
      <point x="215" y="555" type="curve" smooth="yes"/>
      <point x="198" y="555"/>
      <point x="171" y="537"/>
      <point x="166" y="524" type="curve"/>
      <point x="211" y="735" type="line"/>
      <point x="132" y="735" type="line"/>
      <point x="-24" y="0" type="line"/>
      <point x="54" y="0" type="line"/>
    </contour>
    <contour>
      <point x="115" y="274" type="move" name="center"/>
    </contour>
    <contour>
      <point x="115" y="547" type="move" name="top"/>
    </contour>
  </outline>
</glyph>
<glyph name="i" format="1">
  <advance width="132"/>
  <unicode hex="0069"/>
  <outline>
    <contour>
      <point x="110" y="634" type="line"/>
      <point x="189" y="634" type="line"/>
      <point x="211" y="735" type="line"/>
      <point x="132" y="735" type="line"/>
    </contour>
    <contour>
      <point x="54" y="0" type="line"/>
      <point x="171" y="547" type="line"/>
      <point x="92" y="547" type="line"/>
      <point x="-24" y="0" type="line"/>
    </contour>
  </outline>
</glyph>
<glyph name="l" format="1">
  <advance width="137"/>
  <unicode hex="006C"/>
  <outline>
    <contour>
      <point x="54" y="0" type="line"/>
      <point x="211" y="735" type="line"/>
      <point x="132" y="735" type="line"/>
      <point x="-24" y="0" type="line"/>
    </contour>
    <contour>
      <point x="69" y="547" type="move" name="top"/>
    </contour>
    <contour>
      <point x="69" y="0" type="move" name="bottom"/>
    </contour>
    <contour>
      <point x="117" y="547" type="move" name="topright"/>
    </contour>
  </outline>
</glyph>
<glyph name="m" format="1">
  <advance width="329"/>
  <unicode hex="006D"/>
  <outline>
    <contour>
      <point x="257" y="431" type="line"/>
      <point x="259" y="443"/>
      <point x="268" y="467"/>
      <point x="279" y="467" type="curve" smooth="yes"/>
      <point x="290" y="467"/>
      <point x="291" y="452"/>
      <point x="287" y="431" type="curve" smooth="yes"/>
      <point x="195" y="0" type="line"/>
      <point x="268" y="0" type="line"/>
      <point x="363" y="448" type="line" smooth="yes"/>
      <point x="370" y="481"/>
      <point x="386" y="555"/>
      <point x="336" y="555" type="curve" smooth="yes"/>
      <point x="314" y="555"/>
      <point x="280" y="537"/>
      <point x="266" y="515" type="curve"/>
      <point x="268" y="535"/>
      <point x="258" y="555"/>
      <point x="236" y="555" type="curve" smooth="yes"/>
      <point x="217" y="555"/>
      <point x="190" y="538"/>
      <point x="174" y="518" type="curve"/>
      <point x="180" y="547" type="line"/>
      <point x="101" y="547" type="line"/>
      <point x="-14" y="0" type="line"/>
      <point x="64" y="0" type="line"/>
      <point x="156" y="431" type="line" smooth="yes"/>
      <point x="160" y="450"/>
      <point x="168" y="467"/>
      <point x="177" y="467" type="curve" smooth="yes"/>
      <point x="187" y="467"/>
      <point x="190" y="454"/>
      <point x="185" y="433" type="curve" smooth="yes"/>
      <point x="93" y="0" type="line"/>
      <point x="165" y="0" type="line"/>
    </contour>
  </outline>
</glyph>
<glyph name="n" format="1">
  <advance width="232"/>
  <unicode hex="006E"/>
  <outline>
    <contour>
      <point x="156" y="431" type="line" smooth="yes"/>
      <point x="160" y="452"/>
      <point x="167" y="467"/>
      <point x="177" y="467" type="curve" smooth="yes"/>
      <point x="187" y="467"/>
      <point x="189" y="453"/>
      <point x="185" y="432" type="curve" smooth="yes"/>
      <point x="93" y="0" type="line"/>
      <point x="171" y="0" type="line"/>
      <point x="266" y="448" type="line" smooth="yes"/>
      <point x="273" y="481"/>
      <point x="285" y="555"/>
      <point x="235" y="555" type="curve" smooth="yes"/>
      <point x="218" y="555"/>
      <point x="188" y="534"/>
      <point x="174" y="519" type="curve"/>
      <point x="180" y="547" type="line"/>
      <point x="101" y="547" type="line"/>
      <point x="-14" y="0" type="line"/>
      <point x="64" y="0" type="line"/>
    </contour>
    <contour>
      <point x="116" y="547" type="move" name="top"/>
    </contour>
    <contour>
      <point x="116" y="0" type="move" name="bottom"/>
    </contour>
  </outline>
</glyph>
<glyph name="o" format="1">
  <advance width="223"/>
  <unicode hex="006F"/>
  <outline>
    <contour>
      <point x="253" y="414" type="line" smooth="yes"/>
      <point x="270" y="491"/>
      <point x="272" y="555"/>
      <point x="192" y="555" type="curve" smooth="yes"/>
      <point x="118" y="555"/>
      <point x="84" y="487"/>
      <point x="68" y="411" type="curve" smooth="yes"/>
      <point x="9" y="136" type="line" smooth="yes"/>
      <point x="-4" y="68"/>
      <point x="-7" y="-8"/>
      <point x="71" y="-8" type="curve" smooth="yes"/>
      <point x="143" y="-8"/>
      <point x="176" y="49"/>
      <point x="194" y="133" type="curve" smooth="yes"/>
    </contour>
    <contour>
      <point x="117" y="126" type="line"/>
      <point x="116" y="117"/>
      <point x="106" y="81"/>
      <point x="90" y="81" type="curve" smooth="yes"/>
      <point x="76" y="81"/>
      <point x="77" y="104"/>
      <point x="82" y="126" type="curve" smooth="yes"/>
      <point x="145" y="421" type="line" smooth="yes"/>
      <point x="151" y="448"/>
      <point x="159" y="467"/>
      <point x="173" y="467" type="curve" smooth="yes"/>
      <point x="189" y="467"/>
      <point x="186" y="446"/>
      <point x="180" y="421" type="curve" smooth="yes"/>
    </contour>
    <contour>
      <point x="112" y="547" type="move" name="top"/>
    </contour>
  </outline>
</glyph>
<glyph name="q" format="1">
  <advance width="231"/>
  <unicode hex="0071"/>
  <outline>
    <contour>
      <point x="297" y="547" type="line"/>
      <point x="218" y="547" type="line"/>
      <point x="212" y="519" type="line"/>
      <point x="208" y="537"/>
      <point x="186" y="555"/>
      <point x="168" y="555" type="curve" smooth="yes"/>
      <point x="117" y="555"/>
      <point x="98" y="483"/>
      <point x="90" y="448" type="curve" smooth="yes"/>
      <point x="16" y="99" type="line" smooth="yes"/>
      <point x="9" y="60"/>
      <point x="0" y="-8"/>
      <point x="48" y="-8" type="curve" smooth="yes"/>
      <point x="66" y="-8"/>
      <point x="94" y="10"/>
      <point x="109" y="32" type="curve"/>
      <point x="62" y="-188" type="line"/>
      <point x="141" y="-188" type="line"/>
    </contour>
    <contour>
      <point x="128" y="120" type="line" smooth="yes"/>
      <point x="123" y="97"/>
      <point x="116" y="87"/>
      <point x="106" y="87" type="curve" smooth="yes"/>
      <point x="96" y="87"/>
      <point x="94" y="98"/>
      <point x="99" y="120" type="curve" smooth="yes"/>
      <point x="164" y="430" type="line" smooth="yes"/>
      <point x="168" y="449"/>
      <point x="175" y="467"/>
      <point x="186" y="467" type="curve" smooth="yes"/>
      <point x="197" y="467"/>
      <point x="197" y="449"/>
      <point x="193" y="430" type="curve" smooth="yes"/>
    </contour>
  </outline>
</glyph>
<glyph name="s" format="1">
  <advance width="215"/>
  <unicode hex="0073"/>
  <outline>
    <contour>
      <point x="243" y="407" type="line"/>
      <point x="254" y="461"/>
      <point x="268" y="555"/>
      <point x="186" y="555" type="curve" smooth="yes"/>
      <point x="126" y="555"/>
      <point x="88" y="495"/>
      <point x="73" y="425" type="curve" smooth="yes"/>
      <point x="58" y="354"/>
      <point x="79" y="312"/>
      <point x="94" y="260" type="curve" smooth="yes"/>
      <point x="105" y="218"/>
      <point x="117" y="177"/>
      <point x="110" y="142" type="curve" smooth="yes"/>
      <point x="101" y="100"/>
      <point x="94" y="76"/>
      <point x="80" y="76" type="curve" smooth="yes"/>
      <point x="66" y="76"/>
      <point x="71" y="124"/>
      <point x="78" y="159" type="curve"/>
      <point x="6" y="159" type="line"/>
      <point x="-8" y="85"/>
      <point x="-22" y="-8"/>
      <point x="62" y="-8" type="curve" smooth="yes"/>
      <point x="140" y="-8"/>
      <point x="171" y="77"/>
      <point x="181" y="124" type="curve" smooth="yes"/>
      <point x="197" y="202"/>
      <point x="176" y="262"/>
      <point x="159" y="305" type="curve"/>
      <point x="150" y="334"/>
      <point x="135" y="371"/>
      <point x="144" y="414" type="curve" smooth="yes"/>
      <point x="149" y="435"/>
      <point x="158" y="471"/>
      <point x="171" y="471" type="curve" smooth="yes"/>
      <point x="186" y="471"/>
      <point x="179" y="424"/>
      <point x="175" y="407" type="curve"/>
    </contour>
    <contour>
      <point x="108" y="547" type="move" name="top"/>
    </contour>
    <contour>
      <point x="108" y="0" type="move" name="bottom"/>
    </contour>
  </outline>
</glyph>
<glyph name="x" format="1">
  <advance width="217"/>
  <unicode hex="0078"/>
  <outline>
    <contour>
      <point x="-23" y="0" type="line"/>
      <point x="50" y="0" type="line"/>
      <point x="63" y="33"/>
      <point x="89" y="115"/>
      <point x="102" y="148" type="curve"/>
      <point x="92" y="0" type="line"/>
      <point x="165" y="0" type="line"/>
      <point x="169" y="282" type="line"/>
      <point x="288" y="547" type="line"/>
      <point x="214" y="547" type="line"/>
      <point x="158" y="410" type="line"/>
      <point x="162" y="547" type="line"/>
      <point x="88" y="547" type="line"/>
      <point x="92" y="282" type="line"/>
    </contour>
  </outline>
</glyph>
<glyph name="z" format="1">
  <advance width="186"/>
  <unicode hex="007A"/>
  <outline>
    <contour>
      <point x="-34" y="0" type="line"/>
      <point x="130" y="0" type="line"/>
      <point x="150" y="92" type="line"/>
      <point x="67" y="92" type="line"/>
      <point x="229" y="465" type="line"/>
      <point x="247" y="547" type="line"/>
      <point x="95" y="547" type="line"/>
      <point x="75" y="455" type="line"/>
      <point x="145" y="455" type="line"/>
      <point x="-16" y="82" type="line"/>
    </contour>
    <contour>
      <point x="93" y="547" type="move" name="top"/>
    </contour>
  </outline>
</glyph>
<glyph name="bar" format="1">
  <advance width="134"/>
  <unicode hex="007C"/>
  <outline>
    <contour>
      <point x="5" y="-250" type="line"/>
      <point x="233" y="826" type="line"/>
      <point x="159" y="826" type="line"/>
      <point x="-68" y="-250" type="line"/>
    </contour>
  </outline>
</glyph>
<glyph name="asciitilde" format="1">
  <advance width="405"/>
  <unicode hex="007E"/>
  <outline>
    <contour>
      <point x="135" y="623" type="line"/>
      <point x="144" y="646"/>
      <point x="153" y="662"/>
      <point x="161" y="676" type="curve"/>
      <point x="176" y="698"/>
      <point x="194" y="720"/>
      <point x="207" y="720" type="curve" smooth="yes"/>
      <point x="220" y="720"/>
      <point x="233" y="703"/>
      <point x="246" y="684" type="curve" smooth="yes"/>
      <point x="264" y="659"/>
      <point x="282" y="635"/>
      <point x="321" y="635" type="curve" smooth="yes"/>
      <point x="342" y="635"/>
      <point x="360" y="643"/>
      <point x="376" y="658" type="curve"/>
      <point x="408" y="692"/>
      <point x="434" y="732"/>
      <point x="457" y="783" type="curve"/>
      <point x="408" y="822" type="line"/>
      <point x="408" y="820"/>
      <point x="405" y="814"/>
      <point x="404" y="811" type="curve"/>
      <point x="397" y="795"/>
      <point x="389" y="778"/>
      <point x="382" y="769" type="curve"/>
      <point x="368" y="746"/>
      <point x="352" y="725"/>
      <point x="340" y="725" type="curve" smooth="yes"/>
      <point x="328" y="725"/>
      <point x="315" y="741"/>
      <point x="302" y="760" type="curve"/>
      <point x="298" y="765" type="line"/>
      <point x="284" y="785"/>
      <point x="260" y="810"/>
      <point x="226" y="810" type="curve" smooth="yes"/>
      <point x="205" y="810"/>
      <point x="185" y="802"/>
      <point x="169" y="787" type="curve"/>
      <point x="136" y="752"/>
      <point x="108" y="713"/>
      <point x="88" y="663" type="curve"/>
    </contour>
  </outline>
</glyph>
<glyph name="uni0093" format="1">
  <advance width="232"/>
  <unicode hex="0093"/>
  <outline>
    <contour>
      <point x="46" y="494" type="line"/>
      <point x="127" y="494" type="line"/>
      <point x="151" y="605" type="line"/>
      <point x="130" y="605" type="line"/>
      <point x="178" y="735" type="line"/>
      <point x="130" y="735" type="line"/>
      <point x="70" y="605" type="line"/>
    </contour>
    <contour>
      <point x="154" y="494" type="line"/>
      <point x="235" y="494" type="line"/>
      <point x="259" y="605" type="line"/>
      <point x="238" y="605" type="line"/>
      <point x="286" y="735" type="line"/>
      <point x="238" y="735" type="line"/>
      <point x="178" y="605" type="line"/>
    </contour>
  </outline>
</glyph>
<glyph name="cent" format="1">
  <advance width="217"/>
  <unicode hex="00A2"/>
  <outline>
    <contour>
      <point x="159" y="522" type="line" smooth="yes"/>
      <point x="163" y="542"/>
      <point x="175" y="562"/>
      <point x="184" y="562" type="curve" smooth="yes"/>
      <point x="193" y="562"/>
      <point x="197" y="555"/>
      <point x="190" y="522" type="curve" smooth="yes"/>
      <point x="175" y="450" type="line"/>
      <point x="251" y="450" type="line"/>
      <point x="262" y="503" type="line" smooth="yes"/>
      <point x="275" y="566"/>
      <point x="287" y="635"/>
      <point x="225" y="648" type="curve"/>
      <point x="250" y="765" type="line"/>
      <point x="196" y="765" type="line"/>
      <point x="171" y="647" type="line"/>
      <point x="114" y="629"/>
      <point x="85" y="546"/>
      <point x="75" y="498" type="curve" smooth="yes"/>
      <point x="20" y="239" type="line" smooth="yes"/>
      <point x="10" y="193"/>
      <point x="2" y="106"/>
      <point x="53" y="87" type="curve"/>
      <point x="20" y="-60" type="line"/>
      <point x="74" y="-60" type="line"/>
      <point x="106" y="89" type="line"/>
      <point x="171" y="103"/>
      <point x="189" y="165"/>
      <point x="205" y="234" type="curve" smooth="yes"/>
      <point x="218" y="297" type="line"/>
      <point x="142" y="297" type="line"/>
      <point x="126" y="221" type="line" smooth="yes"/>
      <point x="119" y="188"/>
      <point x="111" y="178"/>
      <point x="101" y="178" type="curve" smooth="yes"/>
      <point x="91" y="178"/>
      <point x="91" y="201"/>
      <point x="95" y="221" type="curve" smooth="yes"/>
    </contour>
  </outline>
</glyph>
<glyph name="yen" format="1">
  <advance width="241"/>
  <unicode hex="00A5"/>
  <outline>
    <contour>
      <point x="15" y="166" type="line"/>
      <point x="66" y="166" type="line"/>
      <point x="30" y="0" type="line"/>
      <point x="113" y="0" type="line"/>
      <point x="149" y="166" type="line"/>
      <point x="201" y="166" type="line"/>
      <point x="215" y="233" type="line"/>
      <point x="163" y="233" type="line"/>
      <point x="177" y="300" type="line"/>
      <point x="229" y="300" type="line"/>
      <point x="244" y="367" type="line"/>
      <point x="200" y="367" type="line"/>
      <point x="343" y="735" type="line"/>
      <point x="261" y="735" type="line"/>
      <point x="241" y="677"/>
      <point x="203" y="579"/>
      <point x="182" y="521" type="curve"/>
      <point x="197" y="735" type="line"/>
      <point x="115" y="735" type="line"/>
      <point x="101" y="367" type="line"/>
      <point x="58" y="367" type="line"/>
      <point x="43" y="300" type="line"/>
      <point x="94" y="300" type="line"/>
      <point x="80" y="233" type="line"/>
      <point x="29" y="233" type="line"/>
    </contour>
  </outline>
</glyph>
<glyph name="copyright" format="1">
  <advance width="512"/>
  <unicode hex="00A9"/>
  <outline>
    <contour>
      <point x="24" y="265"/>
      <point x="29" y="171"/>
      <point x="56" y="102" type="curve" smooth="yes"/>
      <point x="82" y="34"/>
      <point x="133" y="-8"/>
      <point x="200" y="-8" type="curve" smooth="yes"/>
      <point x="267" y="-8"/>
      <point x="335" y="34"/>
      <point x="390" y="102" type="curve" smooth="yes"/>
      <point x="447" y="171"/>
      <point x="492" y="265"/>
      <point x="514" y="367" type="curve" smooth="yes"/>
      <point x="535" y="470"/>
      <point x="530" y="564"/>
      <point x="503" y="633" type="curve" smooth="yes"/>
      <point x="476" y="701"/>
      <point x="426" y="743"/>
      <point x="359" y="743" type="curve" smooth="yes"/>
      <point x="292" y="743"/>
      <point x="223" y="701"/>
      <point x="169" y="633" type="curve" smooth="yes"/>
      <point x="112" y="564"/>
      <point x="67" y="470"/>
      <point x="46" y="367" type="curve" smooth="yes"/>
    </contour>
    <contour>
      <point x="116" y="455"/>
      <point x="154" y="535"/>
      <point x="201" y="592" type="curve" smooth="yes"/>
      <point x="249" y="650"/>
      <point x="299" y="685"/>
      <point x="347" y="685" type="curve" smooth="yes"/>
      <point x="394" y="685"/>
      <point x="432" y="650"/>
      <point x="454" y="592" type="curve" smooth="yes"/>
      <point x="475" y="535"/>
      <point x="479" y="455"/>
      <point x="461" y="367" type="curve" smooth="yes"/>
      <point x="442" y="279"/>
      <point x="404" y="201"/>
      <point x="359" y="144" type="curve" smooth="yes"/>
      <point x="312" y="86"/>
      <point x="259" y="50"/>
      <point x="212" y="50" type="curve" smooth="yes"/>
      <point x="164" y="50"/>
      <point x="129" y="86"/>
      <point x="106" y="144" type="curve" smooth="yes"/>
      <point x="83" y="201"/>
      <point x="79" y="279"/>
      <point x="98" y="367" type="curve" smooth="yes"/>
    </contour>
    <contour>
      <point x="270" y="299" type="line"/>
      <point x="257" y="238" type="line"/>
      <point x="257" y="234"/>
      <point x="255" y="226"/>
      <point x="253" y="222" type="curve"/>
      <point x="249" y="215"/>
      <point x="247" y="207"/>
      <point x="245" y="207" type="curve" smooth="yes"/>
      <point x="245" y="207"/>
      <point x="247" y="208"/>
      <point x="246" y="210" type="curve"/>
      <point x="244" y="217"/>
      <point x="243" y="225"/>
      <point x="246" y="238" type="curve" smooth="yes"/>
      <point x="301" y="497" type="line"/>
      <point x="302" y="501"/>
      <point x="304" y="508"/>
      <point x="306" y="512" type="curve"/>
      <point x="307" y="513"/>
      <point x="308" y="514"/>
      <point x="308" y="515" type="curve"/>
      <point x="313" y="525" type="line"/>
      <point x="313" y="524"/>
      <point x="313" y="523"/>
      <point x="314" y="523" type="curve"/>
      <point x="315" y="517"/>
      <point x="315" y="508"/>
      <point x="312" y="497" type="curve"/>
      <point x="299" y="436" type="line"/>
      <point x="357" y="436" type="line"/>
      <point x="370" y="497" type="line" smooth="yes"/>
      <point x="374" y="515"/>
      <point x="374" y="531"/>
      <point x="373" y="545" type="curve" smooth="yes"/>
      <point x="371" y="569"/>
      <point x="362" y="593"/>
      <point x="327" y="593" type="curve" smooth="yes"/>
      <point x="309" y="593"/>
      <point x="293" y="588"/>
      <point x="283" y="578" type="curve" smooth="yes"/>
      <point x="262" y="556"/>
      <point x="248" y="531"/>
      <point x="241" y="497" type="curve" smooth="yes"/>
      <point x="186" y="238" type="line" smooth="yes"/>
      <point x="182" y="220"/>
      <point x="181" y="204"/>
      <point x="182" y="190" type="curve" smooth="yes"/>
      <point x="184" y="166"/>
      <point x="195" y="142"/>
      <point x="231" y="142" type="curve" smooth="yes"/>
      <point x="248" y="142"/>
      <point x="264" y="148"/>
      <point x="273" y="157" type="curve"/>
      <point x="292" y="178"/>
      <point x="306" y="205"/>
      <point x="315" y="238" type="curve"/>
      <point x="328" y="299" type="line"/>
    </contour>
  </outline>
</glyph>
<glyph name="macron" format="1">
  <advance width="330"/>
  <unicode hex="00AF"/>
  <outline>
    <contour>
      <point x="147" y="642" type="line"/>
      <point x="281" y="642" type="line"/>
      <point x="297" y="721" type="line"/>
      <point x="163" y="721" type="line"/>
    </contour>
    <contour>
      <point x="222" y="547" type="move" name="_top"/>
    </contour>
  </outline>
</glyph>
<glyph name="acute" format="1">
  <advance width="330"/>
  <unicode hex="00B4"/>
  <outline>
    <contour>
      <point x="224" y="727" type="line"/>
      <point x="173" y="637" type="line"/>
      <point x="237" y="637" type="line"/>
      <point x="304" y="727" type="line"/>
    </contour>
    <contour>
      <point x="238.5" y="547" type="move" name="_top"/>
    </contour>
  </outline>
</glyph>
<glyph name="periodcentered" format="1">
  <advance width="93"/>
  <unicode hex="00B7"/>
  <outline>
    <contour>
      <point x="18" y="317" type="line"/>
      <point x="99" y="317" type="line"/>
      <point x="123" y="428" type="line"/>
      <point x="42" y="428" type="line"/>
    </contour>
  </outline>
</glyph>
<glyph name="cedilla" format="1">
  <advance width="330"/>
  <unicode hex="00B8"/>
  <outline>
    <contour>
      <point x="185" y="-54" type="line"/>
      <point x="117" y="-54" type="line"/>
      <point x="102" y="-123" type="line"/>
      <point x="124" y="-123" type="line"/>
      <point x="94" y="-188" type="line"/>
      <point x="143" y="-188" type="line"/>
      <point x="170" y="-123" type="line"/>
    </contour>
    <contour>
      <point x="139.5" y="0" type="move" name="_bottom"/>
    </contour>
  </outline>
</glyph>
<glyph name="questiondown" format="1">
  <advance width="219"/>
  <unicode hex="00BF"/>
  <outline>
    <contour>
      <point x="110" y="349" type="line"/>
      <point x="83" y="224" type="line" smooth="yes"/>
      <point x="79" y="205"/>
      <point x="76" y="188"/>
      <point x="69" y="171" type="curve" smooth="yes"/>
      <point x="57" y="139"/>
      <point x="42" y="111"/>
      <point x="27" y="87" type="curve" smooth="yes"/>
      <point x="20" y="76"/>
      <point x="14" y="65"/>
      <point x="7" y="55" type="curve"/>
      <point x="-14" y="19"/>
      <point x="-37" y="-21"/>
      <point x="-45" y="-62" type="curve" smooth="yes"/>
      <point x="-57" y="-116"/>
      <point x="-60" y="-192"/>
      <point x="18" y="-192" type="curve" smooth="yes"/>
      <point x="51" y="-192"/>
      <point x="81" y="-170"/>
      <point x="103" y="-143" type="curve" smooth="yes"/>
      <point x="126" y="-115"/>
      <point x="145" y="-84"/>
      <point x="151" y="-68" type="curve"/>
      <point x="100" y="-27" type="line"/>
      <point x="95" y="-36"/>
      <point x="87" y="-55"/>
      <point x="76" y="-71" type="curve"/>
      <point x="64" y="-86"/>
      <point x="53" y="-98"/>
      <point x="40" y="-98" type="curve" smooth="yes"/>
      <point x="-3" y="-98"/>
      <point x="43" y="-18"/>
      <point x="56" y="3" type="curve" smooth="yes"/>
      <point x="72" y="28"/>
      <point x="90" y="56"/>
      <point x="106" y="92" type="curve" smooth="yes"/>
      <point x="123" y="128"/>
      <point x="143" y="171"/>
      <point x="154" y="224" type="curve" smooth="yes"/>
      <point x="181" y="349" type="line"/>
    </contour>
    <contour>
      <point x="227" y="547" type="line"/>
      <point x="146" y="547" type="line"/>
      <point x="122" y="436" type="line"/>
      <point x="203" y="436" type="line"/>
    </contour>
  </outline>
</glyph>
<glyph name="AE" format="1">
  <advance width="352"/>
  <unicode hex="00C6"/>
  <outline>
    <contour>
      <point x="113" y="0" type="line"/>
      <point x="279" y="0" type="line"/>
      <point x="303" y="111" type="line"/>
      <point x="220" y="111" type="line"/>
      <point x="263" y="313" type="line"/>
      <point x="323" y="313" type="line"/>
      <point x="348" y="431" type="line"/>
      <point x="288" y="431" type="line"/>
      <point x="329" y="624" type="line"/>
      <point x="412" y="624" type="line"/>
      <point x="436" y="735" type="line"/>
      <point x="236" y="735" type="line"/>
      <point x="-43" y="0" type="line"/>
      <point x="38" y="0" type="line"/>
      <point x="96" y="150" type="line"/>
      <point x="145" y="150" type="line"/>
    </contour>
    <contour>
      <point x="228" y="538" type="line"/>
      <point x="217" y="485"/>
      <point x="179" y="309"/>
      <point x="170" y="264" type="curve"/>
      <point x="138" y="264" type="line"/>
    </contour>
    <contour>
      <point x="176" y="735" type="move" name="top"/>
    </contour>
  </outline>
</glyph>
<glyph name="Ccedilla" format="1">
  <advance width="238"/>
  <unicode hex="00C7"/>
  <outline>
    <contour>
      <point x="97" y="-54" type="line"/>
      <point x="29" y="-54" type="line"/>
      <point x="14" y="-123" type="line"/>
      <point x="32" y="-123" type="line"/>
      <point x="6" y="-188" type="line"/>
      <point x="55" y="-188" type="line"/>
      <point x="82" y="-123" type="line"/>
    </contour>
    <contour>
      <point x="149" y="252" type="line"/>
      <point x="125" y="141" type="line" smooth="yes"/>
      <point x="122" y="127"/>
      <point x="115" y="97"/>
      <point x="99" y="97" type="curve" smooth="yes"/>
      <point x="87" y="97"/>
      <point x="91" y="127"/>
      <point x="94" y="141" type="curve" smooth="yes"/>
      <point x="191" y="598" type="line"/>
      <point x="195" y="614"/>
      <point x="201" y="638"/>
      <point x="214" y="638" type="curve" smooth="yes"/>
      <point x="230" y="638"/>
      <point x="224" y="607"/>
      <point x="221" y="594" type="curve" smooth="yes"/>
      <point x="198" y="483" type="line"/>
      <point x="279" y="483" type="line"/>
      <point x="302" y="594" type="line" smooth="yes"/>
      <point x="313" y="646"/>
      <point x="315" y="743"/>
      <point x="235" y="743" type="curve" smooth="yes"/>
      <point x="160" y="743"/>
      <point x="119" y="659"/>
      <point x="105" y="594" type="curve" smooth="yes"/>
      <point x="9" y="141" type="line" smooth="yes"/>
      <point x="-4" y="76"/>
      <point x="-2" y="-8"/>
      <point x="75" y="-8" type="curve" smooth="yes"/>
      <point x="151" y="-8"/>
      <point x="190" y="64"/>
      <point x="206" y="141" type="curve" smooth="yes"/>
      <point x="230" y="252" type="line"/>
    </contour>
  </outline>
</glyph>
<glyph name="Egrave" format="1">
  <advance width="214"/>
  <unicode hex="00C8"/>
  <outline>
    <contour>
      <point x="165" y="890" type="line"/>
      <point x="194" y="800" type="line"/>
      <point x="258" y="800" type="line"/>
      <point x="245" y="890" type="line"/>
    </contour>
    <contour>
      <point x="-32" y="0" type="line"/>
      <point x="133" y="0" type="line"/>
      <point x="157" y="111" type="line"/>
      <point x="74" y="111" type="line"/>
      <point x="117" y="313" type="line"/>
      <point x="177" y="313" type="line"/>
      <point x="202" y="431" type="line"/>
      <point x="142" y="431" type="line"/>
      <point x="183" y="624" type="line"/>
      <point x="266" y="624" type="line"/>
      <point x="289" y="735" type="line"/>
      <point x="123" y="735" type="line"/>
    </contour>
  </outline>
</glyph>
<glyph name="Eacute" format="1">
  <advance width="214"/>
  <unicode hex="00C9"/>
  <outline>
    <contour>
      <point x="232" y="890" type="line"/>
      <point x="182" y="800" type="line"/>
      <point x="246" y="800" type="line"/>
      <point x="312" y="890" type="line"/>
    </contour>
    <contour>
      <point x="-32" y="0" type="line"/>
      <point x="133" y="0" type="line"/>
      <point x="157" y="111" type="line"/>
      <point x="74" y="111" type="line"/>
      <point x="117" y="313" type="line"/>
      <point x="177" y="313" type="line"/>
      <point x="202" y="431" type="line"/>
      <point x="142" y="431" type="line"/>
      <point x="183" y="624" type="line"/>
      <point x="266" y="624" type="line"/>
      <point x="289" y="735" type="line"/>
      <point x="123" y="735" type="line"/>
    </contour>
  </outline>
</glyph>
<glyph name="Ecircumflex" format="1">
  <advance width="214"/>
  <unicode hex="00CA"/>
  <outline>
    <contour>
      <point x="-32" y="0" type="line"/>
      <point x="133" y="0" type="line"/>
      <point x="157" y="111" type="line"/>
      <point x="74" y="111" type="line"/>
      <point x="117" y="313" type="line"/>
      <point x="177" y="313" type="line"/>
      <point x="202" y="431" type="line"/>
      <point x="142" y="431" type="line"/>
      <point x="183" y="624" type="line"/>
      <point x="266" y="624" type="line"/>
      <point x="289" y="735" type="line"/>
      <point x="123" y="735" type="line"/>
    </contour>
    <contour>
      <point x="201" y="890" type="line"/>
      <point x="140" y="800" type="line"/>
      <point x="205" y="800" type="line"/>
      <point x="231" y="839" type="line"/>
      <point x="239" y="800" type="line"/>
      <point x="304" y="800" type="line"/>
      <point x="282" y="890" type="line"/>
    </contour>
  </outline>
</glyph>
<glyph name="Edieresis" format="1">
  <advance width="214"/>
  <unicode hex="00CB"/>
  <outline>
    <contour>
      <point x="-32" y="0" type="line"/>
      <point x="133" y="0" type="line"/>
      <point x="156" y="111" type="line"/>
      <point x="73" y="111" type="line"/>
      <point x="116" y="313" type="line"/>
      <point x="176" y="313" type="line"/>
      <point x="201" y="431" type="line"/>
      <point x="141" y="431" type="line"/>
      <point x="182" y="624" type="line"/>
      <point x="265" y="624" type="line"/>
      <point x="289" y="735" type="line"/>
      <point x="123" y="735" type="line"/>
    </contour>
    <contour>
      <point x="137" y="800" type="line"/>
      <point x="211" y="800" type="line"/>
      <point x="232" y="898" type="line"/>
      <point x="158" y="898" type="line"/>
    </contour>
    <contour>
      <point x="234" y="800" type="line"/>
      <point x="307" y="800" type="line"/>
      <point x="328" y="898" type="line"/>
      <point x="255" y="898" type="line"/>
    </contour>
  </outline>
</glyph>
<glyph name="Iacute" format="1">
  <advance width="148"/>
  <unicode hex="00CD"/>
  <outline>
    <contour>
      <point x="188" y="890" type="line"/>
      <point x="138" y="800" type="line"/>
      <point x="202" y="800" type="line"/>
      <point x="268" y="890" type="line"/>
    </contour>
    <contour>
      <point x="-32" y="0" type="line"/>
      <point x="50" y="0" type="line"/>
      <point x="206" y="735" type="line"/>
      <point x="123" y="735" type="line"/>
    </contour>
  </outline>
</glyph>
<glyph name="Icircumflex" format="1">
  <advance width="139"/>
  <unicode hex="00CE"/>
  <outline>
    <contour>
      <point x="-34" y="0" type="line"/>
      <point x="47" y="0" type="line"/>
      <point x="203" y="735" type="line"/>
      <point x="121" y="735" type="line"/>
    </contour>
    <contour>
      <point x="154" y="890" type="line"/>
      <point x="93" y="800" type="line"/>
      <point x="158" y="800" type="line"/>
      <point x="184" y="839" type="line"/>
      <point x="192" y="800" type="line"/>
      <point x="257" y="800" type="line"/>
      <point x="235" y="890" type="line"/>
    </contour>
  </outline>
</glyph>
<glyph name="Idieresis" format="1">
  <advance width="139"/>
  <unicode hex="00CF"/>
  <outline>
    <contour>
      <point x="-34" y="0" type="line"/>
      <point x="48" y="0" type="line"/>
      <point x="204" y="735" type="line"/>
      <point x="121" y="735" type="line"/>
    </contour>
    <contour>
      <point x="93" y="800" type="line"/>
      <point x="167" y="800" type="line"/>
      <point x="188" y="898" type="line"/>
      <point x="114" y="898" type="line"/>
    </contour>
    <contour>
      <point x="190" y="800" type="line"/>
      <point x="263" y="800" type="line"/>
      <point x="284" y="898" type="line"/>
      <point x="211" y="898" type="line"/>
    </contour>
  </outline>
</glyph>
<glyph name="Eth" format="1">
  <advance width="253"/>
  <unicode hex="00D0"/>
  <outline>
    <contour>
      <point x="26" y="320" type="line"/>
      <point x="44" y="320" type="line"/>
      <point x="-24" y="0" type="line"/>
      <point x="35" y="0" type="line" smooth="yes"/>
      <point x="169" y="0"/>
      <point x="188" y="66"/>
      <point x="252" y="367" type="curve" smooth="yes"/>
      <point x="317" y="673"/>
      <point x="328" y="735"/>
      <point x="192" y="735" type="curve" smooth="yes"/>
      <point x="132" y="735" type="line"/>
      <point x="67" y="431" type="line"/>
      <point x="49" y="431" type="line"/>
    </contour>
    <contour>
      <point x="192" y="627" type="line"/>
      <point x="203" y="626"/>
      <point x="219" y="623"/>
      <point x="218" y="593" type="curve" smooth="yes"/>
      <point x="217" y="575"/>
      <point x="213" y="544"/>
      <point x="206" y="510" type="curve" smooth="yes"/>
      <point x="199" y="475"/>
      <point x="189" y="428"/>
      <point x="177" y="368" type="curve" smooth="yes"/>
      <point x="164" y="308"/>
      <point x="154" y="261"/>
      <point x="146" y="226" type="curve" smooth="yes"/>
      <point x="138" y="191"/>
      <point x="129" y="160"/>
      <point x="122" y="143" type="curve"/>
      <point x="112" y="114"/>
      <point x="92" y="110"/>
      <point x="81" y="108" type="curve"/>
      <point x="127" y="320" type="line"/>
      <point x="142" y="320" type="line"/>
      <point x="165" y="431" type="line"/>
      <point x="150" y="431" type="line"/>
    </contour>
  </outline>
</glyph>
<glyph name="Oacute" format="1">
  <advance width="242"/>
  <unicode hex="00D3"/>
  <outline>
    <contour>
      <point x="248" y="890" type="line"/>
      <point x="197" y="800" type="line"/>
      <point x="261" y="800" type="line"/>
      <point x="328" y="890" type="line"/>
    </contour>
    <contour>
      <point x="289" y="594" type="line" smooth="yes"/>
      <point x="302" y="654"/>
      <point x="301" y="743"/>
      <point x="221" y="743" type="curve" smooth="yes"/>
      <point x="146" y="743"/>
      <point x="104" y="670"/>
      <point x="88" y="594" type="curve" smooth="yes"/>
      <point x="-7" y="141" type="line" smooth="yes"/>
      <point x="-22" y="71"/>
      <point x="-16" y="-8"/>
      <point x="61" y="-8" type="curve" smooth="yes"/>
      <point x="137" y="-8"/>
      <point x="176" y="65"/>
      <point x="193" y="141" type="curve" smooth="yes"/>
    </contour>
    <contour>
      <point x="110" y="141" type="line" smooth="yes"/>
      <point x="105" y="118"/>
      <point x="94" y="97"/>
      <point x="84" y="97" type="curve" smooth="yes"/>
      <point x="75" y="97"/>
      <point x="71" y="114"/>
      <point x="77" y="141" type="curve" smooth="yes"/>
      <point x="173" y="594" type="line" smooth="yes"/>
      <point x="178" y="618"/>
      <point x="188" y="638"/>
      <point x="199" y="638" type="curve" smooth="yes"/>
      <point x="210" y="638"/>
      <point x="211" y="617"/>
      <point x="206" y="594" type="curve" smooth="yes"/>
    </contour>
  </outline>
</glyph>
<glyph name="Ugrave" format="1">
  <advance width="250"/>
  <unicode hex="00D9"/>
  <outline>
    <contour>
      <point x="177" y="890" type="line"/>
      <point x="205" y="800" type="line"/>
      <point x="269" y="800" type="line"/>
      <point x="257" y="890" type="line"/>
    </contour>
    <contour>
      <point x="231" y="735" type="line"/>
      <point x="105" y="141" type="line" smooth="yes"/>
      <point x="100" y="117"/>
      <point x="92" y="97"/>
      <point x="80" y="97" type="curve" smooth="yes"/>
      <point x="67" y="97"/>
      <point x="68" y="113"/>
      <point x="74" y="141" type="curve" smooth="yes"/>
      <point x="200" y="735" type="line"/>
      <point x="117" y="735" type="line"/>
      <point x="-8" y="141" type="line" smooth="yes"/>
      <point x="-24" y="66"/>
      <point x="-21" y="-8"/>
      <point x="58" y="-8" type="curve" smooth="yes"/>
      <point x="133" y="-8"/>
      <point x="170" y="58"/>
      <point x="188" y="141" type="curve" smooth="yes"/>
      <point x="314" y="735" type="line"/>
    </contour>
  </outline>
</glyph>
<glyph name="Thorn" format="1">
  <advance width="242"/>
  <unicode hex="00DE"/>
  <outline>
    <contour>
      <point x="-24" y="0" type="line"/>
      <point x="58" y="0" type="line"/>
      <point x="96" y="176" type="line"/>
      <point x="126" y="179"/>
      <point x="157" y="195"/>
      <point x="183" y="224" type="curve" smooth="yes"/>
      <point x="213" y="259"/>
      <point x="239" y="314"/>
      <point x="257" y="397" type="curve" smooth="yes"/>
      <point x="275" y="480"/>
      <point x="271" y="536"/>
      <point x="257" y="571" type="curve"/>
      <point x="243" y="601"/>
      <point x="218" y="615"/>
      <point x="190" y="617" type="curve"/>
      <point x="214" y="735" type="line"/>
      <point x="132" y="735" type="line"/>
    </contour>
    <contour>
      <point x="166" y="507" type="line"/>
      <point x="175" y="505"/>
      <point x="182" y="499"/>
      <point x="184" y="484" type="curve"/>
      <point x="189" y="466"/>
      <point x="183" y="434"/>
      <point x="174" y="393" type="curve" smooth="yes"/>
      <point x="165" y="352"/>
      <point x="158" y="322"/>
      <point x="147" y="306" type="curve"/>
      <point x="139" y="292"/>
      <point x="129" y="288"/>
      <point x="119" y="286" type="curve"/>
    </contour>
  </outline>
</glyph>
<glyph name="germandbls" format="1">
  <advance width="251"/>
  <unicode hex="00DF"/>
  <outline>
    <contour>
      <point x="171" y="478" type="line"/>
      <point x="183" y="478"/>
      <point x="192" y="471"/>
      <point x="192" y="443" type="curve" smooth="yes"/>
      <point x="192" y="415"/>
      <point x="185" y="366"/>
      <point x="167" y="281" type="curve" smooth="yes"/>
      <point x="150" y="201"/>
      <point x="137" y="154"/>
      <point x="125" y="127" type="curve" smooth="yes"/>
      <point x="113" y="100"/>
      <point x="101" y="94"/>
      <point x="89" y="94" type="curve"/>
      <point x="69" y="0" type="line"/>
      <point x="112" y="0"/>
      <point x="145" y="9"/>
      <point x="170" y="49" type="curve" smooth="yes"/>
      <point x="196" y="89"/>
      <point x="219" y="160"/>
      <point x="245" y="281" type="curve" smooth="yes"/>
      <point x="260" y="354"/>
      <point x="268" y="408"/>
      <point x="268" y="446" type="curve" smooth="yes"/>
      <point x="268" y="478"/>
      <point x="260" y="503"/>
      <point x="248" y="519" type="curve"/>
      <point x="271" y="541"/>
      <point x="288" y="571"/>
      <point x="295" y="604" type="curve" smooth="yes"/>
      <point x="309" y="667"/>
      <point x="304" y="743"/>
      <point x="226" y="743" type="curve" smooth="yes"/>
      <point x="155" y="743"/>
      <point x="110" y="674"/>
      <point x="95" y="603" type="curve" smooth="yes"/>
      <point x="-32" y="0" type="line"/>
      <point x="46" y="0" type="line"/>
      <point x="174" y="603" type="line" smooth="yes"/>
      <point x="181" y="633"/>
      <point x="192" y="653"/>
      <point x="207" y="653" type="curve" smooth="yes"/>
      <point x="224" y="653"/>
      <point x="229" y="631"/>
      <point x="223" y="604" type="curve" smooth="yes"/>
      <point x="216" y="569"/>
      <point x="199" y="547"/>
      <point x="185" y="547" type="curve"/>
    </contour>
  </outline>
</glyph>
<glyph name="aacute" format="1">
  <advance width="230"/>
  <unicode hex="00E1"/>
  <outline>
    <contour>
      <point x="207" y="727" type="line"/>
      <point x="156" y="637" type="line"/>
      <point x="220" y="637" type="line"/>
      <point x="287" y="727" type="line"/>
    </contour>
    <contour>
      <point x="152" y="363" type="line"/>
      <point x="146" y="352"/>
      <point x="127" y="335"/>
      <point x="111" y="324" type="curve" smooth="yes"/>
      <point x="45" y="276"/>
      <point x="9" y="203"/>
      <point x="-6" y="127" type="curve" smooth="yes"/>
      <point x="-13" y="93"/>
      <point x="-31" y="-8"/>
      <point x="22" y="-8" type="curve" smooth="yes"/>
      <point x="46" y="-8"/>
      <point x="69" y="12"/>
      <point x="81" y="33" type="curve"/>
      <point x="81" y="27"/>
      <point x="84" y="5"/>
      <point x="86" y="0" type="curve"/>
      <point x="153" y="0" type="line"/>
      <point x="155" y="24"/>
      <point x="158" y="46"/>
      <point x="169" y="95" type="curve" smooth="yes"/>
      <point x="240" y="431" type="line"/>
      <point x="253" y="482"/>
      <point x="243" y="555"/>
      <point x="182" y="555" type="curve" smooth="yes"/>
      <point x="116" y="555"/>
      <point x="73" y="480"/>
      <point x="60" y="419" type="curve" smooth="yes"/>
      <point x="53" y="386" type="line"/>
      <point x="129" y="386" type="line"/>
      <point x="137" y="422" type="line" smooth="yes"/>
      <point x="140" y="436"/>
      <point x="151" y="468"/>
      <point x="161" y="468" type="curve" smooth="yes"/>
      <point x="170" y="468"/>
      <point x="168" y="439"/>
      <point x="164" y="422" type="curve" smooth="yes"/>
    </contour>
    <contour>
      <point x="100" y="124" type="line" smooth="yes"/>
      <point x="96" y="105"/>
      <point x="84" y="87"/>
      <point x="71" y="87" type="curve" smooth="yes"/>
      <point x="57" y="87"/>
      <point x="65" y="125"/>
      <point x="66" y="128" type="curve"/>
      <point x="75" y="172"/>
      <point x="104" y="228"/>
      <point x="127" y="251" type="curve"/>
    </contour>
  </outline>
</glyph>
<glyph name="atilde" format="1">
  <advance width="230"/>
  <unicode hex="00E3"/>
  <outline>
    <contour>
      <point x="151" y="363" type="line"/>
      <point x="146" y="352"/>
      <point x="126" y="335"/>
      <point x="111" y="324" type="curve" smooth="yes"/>
      <point x="44" y="276"/>
      <point x="9" y="203"/>
      <point x="-6" y="127" type="curve"/>
      <point x="-14" y="93"/>
      <point x="-32" y="-8"/>
      <point x="21" y="-8" type="curve" smooth="yes"/>
      <point x="45" y="-8"/>
      <point x="68" y="12"/>
      <point x="81" y="33" type="curve"/>
      <point x="80" y="27"/>
      <point x="84" y="5"/>
      <point x="86" y="0" type="curve"/>
      <point x="153" y="0" type="line"/>
      <point x="155" y="24"/>
      <point x="157" y="46"/>
      <point x="168" y="95" type="curve" smooth="yes"/>
      <point x="239" y="431" type="line"/>
      <point x="252" y="482"/>
      <point x="243" y="555"/>
      <point x="182" y="555" type="curve" smooth="yes"/>
      <point x="116" y="555"/>
      <point x="73" y="480"/>
      <point x="60" y="419" type="curve" smooth="yes"/>
      <point x="53" y="386" type="line"/>
      <point x="129" y="386" type="line"/>
      <point x="136" y="422" type="line" smooth="yes"/>
      <point x="139" y="436"/>
      <point x="150" y="468"/>
      <point x="160" y="468" type="curve" smooth="yes"/>
      <point x="169" y="468"/>
      <point x="167" y="439"/>
      <point x="163" y="422" type="curve" smooth="yes"/>
    </contour>
    <contour>
      <point x="99" y="124" type="line" smooth="yes"/>
      <point x="95" y="105"/>
      <point x="83" y="87"/>
      <point x="70" y="87" type="curve" smooth="yes"/>
      <point x="56" y="87"/>
      <point x="64" y="125"/>
      <point x="65" y="128" type="curve"/>
      <point x="74" y="172"/>
      <point x="103" y="228"/>
      <point x="126" y="251" type="curve"/>
    </contour>
    <contour>
      <point x="124" y="619" type="line"/>
      <point x="131" y="626"/>
      <point x="159" y="649"/>
      <point x="171" y="649" type="curve" smooth="yes"/>
      <point x="191" y="649"/>
      <point x="198" y="630"/>
      <point x="221" y="630" type="curve" smooth="yes"/>
      <point x="239" y="630"/>
      <point x="255" y="642"/>
      <point x="266" y="655" type="curve"/>
      <point x="284" y="738" type="line"/>
      <point x="275" y="728"/>
      <point x="250" y="709"/>
      <point x="237" y="709" type="curve" smooth="yes"/>
      <point x="218" y="709"/>
      <point x="211" y="726"/>
      <point x="188" y="726" type="curve" smooth="yes"/>
      <point x="173" y="726"/>
      <point x="154" y="718"/>
      <point x="143" y="705" type="curve"/>
    </contour>
  </outline>
</glyph>
<glyph name="aring" format="1">
  <advance width="230"/>
  <unicode hex="00E5"/>
  <outline>
    <contour>
      <point x="149" y="363" type="line"/>
      <point x="144" y="352"/>
      <point x="125" y="335"/>
      <point x="109" y="324" type="curve" smooth="yes"/>
      <point x="43" y="276"/>
      <point x="7" y="203"/>
      <point x="-8" y="127" type="curve" smooth="yes"/>
      <point x="-15" y="93"/>
      <point x="-33" y="-8"/>
      <point x="20" y="-8" type="curve" smooth="yes"/>
      <point x="44" y="-8"/>
      <point x="67" y="12"/>
      <point x="79" y="33" type="curve"/>
      <point x="79" y="27"/>
      <point x="82" y="5"/>
      <point x="84" y="0" type="curve"/>
      <point x="151" y="0" type="line"/>
      <point x="153" y="24"/>
      <point x="156" y="46"/>
      <point x="167" y="95" type="curve" smooth="yes"/>
      <point x="238" y="431" type="line"/>
      <point x="251" y="482"/>
      <point x="241" y="555"/>
      <point x="180" y="555" type="curve" smooth="yes"/>
      <point x="114" y="555"/>
      <point x="71" y="480"/>
      <point x="58" y="419" type="curve" smooth="yes"/>
      <point x="51" y="386" type="line"/>
      <point x="127" y="386" type="line"/>
      <point x="135" y="422" type="line" smooth="yes"/>
      <point x="138" y="436"/>
      <point x="149" y="468"/>
      <point x="159" y="468" type="curve" smooth="yes"/>
      <point x="168" y="468"/>
      <point x="166" y="439"/>
      <point x="162" y="422" type="curve" smooth="yes"/>
    </contour>
    <contour>
      <point x="98" y="124" type="line" smooth="yes"/>
      <point x="94" y="105"/>
      <point x="82" y="87"/>
      <point x="69" y="87" type="curve" smooth="yes"/>
      <point x="55" y="87"/>
      <point x="63" y="125"/>
      <point x="64" y="128" type="curve"/>
      <point x="73" y="172"/>
      <point x="102" y="228"/>
      <point x="125" y="251" type="curve"/>
    </contour>
    <contour>
      <point x="145" y="653"/>
      <point x="163" y="624"/>
      <point x="193" y="624" type="curve" smooth="yes"/>
      <point x="222" y="624"/>
      <point x="252" y="653"/>
      <point x="261" y="694" type="curve" smooth="yes"/>
      <point x="270" y="735"/>
      <point x="252" y="764"/>
      <point x="223" y="764" type="curve" smooth="yes"/>
      <point x="193" y="764"/>
      <point x="163" y="735"/>
      <point x="154" y="694" type="curve" smooth="yes"/>
    </contour>
    <contour>
      <point x="197" y="713"/>
      <point x="207" y="725"/>
      <point x="214" y="725" type="curve" smooth="yes"/>
      <point x="220" y="725"/>
      <point x="227" y="713"/>
      <point x="223" y="694" type="curve" smooth="yes"/>
      <point x="219" y="675"/>
      <point x="207" y="662"/>
      <point x="201" y="662" type="curve" smooth="yes"/>
      <point x="194" y="662"/>
      <point x="189" y="675"/>
      <point x="193" y="694" type="curve" smooth="yes"/>
    </contour>
  </outline>
</glyph>
<glyph name="ccedilla" format="1">
  <advance width="219"/>
  <unicode hex="00E7"/>
  <outline>
    <contour>
      <point x="98" y="-54" type="line"/>
      <point x="30" y="-54" type="line"/>
      <point x="15" y="-123" type="line"/>
      <point x="33" y="-123" type="line"/>
      <point x="7" y="-188" type="line"/>
      <point x="56" y="-188" type="line"/>
      <point x="83" y="-123" type="line"/>
    </contour>
    <contour>
      <point x="160" y="427" type="line" smooth="yes"/>
      <point x="164" y="447"/>
      <point x="175" y="467"/>
      <point x="184" y="467" type="curve" smooth="yes"/>
      <point x="193" y="467"/>
      <point x="198" y="460"/>
      <point x="191" y="427" type="curve" smooth="yes"/>
      <point x="176" y="355" type="line"/>
      <point x="252" y="355" type="line"/>
      <point x="263" y="408" type="line" smooth="yes"/>
      <point x="278" y="479"/>
      <point x="291" y="555"/>
      <point x="201" y="555" type="curve" smooth="yes"/>
      <point x="125" y="555"/>
      <point x="90" y="466"/>
      <point x="76" y="403" type="curve" smooth="yes"/>
      <point x="21" y="144" type="line" smooth="yes"/>
      <point x="9" y="87"/>
      <point x="1" y="-8"/>
      <point x="79" y="-8" type="curve" smooth="yes"/>
      <point x="167" y="-8"/>
      <point x="188" y="62"/>
      <point x="206" y="139" type="curve" smooth="yes"/>
      <point x="219" y="202" type="line"/>
      <point x="143" y="202" type="line"/>
      <point x="127" y="126" type="line" smooth="yes"/>
      <point x="120" y="93"/>
      <point x="112" y="83"/>
      <point x="102" y="83" type="curve" smooth="yes"/>
      <point x="92" y="83"/>
      <point x="92" y="106"/>
      <point x="96" y="126" type="curve" smooth="yes"/>
    </contour>
  </outline>
</glyph>
<glyph name="igrave" format="1">
  <advance width="139"/>
  <unicode hex="00EC"/>
  <outline>
    <contour>
      <point x="97" y="727" type="line"/>
      <point x="126" y="637" type="line"/>
      <point x="190" y="637" type="line"/>
      <point x="177" y="727" type="line"/>
    </contour>
    <contour>
      <point x="55" y="0" type="line"/>
      <point x="171" y="547" type="line"/>
      <point x="92" y="547" type="line"/>
      <point x="-23" y="0" type="line"/>
    </contour>
  </outline>
</glyph>
<glyph name="idieresis" format="1">
  <advance width="139"/>
  <unicode hex="00EF"/>
  <outline>
    <contour>
      <point x="54" y="0" type="line"/>
      <point x="171" y="547" type="line"/>
      <point x="92" y="547" type="line"/>
      <point x="-24" y="0" type="line"/>
    </contour>
    <contour>
      <point x="66" y="637" type="line"/>
      <point x="140" y="637" type="line"/>
      <point x="161" y="735" type="line"/>
      <point x="87" y="735" type="line"/>
    </contour>
    <contour>
      <point x="163" y="637" type="line"/>
      <point x="236" y="637" type="line"/>
      <point x="257" y="735" type="line"/>
      <point x="184" y="735" type="line"/>
    </contour>
  </outline>
</glyph>
<glyph name="eth" format="1">
  <advance width="227"/>
  <unicode hex="00F0"/>
  <outline>
    <contour>
      <point x="177" y="687" type="line"/>
      <point x="176" y="686"/>
      <point x="184" y="671"/>
      <point x="186" y="657" type="curve"/>
      <point x="145" y="612" type="line"/>
      <point x="158" y="569" type="line"/>
      <point x="185" y="600" type="line"/>
      <point x="185" y="584"/>
      <point x="184" y="559"/>
      <point x="182" y="538" type="curve"/>
      <point x="173" y="548"/>
      <point x="162" y="555"/>
      <point x="151" y="555" type="curve" smooth="yes"/>
      <point x="92" y="555"/>
      <point x="68" y="468"/>
      <point x="57" y="419" type="curve" smooth="yes"/>
      <point x="-2" y="136" type="line" smooth="yes"/>
      <point x="-15" y="75"/>
      <point x="-14" y="-8"/>
      <point x="58" y="-8" type="curve" smooth="yes"/>
      <point x="127" y="-8"/>
      <point x="168" y="76"/>
      <point x="180" y="133" type="curve" smooth="yes"/>
      <point x="248" y="453" type="line" smooth="yes"/>
      <point x="269" y="550"/>
      <point x="260" y="623"/>
      <point x="252" y="671" type="curve"/>
      <point x="289" y="714" type="line"/>
      <point x="277" y="758" type="line"/>
      <point x="241" y="718" type="line"/>
      <point x="241" y="718"/>
      <point x="234" y="743"/>
      <point x="232" y="751" type="curve"/>
    </contour>
    <contour>
      <point x="103" y="126" type="line" smooth="yes"/>
      <point x="100" y="110"/>
      <point x="86" y="81"/>
      <point x="77" y="81" type="curve" smooth="yes"/>
      <point x="65" y="81"/>
      <point x="65" y="104"/>
      <point x="69" y="126" type="curve" smooth="yes"/>
      <point x="132" y="421" type="line" smooth="yes"/>
      <point x="134" y="429"/>
      <point x="148" y="467"/>
      <point x="159" y="467" type="curve" smooth="yes"/>
      <point x="170" y="467"/>
      <point x="171" y="446"/>
      <point x="166" y="421" type="curve" smooth="yes"/>
    </contour>
  </outline>
</glyph>
<glyph name="ntilde" format="1">
  <advance width="232"/>
  <unicode hex="00F1"/>
  <outline>
    <contour>
      <point x="146" y="431" type="line" smooth="yes"/>
      <point x="150" y="452"/>
      <point x="157" y="467"/>
      <point x="167" y="467" type="curve" smooth="yes"/>
      <point x="177" y="467"/>
      <point x="179" y="453"/>
      <point x="175" y="432" type="curve" smooth="yes"/>
      <point x="83" y="0" type="line"/>
      <point x="161" y="0" type="line"/>
      <point x="256" y="448" type="line" smooth="yes"/>
      <point x="263" y="481"/>
      <point x="275" y="555"/>
      <point x="225" y="555" type="curve" smooth="yes"/>
      <point x="208" y="555"/>
      <point x="178" y="534"/>
      <point x="164" y="519" type="curve"/>
      <point x="170" y="547" type="line"/>
      <point x="91" y="547" type="line"/>
      <point x="-24" y="0" type="line"/>
      <point x="54" y="0" type="line"/>
    </contour>
    <contour>
      <point x="126" y="623" type="line"/>
      <point x="133" y="630"/>
      <point x="161" y="653"/>
      <point x="173" y="653" type="curve" smooth="yes"/>
      <point x="193" y="653"/>
      <point x="200" y="634"/>
      <point x="223" y="634" type="curve" smooth="yes"/>
      <point x="241" y="634"/>
      <point x="257" y="646"/>
      <point x="268" y="659" type="curve"/>
      <point x="286" y="742" type="line"/>
      <point x="278" y="732"/>
      <point x="253" y="713"/>
      <point x="240" y="713" type="curve" smooth="yes"/>
      <point x="221" y="713"/>
      <point x="213" y="730"/>
      <point x="190" y="730" type="curve" smooth="yes"/>
      <point x="175" y="730"/>
      <point x="157" y="722"/>
      <point x="145" y="709" type="curve"/>
    </contour>
  </outline>
</glyph>
<glyph name="otilde" format="1">
  <advance width="223"/>
  <unicode hex="00F5"/>
  <outline>
    <contour>
      <point x="244" y="414" type="line" smooth="yes"/>
      <point x="260" y="491"/>
      <point x="263" y="555"/>
      <point x="183" y="555" type="curve" smooth="yes"/>
      <point x="109" y="555"/>
      <point x="74" y="487"/>
      <point x="58" y="411" type="curve" smooth="yes"/>
      <point x="0" y="136" type="line" smooth="yes"/>
      <point x="-14" y="68"/>
      <point x="-17" y="-8"/>
      <point x="61" y="-8" type="curve" smooth="yes"/>
      <point x="133" y="-8"/>
      <point x="166" y="49"/>
      <point x="184" y="133" type="curve" smooth="yes"/>
    </contour>
    <contour>
      <point x="107" y="126" type="line"/>
      <point x="106" y="117"/>
      <point x="96" y="81"/>
      <point x="80" y="81" type="curve" smooth="yes"/>
      <point x="66" y="81"/>
      <point x="67" y="104"/>
      <point x="72" y="126" type="curve" smooth="yes"/>
      <point x="135" y="421" type="line" smooth="yes"/>
      <point x="141" y="448"/>
      <point x="149" y="467"/>
      <point x="163" y="467" type="curve" smooth="yes"/>
      <point x="179" y="467"/>
      <point x="176" y="446"/>
      <point x="170" y="421" type="curve" smooth="yes"/>
    </contour>
    <contour>
      <point x="122" y="622" type="line"/>
      <point x="128" y="629"/>
      <point x="156" y="652"/>
      <point x="168" y="652" type="curve" smooth="yes"/>
      <point x="188" y="652"/>
      <point x="195" y="633"/>
      <point x="218" y="633" type="curve" smooth="yes"/>
      <point x="236" y="633"/>
      <point x="253" y="645"/>
      <point x="263" y="658" type="curve"/>
      <point x="281" y="741" type="line"/>
      <point x="273" y="731"/>
      <point x="248" y="712"/>
      <point x="235" y="712" type="curve" smooth="yes"/>
      <point x="216" y="712"/>
      <point x="209" y="729"/>
      <point x="186" y="729" type="curve" smooth="yes"/>
      <point x="171" y="729"/>
      <point x="152" y="721"/>
      <point x="140" y="708" type="curve"/>
    </contour>
  </outline>
</glyph>
<glyph name="odieresis" format="1">
  <advance width="223"/>
  <unicode hex="00F6"/>
  <outline>
    <contour>
      <point x="244" y="414" type="line" smooth="yes"/>
      <point x="260" y="491"/>
      <point x="263" y="555"/>
      <point x="183" y="555" type="curve" smooth="yes"/>
      <point x="109" y="555"/>
      <point x="74" y="487"/>
      <point x="58" y="411" type="curve" smooth="yes"/>
      <point x="0" y="136" type="line" smooth="yes"/>
      <point x="-14" y="68"/>
      <point x="-17" y="-8"/>
      <point x="61" y="-8" type="curve" smooth="yes"/>
      <point x="133" y="-8"/>
      <point x="166" y="49"/>
      <point x="184" y="133" type="curve" smooth="yes"/>
    </contour>
    <contour>
      <point x="108" y="126" type="line"/>
      <point x="107" y="117"/>
      <point x="96" y="81"/>
      <point x="80" y="81" type="curve" smooth="yes"/>
      <point x="66" y="81"/>
      <point x="67" y="104"/>
      <point x="73" y="126" type="curve"/>
      <point x="135" y="421" type="line" smooth="yes"/>
      <point x="141" y="448"/>
      <point x="149" y="467"/>
      <point x="163" y="467" type="curve" smooth="yes"/>
      <point x="179" y="467"/>
      <point x="177" y="446"/>
      <point x="170" y="421" type="curve"/>
    </contour>
    <contour>
      <point x="114" y="637" type="line"/>
      <point x="188" y="637" type="line"/>
      <point x="209" y="735" type="line"/>
      <point x="135" y="735" type="line"/>
    </contour>
    <contour>
      <point x="211" y="637" type="line"/>
      <point x="284" y="637" type="line"/>
      <point x="305" y="735" type="line"/>
      <point x="232" y="735" type="line"/>
    </contour>
  </outline>
</glyph>
<glyph name="ucircumflex" format="1">
  <advance width="232"/>
  <unicode hex="00FB"/>
  <outline>
    <contour>
      <point x="104" y="116" type="line" smooth="yes"/>
      <point x="100" y="95"/>
      <point x="92" y="80"/>
      <point x="82" y="80" type="curve" smooth="yes"/>
      <point x="72" y="80"/>
      <point x="70" y="94"/>
      <point x="75" y="115" type="curve" smooth="yes"/>
      <point x="167" y="547" type="line"/>
      <point x="89" y="547" type="line"/>
      <point x="-6" y="99" type="line" smooth="yes"/>
      <point x="-13" y="66"/>
      <point x="-24" y="-8"/>
      <point x="25" y="-8" type="curve" smooth="yes"/>
      <point x="42" y="-8"/>
      <point x="72" y="13"/>
      <point x="85" y="28" type="curve"/>
      <point x="79" y="0" type="line"/>
      <point x="158" y="0" type="line"/>
      <point x="275" y="547" type="line"/>
      <point x="196" y="547" type="line"/>
    </contour>
    <contour>
      <point x="178" y="727" type="line"/>
      <point x="117" y="637" type="line"/>
      <point x="182" y="637" type="line"/>
      <point x="207" y="676" type="line"/>
      <point x="216" y="637" type="line"/>
      <point x="281" y="637" type="line"/>
      <point x="259" y="727" type="line"/>
    </contour>
  </outline>
</glyph>
<glyph name="udieresis" format="1">
  <advance width="232"/>
  <unicode hex="00FC"/>
  <outline>
    <contour>
      <point x="104" y="116" type="line" smooth="yes"/>
      <point x="99" y="95"/>
      <point x="92" y="80"/>
      <point x="82" y="80" type="curve" smooth="yes"/>
      <point x="72" y="80"/>
      <point x="70" y="94"/>
      <point x="74" y="115" type="curve" smooth="yes"/>
      <point x="166" y="547" type="line"/>
      <point x="88" y="547" type="line"/>
      <point x="-6" y="99" type="line" smooth="yes"/>
      <point x="-13" y="66"/>
      <point x="-25" y="-8"/>
      <point x="24" y="-8" type="curve" smooth="yes"/>
      <point x="41" y="-8"/>
      <point x="72" y="13"/>
      <point x="85" y="28" type="curve"/>
      <point x="79" y="0" type="line"/>
      <point x="158" y="0" type="line"/>
      <point x="274" y="547" type="line"/>
      <point x="195" y="547" type="line"/>
    </contour>
    <contour>
      <point x="113" y="637" type="line"/>
      <point x="187" y="637" type="line"/>
      <point x="208" y="735" type="line"/>
      <point x="134" y="735" type="line"/>
    </contour>
    <contour>
      <point x="210" y="637" type="line"/>
      <point x="283" y="637" type="line"/>
      <point x="304" y="735" type="line"/>
      <point x="231" y="735" type="line"/>
    </contour>
  </outline>
</glyph>
<glyph name="yacute" format="1">
  <advance width="226"/>
  <unicode hex="00FD"/>
  <outline>
    <contour>
      <point x="221" y="727" type="line"/>
      <point x="171" y="637" type="line"/>
      <point x="235" y="637" type="line"/>
      <point x="301" y="727" type="line"/>
    </contour>
    <contour>
      <point x="-58" y="-193" type="line"/>
      <point x="-23" y="-208"/>
      <point x="20" y="-190"/>
      <point x="52" y="-147" type="curve" smooth="yes"/>
      <point x="74" y="-119"/>
      <point x="92" y="-77"/>
      <point x="103" y="-41" type="curve" smooth="yes"/>
      <point x="296" y="547" type="line"/>
      <point x="218" y="547" type="line"/>
      <point x="197" y="473"/>
      <point x="144" y="299"/>
      <point x="123" y="224" type="curve"/>
      <point x="163" y="547" type="line"/>
      <point x="86" y="547" type="line"/>
      <point x="32" y="-16" type="line"/>
      <point x="27" y="-41"/>
      <point x="18" y="-75"/>
      <point x="-3" y="-99" type="curve"/>
      <point x="-13" y="-109"/>
      <point x="-25" y="-110"/>
      <point x="-39" y="-104" type="curve"/>
    </contour>
  </outline>
</glyph>
<glyph name="ydieresis" format="1">
  <advance width="216"/>
  <unicode hex="00FF"/>
  <outline>
    <contour>
      <point x="123" y="637" type="line"/>
      <point x="197" y="637" type="line"/>
      <point x="218" y="735" type="line"/>
      <point x="144" y="735" type="line"/>
    </contour>
    <contour>
      <point x="220" y="637" type="line"/>
      <point x="293" y="637" type="line"/>
      <point x="314" y="735" type="line"/>
      <point x="241" y="735" type="line"/>
    </contour>
    <contour>
      <point x="-58" y="-193" type="line"/>
      <point x="-23" y="-208"/>
      <point x="20" y="-190"/>
      <point x="52" y="-147" type="curve" smooth="yes"/>
      <point x="74" y="-119"/>
      <point x="92" y="-77"/>
      <point x="102" y="-41" type="curve"/>
      <point x="295" y="547" type="line"/>
      <point x="217" y="547" type="line"/>
      <point x="197" y="473"/>
      <point x="144" y="299"/>
      <point x="123" y="224" type="curve"/>
      <point x="162" y="547" type="line"/>
      <point x="85" y="547" type="line"/>
      <point x="32" y="-16" type="line"/>
      <point x="26" y="-41"/>
      <point x="17" y="-75"/>
      <point x="-3" y="-99" type="curve"/>
      <point x="-13" y="-109"/>
      <point x="-25" y="-110"/>
      <point x="-39" y="-104" type="curve"/>
    </contour>
  </outline>
</glyph>
<glyph name="Amacron" format="1">
  <advance width="254"/>
  <unicode hex="0100"/>
  <outline>
    <contour>
      <point x="174" y="830" type="line"/>
      <point x="308" y="830" type="line"/>
      <point x="324" y="909" type="line"/>
      <point x="190" y="909" type="line"/>
    </contour>
    <contour>
      <point x="29" y="0" type="line"/>
      <point x="72" y="150" type="line"/>
      <point x="118" y="150" type="line"/>
      <point x="97" y="0" type="line"/>
      <point x="178" y="0" type="line"/>
      <point x="268" y="735" type="line"/>
      <point x="171" y="735" type="line"/>
      <point x="-51" y="0" type="line"/>
    </contour>
    <contour>
      <point x="135" y="264" type="line"/>
      <point x="104" y="264" type="line"/>
      <point x="181" y="556" type="line"/>
    </contour>
  </outline>
</glyph>
<glyph name="amacron" format="1">
  <advance width="230"/>
  <unicode hex="0101"/>
  <outline>
    <contour>
      <point x="132" y="642" type="line"/>
      <point x="266" y="642" type="line"/>
      <point x="283" y="721" type="line"/>
      <point x="149" y="721" type="line"/>
    </contour>
    <contour>
      <point x="152" y="363" type="line"/>
      <point x="146" y="352"/>
      <point x="127" y="335"/>
      <point x="112" y="324" type="curve" smooth="yes"/>
      <point x="45" y="276"/>
      <point x="10" y="203"/>
      <point x="-5" y="127" type="curve"/>
      <point x="-13" y="93"/>
      <point x="-31" y="-8"/>
      <point x="22" y="-8" type="curve" smooth="yes"/>
      <point x="46" y="-8"/>
      <point x="69" y="12"/>
      <point x="82" y="33" type="curve"/>
      <point x="81" y="27"/>
      <point x="85" y="5"/>
      <point x="87" y="0" type="curve"/>
      <point x="154" y="0" type="line"/>
      <point x="156" y="24"/>
      <point x="158" y="46"/>
      <point x="169" y="95" type="curve" smooth="yes"/>
      <point x="240" y="431" type="line"/>
      <point x="253" y="482"/>
      <point x="244" y="555"/>
      <point x="183" y="555" type="curve" smooth="yes"/>
      <point x="117" y="555"/>
      <point x="74" y="480"/>
      <point x="61" y="419" type="curve" smooth="yes"/>
      <point x="54" y="386" type="line"/>
      <point x="130" y="386" type="line"/>
      <point x="137" y="422" type="line" smooth="yes"/>
      <point x="140" y="436"/>
      <point x="151" y="468"/>
      <point x="161" y="468" type="curve" smooth="yes"/>
      <point x="170" y="468"/>
      <point x="168" y="439"/>
      <point x="164" y="422" type="curve" smooth="yes"/>
    </contour>
    <contour>
      <point x="100" y="124" type="line" smooth="yes"/>
      <point x="96" y="105"/>
      <point x="84" y="87"/>
      <point x="71" y="87" type="curve" smooth="yes"/>
      <point x="57" y="87"/>
      <point x="65" y="125"/>
      <point x="66" y="128" type="curve"/>
      <point x="75" y="172"/>
      <point x="104" y="228"/>
      <point x="127" y="251" type="curve"/>
    </contour>
  </outline>
</glyph>
<glyph name="Abreve" format="1">
  <advance width="254"/>
  <unicode hex="0102"/>
  <outline>
    <contour>
      <point x="28" y="0" type="line"/>
      <point x="71" y="150" type="line"/>
      <point x="117" y="150" type="line"/>
      <point x="96" y="0" type="line"/>
      <point x="177" y="0" type="line"/>
      <point x="268" y="735" type="line"/>
      <point x="171" y="735" type="line"/>
      <point x="-52" y="0" type="line"/>
    </contour>
    <contour>
      <point x="134" y="264" type="line"/>
      <point x="103" y="264" type="line"/>
      <point x="180" y="556" type="line"/>
    </contour>
    <contour>
      <point x="296" y="925" type="line"/>
      <point x="296" y="925"/>
      <point x="270" y="894"/>
      <point x="254" y="894" type="curve" smooth="yes"/>
      <point x="236" y="894"/>
      <point x="228" y="926"/>
      <point x="228" y="926" type="curve"/>
      <point x="175" y="869" type="line"/>
      <point x="182" y="843"/>
      <point x="208" y="821"/>
      <point x="239" y="821" type="curve" smooth="yes"/>
      <point x="270" y="821"/>
      <point x="299" y="841"/>
      <point x="323" y="869" type="curve"/>
    </contour>
  </outline>
</glyph>
<glyph name="Aogonek" format="1">
  <advance width="254"/>
  <unicode hex="0104"/>
  <outline>
    <contour>
      <point x="197" y="0" type="line"/>
      <point x="288" y="735" type="line"/>
      <point x="191" y="735" type="line"/>
      <point x="-32" y="0" type="line"/>
      <point x="48" y="0" type="line"/>
      <point x="91" y="150" type="line"/>
      <point x="137" y="150" type="line"/>
      <point x="116" y="0" type="line"/>
      <point x="124" y="0" type="line"/>
      <point x="114" y="-11"/>
      <point x="106" y="-21"/>
      <point x="101" y="-28" type="curve"/>
      <point x="100" y="-29"/>
      <point x="99" y="-30"/>
      <point x="98" y="-31" type="curve"/>
      <point x="84" y="-50"/>
      <point x="67" y="-79"/>
      <point x="62" y="-103" type="curve" smooth="yes"/>
      <point x="52" y="-148"/>
      <point x="69" y="-188"/>
      <point x="114" y="-188" type="curve" smooth="yes"/>
      <point x="127" y="-188"/>
      <point x="138" y="-185"/>
      <point x="156" y="-176" type="curve"/>
      <point x="176" y="-101" type="line"/>
      <point x="159" y="-112"/>
      <point x="143" y="-121"/>
      <point x="138" y="-121" type="curve" smooth="yes"/>
      <point x="128" y="-121"/>
      <point x="119" y="-112"/>
      <point x="125" y="-83" type="curve"/>
      <point x="127" y="-71"/>
      <point x="131" y="-60"/>
      <point x="136" y="-50" type="curve" smooth="yes"/>
      <point x="146" y="-30"/>
      <point x="158" y="-13"/>
      <point x="168" y="0" type="curve"/>
    </contour>
    <contour>
      <point x="155" y="264" type="line"/>
      <point x="124" y="264" type="line"/>
      <point x="201" y="556" type="line"/>
    </contour>
  </outline>
</glyph>
<glyph name="aogonek" format="1">
  <advance width="230"/>
  <unicode hex="0105"/>
  <outline>
    <contour>
      <point x="118" y="124" type="line" smooth="yes"/>
      <point x="114" y="105"/>
      <point x="103" y="87"/>
      <point x="90" y="87" type="curve" smooth="yes"/>
      <point x="76" y="87"/>
      <point x="84" y="125"/>
      <point x="84" y="128" type="curve"/>
      <point x="94" y="172"/>
      <point x="123" y="228"/>
      <point x="145" y="251" type="curve"/>
    </contour>
    <contour>
      <point x="170" y="363" type="line"/>
      <point x="165" y="352"/>
      <point x="145" y="335"/>
      <point x="130" y="324" type="curve" smooth="yes"/>
      <point x="64" y="276"/>
      <point x="28" y="203"/>
      <point x="12" y="127" type="curve" smooth="yes"/>
      <point x="5" y="93"/>
      <point x="-13" y="-8"/>
      <point x="40" y="-8" type="curve" smooth="yes"/>
      <point x="64" y="-8"/>
      <point x="88" y="12"/>
      <point x="100" y="33" type="curve"/>
      <point x="100" y="27"/>
      <point x="103" y="5"/>
      <point x="105" y="0" type="curve"/>
      <point x="95" y="-2"/>
      <point x="76" y="-23"/>
      <point x="69" y="-31" type="curve"/>
      <point x="54" y="-51"/>
      <point x="40" y="-77"/>
      <point x="34" y="-103" type="curve" smooth="yes"/>
      <point x="25" y="-148"/>
      <point x="41" y="-188"/>
      <point x="86" y="-188" type="curve" smooth="yes"/>
      <point x="98" y="-188"/>
      <point x="109" y="-186"/>
      <point x="128" y="-176" type="curve"/>
      <point x="149" y="-101" type="line"/>
      <point x="131" y="-112"/>
      <point x="115" y="-121"/>
      <point x="110" y="-121" type="curve" smooth="yes"/>
      <point x="100" y="-121"/>
      <point x="91" y="-112"/>
      <point x="97" y="-83" type="curve"/>
      <point x="100" y="-71"/>
      <point x="103" y="-60"/>
      <point x="108" y="-50" type="curve"/>
      <point x="119" y="-30"/>
      <point x="130" y="-13"/>
      <point x="141" y="0" type="curve"/>
      <point x="172" y="0" type="line"/>
      <point x="174" y="24"/>
      <point x="177" y="46"/>
      <point x="187" y="95" type="curve" smooth="yes"/>
      <point x="259" y="431" type="line"/>
      <point x="272" y="482"/>
      <point x="262" y="555"/>
      <point x="201" y="555" type="curve" smooth="yes"/>
      <point x="135" y="555"/>
      <point x="92" y="480"/>
      <point x="79" y="419" type="curve" smooth="yes"/>
      <point x="72" y="386" type="line"/>
      <point x="148" y="386" type="line"/>
      <point x="156" y="422" type="line" smooth="yes"/>
      <point x="159" y="436"/>
      <point x="170" y="468"/>
      <point x="180" y="468" type="curve" smooth="yes"/>
      <point x="189" y="468"/>
      <point x="186" y="439"/>
      <point x="183" y="422" type="curve"/>
    </contour>
  </outline>
</glyph>
<glyph name="ccircumflex" format="1">
  <advance width="219"/>
  <unicode hex="0109"/>
  <outline>
    <contour>
      <point x="141" y="427" type="line" smooth="yes"/>
      <point x="145" y="447"/>
      <point x="157" y="467"/>
      <point x="166" y="467" type="curve" smooth="yes"/>
      <point x="175" y="467"/>
      <point x="179" y="460"/>
      <point x="172" y="427" type="curve" smooth="yes"/>
      <point x="157" y="355" type="line"/>
      <point x="233" y="355" type="line"/>
      <point x="244" y="408" type="line" smooth="yes"/>
      <point x="259" y="479"/>
      <point x="272" y="555"/>
      <point x="182" y="555" type="curve" smooth="yes"/>
      <point x="106" y="555"/>
      <point x="71" y="466"/>
      <point x="57" y="403" type="curve" smooth="yes"/>
      <point x="2" y="144" type="line" smooth="yes"/>
      <point x="-9" y="87"/>
      <point x="-16" y="-8"/>
      <point x="61" y="-8" type="curve" smooth="yes"/>
      <point x="149" y="-8"/>
      <point x="170" y="62"/>
      <point x="187" y="139" type="curve" smooth="yes"/>
      <point x="200" y="202" type="line"/>
      <point x="124" y="202" type="line"/>
      <point x="108" y="126" type="line" smooth="yes"/>
      <point x="101" y="93"/>
      <point x="93" y="83"/>
      <point x="83" y="83" type="curve" smooth="yes"/>
      <point x="73" y="83"/>
      <point x="73" y="106"/>
      <point x="77" y="126" type="curve" smooth="yes"/>
    </contour>
    <contour>
      <point x="179" y="727" type="line"/>
      <point x="118" y="637" type="line"/>
      <point x="183" y="637" type="line"/>
      <point x="208" y="676" type="line"/>
      <point x="217" y="637" type="line"/>
      <point x="282" y="637" type="line"/>
      <point x="260" y="727" type="line"/>
    </contour>
  </outline>
</glyph>
<glyph name="cdotaccent" format="1">
  <advance width="219"/>
  <unicode hex="010B"/>
  <outline>
    <contour>
      <point x="162" y="634" type="line"/>
      <point x="240" y="634" type="line"/>
      <point x="261" y="735" type="line"/>
      <point x="183" y="735" type="line"/>
    </contour>
    <contour>
      <point x="141" y="427" type="line" smooth="yes"/>
      <point x="145" y="447"/>
      <point x="156" y="467"/>
      <point x="165" y="467" type="curve" smooth="yes"/>
      <point x="174" y="467"/>
      <point x="179" y="460"/>
      <point x="172" y="427" type="curve" smooth="yes"/>
      <point x="156" y="355" type="line"/>
      <point x="232" y="355" type="line"/>
      <point x="244" y="408" type="line" smooth="yes"/>
      <point x="259" y="479"/>
      <point x="272" y="555"/>
      <point x="182" y="555" type="curve" smooth="yes"/>
      <point x="106" y="555"/>
      <point x="71" y="466"/>
      <point x="57" y="403" type="curve" smooth="yes"/>
      <point x="2" y="144" type="line" smooth="yes"/>
      <point x="-10" y="87"/>
      <point x="-17" y="-8"/>
      <point x="60" y="-8" type="curve" smooth="yes"/>
      <point x="148" y="-8"/>
      <point x="169" y="62"/>
      <point x="186" y="139" type="curve" smooth="yes"/>
      <point x="200" y="202" type="line"/>
      <point x="124" y="202" type="line"/>
      <point x="108" y="126" type="line" smooth="yes"/>
      <point x="101" y="93"/>
      <point x="93" y="83"/>
      <point x="83" y="83" type="curve" smooth="yes"/>
      <point x="73" y="83"/>
      <point x="72" y="106"/>
      <point x="77" y="126" type="curve"/>
    </contour>
  </outline>
</glyph>
<glyph name="ccaron" format="1">
  <advance width="219"/>
  <unicode hex="010D"/>
  <outline>
    <contour>
      <point x="141" y="427" type="line" smooth="yes"/>
      <point x="145" y="447"/>
      <point x="157" y="467"/>
      <point x="166" y="467" type="curve" smooth="yes"/>
      <point x="175" y="467"/>
      <point x="179" y="460"/>
      <point x="172" y="427" type="curve" smooth="yes"/>
      <point x="157" y="355" type="line"/>
      <point x="233" y="355" type="line"/>
      <point x="244" y="408" type="line" smooth="yes"/>
      <point x="259" y="479"/>
      <point x="272" y="555"/>
      <point x="182" y="555" type="curve" smooth="yes"/>
      <point x="106" y="555"/>
      <point x="71" y="466"/>
      <point x="57" y="403" type="curve" smooth="yes"/>
      <point x="2" y="144" type="line" smooth="yes"/>
      <point x="-9" y="87"/>
      <point x="-16" y="-8"/>
      <point x="61" y="-8" type="curve" smooth="yes"/>
      <point x="149" y="-8"/>
      <point x="170" y="62"/>
      <point x="187" y="139" type="curve" smooth="yes"/>
      <point x="200" y="202" type="line"/>
      <point x="124" y="202" type="line"/>
      <point x="108" y="126" type="line" smooth="yes"/>
      <point x="101" y="93"/>
      <point x="93" y="83"/>
      <point x="83" y="83" type="curve" smooth="yes"/>
      <point x="73" y="83"/>
      <point x="73" y="106"/>
      <point x="77" y="126" type="curve" smooth="yes"/>
    </contour>
    <contour>
      <point x="235" y="637" type="line"/>
      <point x="295" y="727" type="line"/>
      <point x="230" y="727" type="line"/>
      <point x="205" y="688" type="line"/>
      <point x="196" y="727" type="line"/>
      <point x="131" y="727" type="line"/>
      <point x="154" y="637" type="line"/>
    </contour>
  </outline>
</glyph>
<glyph name="Dcaron" format="1">
  <advance width="253"/>
  <unicode hex="010E"/>
  <outline>
    <contour>
      <point x="46" y="0" type="line" smooth="yes"/>
      <point x="112" y="0"/>
      <point x="141" y="26"/>
      <point x="163" y="65" type="curve" smooth="yes"/>
      <point x="187" y="109"/>
      <point x="211" y="223"/>
      <point x="242" y="367" type="curve" smooth="yes"/>
      <point x="273" y="511"/>
      <point x="290" y="603"/>
      <point x="285" y="659" type="curve" smooth="yes"/>
      <point x="279" y="715"/>
      <point x="257" y="735"/>
      <point x="191" y="735" type="curve" smooth="yes"/>
      <point x="122" y="735" type="line"/>
      <point x="-33" y="0" type="line"/>
    </contour>
    <contour>
      <point x="182" y="627" type="line"/>
      <point x="194" y="626"/>
      <point x="210" y="629"/>
      <point x="207" y="603" type="curve" smooth="yes"/>
      <point x="203" y="558"/>
      <point x="185" y="487"/>
      <point x="153" y="336" type="curve" smooth="yes"/>
      <point x="135" y="248"/>
      <point x="115" y="156"/>
      <point x="107" y="132" type="curve"/>
      <point x="96" y="104"/>
      <point x="85" y="108"/>
      <point x="72" y="108" type="curve"/>
    </contour>
    <contour>
      <point x="276" y="825" type="line"/>
      <point x="336" y="915" type="line"/>
      <point x="271" y="915" type="line"/>
      <point x="246" y="876" type="line"/>
      <point x="237" y="915" type="line"/>
      <point x="172" y="915" type="line"/>
      <point x="195" y="825" type="line"/>
    </contour>
  </outline>
</glyph>
<glyph name="Dcroat" format="1">
  <advance width="253"/>
  <unicode hex="0110"/>
  <outline>
    <contour>
      <point x="55" y="0" type="line" smooth="yes"/>
      <point x="121" y="0"/>
      <point x="151" y="26"/>
      <point x="172" y="65" type="curve" smooth="yes"/>
      <point x="197" y="109"/>
      <point x="221" y="223"/>
      <point x="252" y="367" type="curve" smooth="yes"/>
      <point x="282" y="511"/>
      <point x="300" y="603"/>
      <point x="295" y="659" type="curve"/>
      <point x="288" y="715"/>
      <point x="267" y="735"/>
      <point x="201" y="735" type="curve" smooth="yes"/>
      <point x="132" y="735" type="line"/>
      <point x="63" y="410" type="line"/>
      <point x="28" y="410" type="line"/>
      <point x="11" y="331" type="line"/>
      <point x="46" y="331" type="line"/>
      <point x="-24" y="0" type="line"/>
    </contour>
    <contour>
      <point x="192" y="627" type="line"/>
      <point x="204" y="626"/>
      <point x="219" y="629"/>
      <point x="217" y="603" type="curve" smooth="yes"/>
      <point x="212" y="558"/>
      <point x="195" y="487"/>
      <point x="163" y="336" type="curve" smooth="yes"/>
      <point x="144" y="248"/>
      <point x="125" y="156"/>
      <point x="117" y="132" type="curve"/>
      <point x="106" y="104"/>
      <point x="94" y="108"/>
      <point x="81" y="108" type="curve"/>
      <point x="129" y="331" type="line"/>
      <point x="145" y="331" type="line"/>
      <point x="162" y="410" type="line"/>
      <point x="146" y="410" type="line"/>
    </contour>
  </outline>
</glyph>
<glyph name="Emacron" format="1">
  <advance width="214"/>
  <unicode hex="0112"/>
  <outline>
    <contour>
      <point x="154" y="830" type="line"/>
      <point x="288" y="830" type="line"/>
      <point x="304" y="909" type="line"/>
      <point x="170" y="909" type="line"/>
    </contour>
    <contour>
      <point x="-33" y="0" type="line"/>
      <point x="132" y="0" type="line"/>
      <point x="156" y="111" type="line"/>
      <point x="73" y="111" type="line"/>
      <point x="116" y="313" type="line"/>
      <point x="176" y="313" type="line"/>
      <point x="201" y="431" type="line"/>
      <point x="141" y="431" type="line"/>
      <point x="182" y="624" type="line"/>
      <point x="265" y="624" type="line"/>
      <point x="288" y="735" type="line"/>
      <point x="122" y="735" type="line"/>
    </contour>
  </outline>
</glyph>
<glyph name="emacron" format="1">
  <advance width="223"/>
  <unicode hex="0113"/>
  <outline>
    <contour>
      <point x="135" y="642" type="line"/>
      <point x="269" y="642" type="line"/>
      <point x="286" y="721" type="line"/>
      <point x="152" y="721" type="line"/>
    </contour>
    <contour>
      <point x="124" y="196" type="line"/>
      <point x="112" y="136" type="line" smooth="yes"/>
      <point x="108" y="117"/>
      <point x="97" y="81"/>
      <point x="81" y="81" type="curve" smooth="yes"/>
      <point x="70" y="81"/>
      <point x="73" y="114"/>
      <point x="78" y="136" type="curve" smooth="yes"/>
      <point x="103" y="255" type="line"/>
      <point x="212" y="255" type="line"/>
      <point x="247" y="418" type="line" smooth="yes"/>
      <point x="260" y="481"/>
      <point x="266" y="555"/>
      <point x="182" y="555" type="curve" smooth="yes"/>
      <point x="115" y="555"/>
      <point x="74" y="480"/>
      <point x="60" y="415" type="curve" smooth="yes"/>
      <point x="0" y="130" type="line" smooth="yes"/>
      <point x="-13" y="67"/>
      <point x="-12" y="-8"/>
      <point x="57" y="-8" type="curve" smooth="yes"/>
      <point x="134" y="-8"/>
      <point x="170" y="56"/>
      <point x="185" y="127" type="curve" smooth="yes"/>
      <point x="199" y="196" type="line"/>
    </contour>
    <contour>
      <point x="136" y="411" type="line" smooth="yes"/>
      <point x="139" y="427"/>
      <point x="149" y="467"/>
      <point x="162" y="467" type="curve" smooth="yes"/>
      <point x="179" y="467"/>
      <point x="176" y="438"/>
      <point x="170" y="411" type="curve" smooth="yes"/>
      <point x="154" y="334" type="line"/>
      <point x="120" y="334" type="line"/>
    </contour>
  </outline>
</glyph>
<glyph name="Ebreve" format="1">
  <advance width="214"/>
  <unicode hex="0114"/>
  <outline>
    <contour>
      <point x="275" y="928" type="line"/>
      <point x="256" y="905" type="line"/>
      <point x="248" y="899"/>
      <point x="239" y="894"/>
      <point x="233" y="894" type="curve" smooth="yes"/>
      <point x="230" y="894"/>
      <point x="226" y="895"/>
      <point x="223" y="897" type="curve"/>
      <point x="218" y="899"/>
      <point x="214" y="911"/>
      <point x="208" y="929" type="curve"/>
      <point x="154" y="870" type="line"/>
      <point x="155" y="866"/>
      <point x="160" y="857"/>
      <point x="167" y="847" type="curve"/>
      <point x="177" y="835"/>
      <point x="191" y="824"/>
      <point x="218" y="824" type="curve" smooth="yes"/>
      <point x="231" y="824"/>
      <point x="244" y="826"/>
      <point x="253" y="831" type="curve"/>
      <point x="252" y="831" type="line"/>
      <point x="275" y="842"/>
      <point x="291" y="856"/>
      <point x="302" y="870" type="curve"/>
    </contour>
    <contour>
      <point x="-34" y="0" type="line"/>
      <point x="131" y="0" type="line"/>
      <point x="155" y="111" type="line"/>
      <point x="72" y="111" type="line"/>
      <point x="115" y="313" type="line"/>
      <point x="175" y="313" type="line"/>
      <point x="200" y="431" type="line"/>
      <point x="140" y="431" type="line"/>
      <point x="181" y="624" type="line"/>
      <point x="264" y="624" type="line"/>
      <point x="287" y="735" type="line"/>
      <point x="121" y="735" type="line"/>
    </contour>
  </outline>
</glyph>
<glyph name="ebreve" format="1">
  <advance width="223"/>
  <unicode hex="0115"/>
  <outline>
    <contour>
      <point x="123" y="196" type="line"/>
      <point x="111" y="136" type="line"/>
      <point x="106" y="117"/>
      <point x="96" y="81"/>
      <point x="80" y="81" type="curve" smooth="yes"/>
      <point x="69" y="81"/>
      <point x="72" y="114"/>
      <point x="77" y="136" type="curve" smooth="yes"/>
      <point x="102" y="255" type="line"/>
      <point x="211" y="255" type="line"/>
      <point x="245" y="418" type="line" smooth="yes"/>
      <point x="259" y="481"/>
      <point x="265" y="555"/>
      <point x="181" y="555" type="curve" smooth="yes"/>
      <point x="114" y="555"/>
      <point x="73" y="480"/>
      <point x="59" y="415" type="curve" smooth="yes"/>
      <point x="-1" y="130" type="line" smooth="yes"/>
      <point x="-14" y="67"/>
      <point x="-13" y="-8"/>
      <point x="56" y="-8" type="curve" smooth="yes"/>
      <point x="133" y="-8"/>
      <point x="169" y="56"/>
      <point x="184" y="127" type="curve" smooth="yes"/>
      <point x="198" y="196" type="line"/>
    </contour>
    <contour>
      <point x="135" y="411" type="line" smooth="yes"/>
      <point x="138" y="427"/>
      <point x="148" y="467"/>
      <point x="161" y="467" type="curve" smooth="yes"/>
      <point x="178" y="467"/>
      <point x="175" y="438"/>
      <point x="169" y="411" type="curve" smooth="yes"/>
      <point x="153" y="334" type="line"/>
      <point x="119" y="334" type="line"/>
    </contour>
    <contour>
      <point x="257" y="740" type="line"/>
      <point x="257" y="740"/>
      <point x="231" y="709"/>
      <point x="215" y="709" type="curve" smooth="yes"/>
      <point x="197" y="709"/>
      <point x="189" y="741"/>
      <point x="189" y="741" type="curve"/>
      <point x="136" y="684" type="line"/>
      <point x="143" y="658"/>
      <point x="169" y="636"/>
      <point x="200" y="636" type="curve" smooth="yes"/>
      <point x="231" y="636"/>
      <point x="260" y="656"/>
      <point x="284" y="684" type="curve"/>
    </contour>
  </outline>
</glyph>
<glyph name="Edotaccent" format="1">
  <advance width="214"/>
  <unicode hex="0116"/>
  <outline>
    <contour>
      <point x="178" y="822" type="line"/>
      <point x="257" y="822" type="line"/>
      <point x="279" y="923" type="line"/>
      <point x="200" y="923" type="line"/>
    </contour>
    <contour>
      <point x="-33" y="0" type="line"/>
      <point x="132" y="0" type="line"/>
      <point x="155" y="111" type="line"/>
      <point x="72" y="111" type="line"/>
      <point x="115" y="313" type="line"/>
      <point x="175" y="313" type="line"/>
      <point x="200" y="431" type="line"/>
      <point x="140" y="431" type="line"/>
      <point x="181" y="624" type="line"/>
      <point x="264" y="624" type="line"/>
      <point x="288" y="735" type="line"/>
      <point x="122" y="735" type="line"/>
    </contour>
  </outline>
</glyph>
<glyph name="eogonek" format="1">
  <advance width="223"/>
  <unicode hex="0119"/>
  <outline>
    <contour>
      <point x="154" y="411" type="line"/>
      <point x="158" y="427"/>
      <point x="167" y="467"/>
      <point x="180" y="467" type="curve" smooth="yes"/>
      <point x="197" y="467"/>
      <point x="194" y="438"/>
      <point x="188" y="411" type="curve" smooth="yes"/>
      <point x="172" y="334" type="line"/>
      <point x="138" y="334" type="line"/>
    </contour>
    <contour>
      <point x="143" y="196" type="line"/>
      <point x="130" y="136" type="line" smooth="yes"/>
      <point x="126" y="117"/>
      <point x="115" y="81"/>
      <point x="99" y="81" type="curve" smooth="yes"/>
      <point x="88" y="81"/>
      <point x="91" y="114"/>
      <point x="96" y="136" type="curve" smooth="yes"/>
      <point x="121" y="255" type="line"/>
      <point x="230" y="255" type="line"/>
      <point x="265" y="418" type="line" smooth="yes"/>
      <point x="278" y="481"/>
      <point x="284" y="555"/>
      <point x="200" y="555" type="curve" smooth="yes"/>
      <point x="133" y="555"/>
      <point x="92" y="480"/>
      <point x="78" y="415" type="curve" smooth="yes"/>
      <point x="18" y="130" type="line" smooth="yes"/>
      <point x="5" y="68"/>
      <point x="5" y="-5"/>
      <point x="71" y="-8" type="curve"/>
      <point x="75" y="-8" type="line" smooth="yes"/>
      <point x="80" y="-8"/>
      <point x="81" y="-9"/>
      <point x="84" y="-8" type="curve"/>
      <point x="79" y="-14"/>
      <point x="70" y="-24"/>
      <point x="65" y="-31" type="curve" smooth="yes"/>
      <point x="51" y="-50"/>
      <point x="34" y="-79"/>
      <point x="29" y="-103" type="curve" smooth="yes"/>
      <point x="20" y="-148"/>
      <point x="37" y="-188"/>
      <point x="82" y="-188" type="curve" smooth="yes"/>
      <point x="94" y="-188"/>
      <point x="105" y="-186"/>
      <point x="124" y="-176" type="curve"/>
      <point x="145" y="-101" type="line"/>
      <point x="127" y="-112"/>
      <point x="111" y="-121"/>
      <point x="106" y="-121" type="curve" smooth="yes"/>
      <point x="96" y="-121"/>
      <point x="87" y="-112"/>
      <point x="93" y="-83" type="curve"/>
      <point x="96" y="-71"/>
      <point x="99" y="-60"/>
      <point x="104" y="-50" type="curve" smooth="yes"/>
      <point x="115" y="-28"/>
      <point x="125" y="-14"/>
      <point x="137" y="0" type="curve"/>
      <point x="119" y="0" type="line"/>
      <point x="166" y="19"/>
      <point x="191" y="71"/>
      <point x="203" y="127" type="curve" smooth="yes"/>
      <point x="218" y="196" type="line"/>
    </contour>
  </outline>
</glyph>
<glyph name="Ecaron" format="1">
  <advance width="214"/>
  <unicode hex="011A"/>
  <outline>
    <contour>
      <point x="-33" y="0" type="line"/>
      <point x="132" y="0" type="line"/>
      <point x="156" y="111" type="line"/>
      <point x="73" y="111" type="line"/>
      <point x="115" y="313" type="line"/>
      <point x="175" y="313" type="line"/>
      <point x="201" y="431" type="line"/>
      <point x="141" y="431" type="line"/>
      <point x="182" y="624" type="line"/>
      <point x="265" y="624" type="line"/>
      <point x="288" y="735" type="line"/>
      <point x="122" y="735" type="line"/>
    </contour>
    <contour>
      <point x="264" y="825" type="line"/>
      <point x="324" y="915" type="line"/>
      <point x="259" y="915" type="line"/>
      <point x="234" y="876" type="line"/>
      <point x="225" y="915" type="line"/>
      <point x="160" y="915" type="line"/>
      <point x="183" y="825" type="line"/>
    </contour>
  </outline>
</glyph>
<glyph name="Gcircumflex" format="1">
  <advance width="246"/>
  <unicode hex="011C"/>
  <outline>
    <contour>
      <point x="260" y="471" type="line"/>
      <point x="286" y="594" type="line" smooth="yes"/>
      <point x="298" y="653"/>
      <point x="299" y="743"/>
      <point x="219" y="743" type="curve" smooth="yes"/>
      <point x="144" y="743"/>
      <point x="102" y="660"/>
      <point x="88" y="594" type="curve" smooth="yes"/>
      <point x="-7" y="141" type="line" smooth="yes"/>
      <point x="-18" y="89"/>
      <point x="-22" y="-8"/>
      <point x="51" y="-8" type="curve" smooth="yes"/>
      <point x="69" y="-8"/>
      <point x="101" y="9"/>
      <point x="113" y="27" type="curve"/>
      <point x="117" y="0" type="line"/>
      <point x="160" y="0" type="line"/>
      <point x="237" y="366" type="line"/>
      <point x="142" y="366" type="line"/>
      <point x="123" y="275" type="line"/>
      <point x="141" y="275" type="line"/>
      <point x="111" y="132" type="line" smooth="yes"/>
      <point x="107" y="114"/>
      <point x="99" y="88"/>
      <point x="81" y="88" type="curve" smooth="yes"/>
      <point x="69" y="88"/>
      <point x="69" y="109"/>
      <point x="74" y="132" type="curve" smooth="yes"/>
      <point x="172" y="594" type="line" smooth="yes"/>
      <point x="176" y="612"/>
      <point x="185" y="638"/>
      <point x="196" y="638" type="curve" smooth="yes"/>
      <point x="210" y="638"/>
      <point x="206" y="609"/>
      <point x="203" y="594" type="curve" smooth="yes"/>
      <point x="177" y="471" type="line"/>
    </contour>
    <contour>
      <point x="209" y="890" type="line"/>
      <point x="148" y="800" type="line"/>
      <point x="213" y="800" type="line"/>
      <point x="238" y="839" type="line"/>
      <point x="247" y="800" type="line"/>
      <point x="312" y="800" type="line"/>
      <point x="290" y="890" type="line"/>
    </contour>
  </outline>
</glyph>
<glyph name="gcircumflex" format="1">
  <advance width="235"/>
  <unicode hex="011D"/>
  <outline>
    <contour>
      <point x="254" y="429" type="line"/>
      <point x="255" y="435"/>
      <point x="256" y="449"/>
      <point x="255" y="453" type="curve"/>
      <point x="261" y="460"/>
      <point x="275" y="465"/>
      <point x="294" y="465" type="curve"/>
      <point x="313" y="555" type="line"/>
      <point x="286" y="555"/>
      <point x="264" y="541"/>
      <point x="243" y="521" type="curve"/>
      <point x="236" y="543"/>
      <point x="218" y="555"/>
      <point x="188" y="555" type="curve" smooth="yes"/>
      <point x="121" y="555"/>
      <point x="81" y="474"/>
      <point x="68" y="416" type="curve" smooth="yes"/>
      <point x="36" y="267" type="line" smooth="yes"/>
      <point x="26" y="221"/>
      <point x="32" y="186"/>
      <point x="49" y="148" type="curve"/>
      <point x="24" y="129"/>
      <point x="-2" y="96"/>
      <point x="-9" y="66" type="curve"/>
      <point x="-17" y="25"/>
      <point x="-2" y="4"/>
      <point x="18" y="-7" type="curve"/>
      <point x="17" y="-7" type="line"/>
      <point x="-12" y="-26"/>
      <point x="-44" y="-52"/>
      <point x="-52" y="-90" type="curve" smooth="yes"/>
      <point x="-65" y="-154"/>
      <point x="-37" y="-196"/>
      <point x="31" y="-196" type="curve" smooth="yes"/>
      <point x="113" y="-196"/>
      <point x="158" y="-129"/>
      <point x="173" y="-56" type="curve" smooth="yes"/>
      <point x="183" y="-11"/>
      <point x="176" y="18"/>
      <point x="163" y="40" type="curve"/>
      <point x="151" y="58"/>
      <point x="130" y="65"/>
      <point x="109" y="71" type="curve" smooth="yes"/>
      <point x="95" y="75"/>
      <point x="72" y="85"/>
      <point x="77" y="105" type="curve"/>
      <point x="79" y="115"/>
      <point x="84" y="124"/>
      <point x="88" y="129" type="curve"/>
      <point x="93" y="129" type="line" smooth="yes"/>
      <point x="161" y="129"/>
      <point x="203" y="206"/>
      <point x="218" y="264" type="curve"/>
    </contour>
    <contour>
      <point x="141" y="262" type="line" smooth="yes"/>
      <point x="138" y="248"/>
      <point x="129" y="213"/>
      <point x="116" y="213" type="curve" smooth="yes"/>
      <point x="106" y="213"/>
      <point x="109" y="243"/>
      <point x="113" y="262" type="curve" smooth="yes"/>
      <point x="146" y="417" type="line" smooth="yes"/>
      <point x="150" y="437"/>
      <point x="160" y="467"/>
      <point x="170" y="467" type="curve" smooth="yes"/>
      <point x="183" y="467"/>
      <point x="179" y="439"/>
      <point x="174" y="417" type="curve" smooth="yes"/>
    </contour>
    <contour>
      <point x="77" y="-35" type="line"/>
      <point x="89" y="-40"/>
      <point x="100" y="-50"/>
      <point x="95" y="-74" type="curve"/>
      <point x="90" y="-94"/>
      <point x="72" y="-111"/>
      <point x="50" y="-111" type="curve" smooth="yes"/>
      <point x="28" y="-111"/>
      <point x="22" y="-94"/>
      <point x="27" y="-73" type="curve"/>
      <point x="31" y="-52"/>
      <point x="43" y="-37"/>
      <point x="55" y="-27" type="curve"/>
    </contour>
    <contour>
      <point x="188" y="727" type="line"/>
      <point x="127" y="637" type="line"/>
      <point x="192" y="637" type="line"/>
      <point x="217" y="676" type="line"/>
      <point x="226" y="637" type="line"/>
      <point x="291" y="637" type="line"/>
      <point x="269" y="727" type="line"/>
    </contour>
  </outline>
</glyph>
<glyph name="Gdotaccent" format="1">
  <advance width="246"/>
  <unicode hex="0120"/>
  <outline>
    <contour>
      <point x="196" y="822" type="line"/>
      <point x="274" y="822" type="line"/>
      <point x="295" y="923" type="line"/>
      <point x="217" y="923" type="line"/>
    </contour>
    <contour>
      <point x="258" y="471" type="line"/>
      <point x="284" y="594" type="line" smooth="yes"/>
      <point x="297" y="653"/>
      <point x="297" y="743"/>
      <point x="217" y="743" type="curve" smooth="yes"/>
      <point x="142" y="743"/>
      <point x="100" y="660"/>
      <point x="86" y="594" type="curve" smooth="yes"/>
      <point x="-9" y="141" type="line" smooth="yes"/>
      <point x="-20" y="89"/>
      <point x="-24" y="-8"/>
      <point x="49" y="-8" type="curve" smooth="yes"/>
      <point x="67" y="-8"/>
      <point x="99" y="9"/>
      <point x="112" y="27" type="curve"/>
      <point x="115" y="0" type="line"/>
      <point x="158" y="0" type="line"/>
      <point x="236" y="366" type="line"/>
      <point x="141" y="366" type="line"/>
      <point x="121" y="275" type="line"/>
      <point x="139" y="275" type="line"/>
      <point x="109" y="132" type="line" smooth="yes"/>
      <point x="105" y="114"/>
      <point x="98" y="88"/>
      <point x="80" y="88" type="curve" smooth="yes"/>
      <point x="68" y="88"/>
      <point x="67" y="109"/>
      <point x="72" y="132" type="curve" smooth="yes"/>
      <point x="170" y="594" type="line" smooth="yes"/>
      <point x="174" y="612"/>
      <point x="184" y="638"/>
      <point x="195" y="638" type="curve" smooth="yes"/>
      <point x="209" y="638"/>
      <point x="204" y="609"/>
      <point x="201" y="594" type="curve" smooth="yes"/>
      <point x="175" y="471" type="line"/>
    </contour>
  </outline>
</glyph>
<glyph name="gcommaaccent" format="1">
  <advance width="235"/>
  <unicode hex="0123"/>
  <outline>
    <contour>
      <point x="170" y="682" type="line"/>
      <point x="251" y="682" type="line"/>
      <point x="274" y="793" type="line"/>
      <point x="253" y="793" type="line"/>
      <point x="302" y="923" type="line"/>
      <point x="254" y="923" type="line"/>
      <point x="193" y="793" type="line"/>
    </contour>
    <contour>
      <point x="243" y="429" type="line"/>
      <point x="244" y="435"/>
      <point x="245" y="449"/>
      <point x="244" y="453" type="curve"/>
      <point x="251" y="460"/>
      <point x="265" y="465"/>
      <point x="284" y="465" type="curve"/>
      <point x="303" y="555" type="line"/>
      <point x="276" y="555"/>
      <point x="254" y="541"/>
      <point x="233" y="521" type="curve"/>
      <point x="225" y="543"/>
      <point x="208" y="555"/>
      <point x="178" y="555" type="curve" smooth="yes"/>
      <point x="111" y="555"/>
      <point x="71" y="474"/>
      <point x="57" y="416" type="curve" smooth="yes"/>
      <point x="26" y="267" type="line" smooth="yes"/>
      <point x="16" y="221"/>
      <point x="21" y="186"/>
      <point x="38" y="148" type="curve"/>
      <point x="13" y="129"/>
      <point x="-13" y="96"/>
      <point x="-19" y="66" type="curve" smooth="yes"/>
      <point x="-28" y="25"/>
      <point x="-12" y="4"/>
      <point x="7" y="-7" type="curve"/>
      <point x="6" y="-7" type="line"/>
      <point x="-23" y="-26"/>
      <point x="-54" y="-52"/>
      <point x="-62" y="-90" type="curve" smooth="yes"/>
      <point x="-76" y="-154"/>
      <point x="-48" y="-196"/>
      <point x="20" y="-196" type="curve" smooth="yes"/>
      <point x="102" y="-196"/>
      <point x="148" y="-129"/>
      <point x="163" y="-56" type="curve" smooth="yes"/>
      <point x="173" y="-11"/>
      <point x="166" y="18"/>
      <point x="152" y="40" type="curve" smooth="yes"/>
      <point x="140" y="58"/>
      <point x="120" y="65"/>
      <point x="99" y="71" type="curve" smooth="yes"/>
      <point x="85" y="75"/>
      <point x="62" y="85"/>
      <point x="66" y="105" type="curve" smooth="yes"/>
      <point x="68" y="115"/>
      <point x="73" y="124"/>
      <point x="77" y="129" type="curve"/>
      <point x="82" y="129" type="line" smooth="yes"/>
      <point x="150" y="129"/>
      <point x="193" y="206"/>
      <point x="208" y="264" type="curve"/>
    </contour>
    <contour>
      <point x="131" y="262" type="line" smooth="yes"/>
      <point x="128" y="248"/>
      <point x="118" y="213"/>
      <point x="105" y="213" type="curve" smooth="yes"/>
      <point x="95" y="213"/>
      <point x="99" y="243"/>
      <point x="103" y="262" type="curve" smooth="yes"/>
      <point x="136" y="417" type="line" smooth="yes"/>
      <point x="140" y="437"/>
      <point x="149" y="467"/>
      <point x="159" y="467" type="curve" smooth="yes"/>
      <point x="172" y="467"/>
      <point x="168" y="439"/>
      <point x="164" y="417" type="curve" smooth="yes"/>
    </contour>
    <contour>
      <point x="66" y="-35" type="line"/>
      <point x="78" y="-40"/>
      <point x="89" y="-50"/>
      <point x="84" y="-74" type="curve" smooth="yes"/>
      <point x="80" y="-94"/>
      <point x="61" y="-111"/>
      <point x="39" y="-111" type="curve" smooth="yes"/>
      <point x="17" y="-111"/>
      <point x="12" y="-94"/>
      <point x="16" y="-73" type="curve"/>
      <point x="21" y="-52"/>
      <point x="33" y="-37"/>
      <point x="44" y="-27" type="curve"/>
    </contour>
  </outline>
</glyph>
<glyph name="imacron" format="1">
  <advance width="139"/>
  <unicode hex="012B"/>
  <outline>
    <contour>
      <point x="86" y="642" type="line"/>
      <point x="220" y="642" type="line"/>
      <point x="236" y="721" type="line"/>
      <point x="102" y="721" type="line"/>
    </contour>
    <contour>
      <point x="55" y="0" type="line"/>
      <point x="172" y="547" type="line"/>
      <point x="93" y="547" type="line"/>
      <point x="-23" y="0" type="line"/>
    </contour>
  </outline>
</glyph>
<glyph name="ibreve" format="1">
  <advance width="139"/>
  <unicode hex="012D"/>
  <outline>
    <contour>
      <point x="54" y="0" type="line"/>
      <point x="170" y="547" type="line"/>
      <point x="91" y="547" type="line"/>
      <point x="-24" y="0" type="line"/>
    </contour>
    <contour>
      <point x="210" y="740" type="line"/>
      <point x="210" y="740"/>
      <point x="185" y="709"/>
      <point x="169" y="709" type="curve" smooth="yes"/>
      <point x="151" y="709"/>
      <point x="143" y="741"/>
      <point x="143" y="741" type="curve"/>
      <point x="90" y="684" type="line"/>
      <point x="97" y="658"/>
      <point x="122" y="636"/>
      <point x="153" y="636" type="curve" smooth="yes"/>
      <point x="184" y="636"/>
      <point x="214" y="656"/>
      <point x="238" y="684" type="curve"/>
    </contour>
  </outline>
</glyph>
<glyph name="iogonek" format="1">
  <advance width="139"/>
  <unicode hex="012F"/>
  <outline>
    <contour>
      <point x="221" y="735" type="line"/>
      <point x="142" y="735" type="line"/>
      <point x="120" y="634" type="line"/>
      <point x="199" y="634" type="line"/>
    </contour>
    <contour>
      <point x="64" y="0" type="line"/>
      <point x="181" y="547" type="line"/>
      <point x="102" y="547" type="line"/>
      <point x="-14" y="0" type="line"/>
      <point x="10" y="0" type="line"/>
      <point x="0" y="-11"/>
      <point x="-7" y="-19"/>
      <point x="-12" y="-25" type="curve" smooth="yes"/>
      <point x="-17" y="-31" type="line"/>
      <point x="-31" y="-50"/>
      <point x="-47" y="-79"/>
      <point x="-52" y="-103" type="curve" smooth="yes"/>
      <point x="-62" y="-148"/>
      <point x="-45" y="-188"/>
      <point x="0" y="-188" type="curve" smooth="yes"/>
      <point x="11" y="-188"/>
      <point x="21" y="-186"/>
      <point x="40" y="-176" type="curve"/>
      <point x="61" y="-101" type="line"/>
      <point x="44" y="-112"/>
      <point x="28" y="-121"/>
      <point x="23" y="-121" type="curve" smooth="yes"/>
      <point x="13" y="-121"/>
      <point x="4" y="-112"/>
      <point x="10" y="-83" type="curve"/>
      <point x="12" y="-71"/>
      <point x="16" y="-60"/>
      <point x="21" y="-50" type="curve" smooth="yes"/>
      <point x="31" y="-30"/>
      <point x="43" y="-13"/>
      <point x="53" y="0" type="curve"/>
    </contour>
  </outline>
</glyph>
<glyph name="Idotaccent" format="1">
  <advance width="143"/>
  <unicode hex="0130"/>
  <outline>
    <contour>
      <point x="143" y="822" type="line"/>
      <point x="222" y="822" type="line"/>
      <point x="244" y="923" type="line"/>
      <point x="165" y="923" type="line"/>
    </contour>
    <contour>
      <point x="-33" y="0" type="line"/>
      <point x="49" y="0" type="line"/>
      <point x="205" y="735" type="line"/>
      <point x="122" y="735" type="line"/>
    </contour>
  </outline>
</glyph>
<glyph name="dotlessi" format="1">
  <advance width="139"/>
  <unicode hex="0131"/>
  <outline>
    <contour>
      <point x="64" y="0" type="line"/>
      <point x="181" y="547" type="line"/>
      <point x="102" y="547" type="line"/>
      <point x="-14" y="0" type="line"/>
    </contour>
    <contour>
      <point x="125" y="10" type="move" name="ogonek"/>
    </contour>
    <contour>
      <point x="70" y="547" type="move" name="top"/>
    </contour>
  </outline>
</glyph>
<glyph name="Kcommaaccent" format="1">
  <advance width="255"/>
  <unicode hex="0136"/>
  <outline>
    <contour>
      <point x="97" y="-54" type="line"/>
      <point x="29" y="-54" type="line"/>
      <point x="14" y="-123" type="line"/>
      <point x="32" y="-123" type="line"/>
      <point x="7" y="-188" type="line"/>
      <point x="56" y="-188" type="line"/>
      <point x="82" y="-123" type="line"/>
    </contour>
    <contour>
      <point x="142" y="735" type="line"/>
      <point x="-14" y="0" type="line"/>
      <point x="65" y="0" type="line"/>
      <point x="140" y="350" type="line"/>
      <point x="117" y="0" type="line"/>
      <point x="198" y="0" type="line"/>
      <point x="227" y="466" type="line"/>
      <point x="357" y="735" type="line"/>
      <point x="276" y="735" type="line"/>
      <point x="177" y="524" type="line"/>
      <point x="222" y="735" type="line"/>
    </contour>
  </outline>
</glyph>
<glyph name="lacute" format="1">
  <advance width="139"/>
  <unicode hex="013A"/>
  <outline>
    <contour>
      <point x="163" y="838" type="line"/>
      <point x="113" y="748" type="line"/>
      <point x="177" y="748" type="line"/>
      <point x="243" y="838" type="line"/>
    </contour>
    <contour>
      <point x="49" y="0" type="line"/>
      <point x="205" y="735" type="line"/>
      <point x="126" y="735" type="line"/>
      <point x="-29" y="0" type="line"/>
    </contour>
  </outline>
</glyph>
<glyph name="Lcommaaccent" format="1">
  <advance width="207"/>
  <unicode hex="013B"/>
  <outline>
    <contour>
      <point x="-14" y="0" type="line"/>
      <point x="154" y="0" type="line"/>
      <point x="176" y="100" type="line"/>
      <point x="90" y="100" type="line"/>
      <point x="225" y="735" type="line"/>
      <point x="142" y="735" type="line"/>
    </contour>
    <contour>
      <point x="97" y="-54" type="line"/>
      <point x="29" y="-54" type="line"/>
      <point x="14" y="-123" type="line"/>
      <point x="32" y="-123" type="line"/>
      <point x="7" y="-188" type="line"/>
      <point x="56" y="-188" type="line"/>
      <point x="82" y="-123" type="line"/>
    </contour>
  </outline>
</glyph>
<glyph name="Lcaron" format="1">
  <advance width="237"/>
  <unicode hex="013D"/>
  <outline>
    <contour>
      <point x="347" y="848" type="line"/>
      <point x="266" y="848" type="line"/>
      <point x="242" y="737" type="line"/>
      <point x="263" y="737" type="line"/>
      <point x="214" y="607" type="line"/>
      <point x="262" y="607" type="line"/>
      <point x="323" y="737" type="line"/>
    </contour>
    <contour>
      <point x="-30" y="0" type="line"/>
      <point x="138" y="0" type="line"/>
      <point x="160" y="100" type="line"/>
      <point x="74" y="100" type="line"/>
      <point x="209" y="735" type="line"/>
      <point x="126" y="735" type="line"/>
    </contour>
  </outline>
</glyph>
<glyph name="lcaron" format="1">
  <advance width="229"/>
  <unicode hex="013E"/>
  <outline>
    <contour>
      <point x="54" y="0" type="line"/>
      <point x="211" y="735" type="line"/>
      <point x="132" y="735" type="line"/>
      <point x="-24" y="0" type="line"/>
    </contour>
    <contour>
      <point x="329" y="735" type="line"/>
      <point x="248" y="735" type="line"/>
      <point x="224" y="624" type="line"/>
      <point x="245" y="624" type="line"/>
      <point x="196" y="494" type="line"/>
      <point x="244" y="494" type="line"/>
      <point x="305" y="624" type="line"/>
    </contour>
  </outline>
</glyph>
<glyph name="Ldot" format="1">
  <advance width="223"/>
  <unicode hex="013F"/>
  <outline>
    <contour>
      <point x="-24" y="0" type="line"/>
      <point x="144" y="0" type="line"/>
      <point x="166" y="100" type="line"/>
      <point x="80" y="100" type="line"/>
      <point x="215" y="735" type="line"/>
      <point x="132" y="735" type="line"/>
    </contour>
    <contour>
      <point x="153" y="329" type="line"/>
      <point x="234" y="329" type="line"/>
      <point x="258" y="440" type="line"/>
      <point x="177" y="440" type="line"/>
    </contour>
  </outline>
</glyph>
<glyph name="Nacute" format="1">
  <advance width="267"/>
  <unicode hex="0143"/>
  <outline>
    <contour>
      <point x="239" y="915" type="line"/>
      <point x="189" y="825" type="line"/>
      <point x="253" y="825" type="line"/>
      <point x="319" y="915" type="line"/>
    </contour>
    <contour>
      <point x="103" y="0" type="line"/>
      <point x="173" y="0" type="line"/>
      <point x="329" y="735" type="line"/>
      <point x="252" y="735" type="line"/>
      <point x="178" y="388" type="line"/>
      <point x="192" y="735" type="line"/>
      <point x="122" y="735" type="line"/>
      <point x="-33" y="0" type="line"/>
      <point x="43" y="0" type="line"/>
      <point x="119" y="357" type="line"/>
    </contour>
  </outline>
</glyph>
<glyph name="nacute" format="1">
  <advance width="232"/>
  <unicode hex="0144"/>
  <outline>
    <contour>
      <point x="192" y="727" type="line"/>
      <point x="142" y="637" type="line"/>
      <point x="205" y="637" type="line"/>
      <point x="272" y="727" type="line"/>
    </contour>
    <contour>
      <point x="147" y="431" type="line" smooth="yes"/>
      <point x="151" y="452"/>
      <point x="158" y="467"/>
      <point x="168" y="467" type="curve" smooth="yes"/>
      <point x="178" y="467"/>
      <point x="180" y="453"/>
      <point x="176" y="432" type="curve" smooth="yes"/>
      <point x="84" y="0" type="line"/>
      <point x="162" y="0" type="line"/>
      <point x="257" y="448" type="line" smooth="yes"/>
      <point x="264" y="481"/>
      <point x="276" y="555"/>
      <point x="226" y="555" type="curve" smooth="yes"/>
      <point x="209" y="555"/>
      <point x="178" y="534"/>
      <point x="165" y="519" type="curve"/>
      <point x="171" y="547" type="line"/>
      <point x="92" y="547" type="line"/>
      <point x="-23" y="0" type="line"/>
      <point x="55" y="0" type="line"/>
    </contour>
  </outline>
</glyph>
<glyph name="Ncommaaccent" format="1">
  <advance width="267"/>
  <unicode hex="0145"/>
  <outline>
    <contour>
      <point x="97" y="-54" type="line"/>
      <point x="29" y="-54" type="line"/>
      <point x="14" y="-123" type="line"/>
      <point x="32" y="-123" type="line"/>
      <point x="7" y="-188" type="line"/>
      <point x="56" y="-188" type="line"/>
      <point x="82" y="-123" type="line"/>
    </contour>
    <contour>
      <point x="122" y="0" type="line"/>
      <point x="192" y="0" type="line"/>
      <point x="349" y="735" type="line"/>
      <point x="272" y="735" type="line"/>
      <point x="198" y="388" type="line"/>
      <point x="212" y="735" type="line"/>
      <point x="142" y="735" type="line"/>
      <point x="-14" y="0" type="line"/>
      <point x="62" y="0" type="line"/>
      <point x="138" y="357" type="line"/>
    </contour>
  </outline>
</glyph>
<glyph name="ncommaaccent" format="1">
  <advance width="232"/>
  <unicode hex="0146"/>
  <outline>
    <contour>
      <point x="107" y="-54" type="line"/>
      <point x="39" y="-54" type="line"/>
      <point x="24" y="-123" type="line"/>
      <point x="42" y="-123" type="line"/>
      <point x="16" y="-188" type="line"/>
      <point x="65" y="-188" type="line"/>
      <point x="92" y="-123" type="line"/>
    </contour>
    <contour>
      <point x="166" y="431" type="line" smooth="yes"/>
      <point x="170" y="452"/>
      <point x="177" y="467"/>
      <point x="187" y="467" type="curve" smooth="yes"/>
      <point x="197" y="467"/>
      <point x="199" y="453"/>
      <point x="195" y="432" type="curve" smooth="yes"/>
      <point x="103" y="0" type="line"/>
      <point x="181" y="0" type="line"/>
      <point x="276" y="448" type="line" smooth="yes"/>
      <point x="283" y="481"/>
      <point x="295" y="555"/>
      <point x="245" y="555" type="curve" smooth="yes"/>
      <point x="228" y="555"/>
      <point x="198" y="534"/>
      <point x="184" y="519" type="curve"/>
      <point x="190" y="547" type="line"/>
      <point x="111" y="547" type="line"/>
      <point x="-4" y="0" type="line"/>
      <point x="74" y="0" type="line"/>
    </contour>
  </outline>
</glyph>
<glyph name="Ncaron" format="1">
  <advance width="267"/>
  <unicode hex="0147"/>
  <outline>
    <contour>
      <point x="103" y="0" type="line"/>
      <point x="173" y="0" type="line"/>
      <point x="329" y="735" type="line"/>
      <point x="252" y="735" type="line"/>
      <point x="178" y="388" type="line"/>
      <point x="192" y="735" type="line"/>
      <point x="122" y="735" type="line"/>
      <point x="-33" y="0" type="line"/>
      <point x="43" y="0" type="line"/>
      <point x="119" y="357" type="line"/>
    </contour>
    <contour>
      <point x="286" y="825" type="line"/>
      <point x="346" y="915" type="line"/>
      <point x="281" y="915" type="line"/>
      <point x="256" y="876" type="line"/>
      <point x="247" y="915" type="line"/>
      <point x="182" y="915" type="line"/>
      <point x="205" y="825" type="line"/>
    </contour>
  </outline>
</glyph>
<glyph name="ncaron" format="1">
  <advance width="232"/>
  <unicode hex="0148"/>
  <outline>
    <contour>
      <point x="147" y="431" type="line" smooth="yes"/>
      <point x="151" y="452"/>
      <point x="158" y="467"/>
      <point x="168" y="467" type="curve" smooth="yes"/>
      <point x="178" y="467"/>
      <point x="180" y="453"/>
      <point x="176" y="432" type="curve" smooth="yes"/>
      <point x="84" y="0" type="line"/>
      <point x="162" y="0" type="line"/>
      <point x="257" y="448" type="line" smooth="yes"/>
      <point x="264" y="481"/>
      <point x="276" y="555"/>
      <point x="226" y="555" type="curve" smooth="yes"/>
      <point x="209" y="555"/>
      <point x="178" y="534"/>
      <point x="165" y="519" type="curve"/>
      <point x="171" y="547" type="line"/>
      <point x="92" y="547" type="line"/>
      <point x="-23" y="0" type="line"/>
      <point x="55" y="0" type="line"/>
    </contour>
    <contour>
      <point x="237" y="637" type="line"/>
      <point x="297" y="727" type="line"/>
      <point x="232" y="727" type="line"/>
      <point x="207" y="688" type="line"/>
      <point x="198" y="727" type="line"/>
      <point x="133" y="727" type="line"/>
      <point x="156" y="637" type="line"/>
    </contour>
  </outline>
</glyph>
<glyph name="eng" format="1">
  <advance width="232"/>
  <unicode hex="014B"/>
  <outline>
    <contour>
      <point x="163" y="431" type="line" smooth="yes"/>
      <point x="167" y="452"/>
      <point x="174" y="467"/>
      <point x="184" y="467" type="curve" smooth="yes"/>
      <point x="194" y="467"/>
      <point x="196" y="453"/>
      <point x="192" y="433" type="curve" smooth="yes"/>
      <point x="99" y="-6" type="line" smooth="yes"/>
      <point x="96" y="-19"/>
      <point x="92" y="-30"/>
      <point x="89" y="-35" type="curve"/>
      <point x="90" y="-35" type="line"/>
      <point x="82" y="-44"/>
      <point x="71" y="-48"/>
      <point x="59" y="-45" type="curve"/>
      <point x="40" y="-132" type="line"/>
      <point x="85" y="-136"/>
      <point x="116" y="-122"/>
      <point x="136" y="-100" type="curve" smooth="yes"/>
      <point x="155" y="-78"/>
      <point x="168" y="-47"/>
      <point x="174" y="-19" type="curve" smooth="yes"/>
      <point x="273" y="448" type="line" smooth="yes"/>
      <point x="280" y="481"/>
      <point x="292" y="555"/>
      <point x="242" y="555" type="curve" smooth="yes"/>
      <point x="225" y="555"/>
      <point x="195" y="534"/>
      <point x="181" y="519" type="curve"/>
      <point x="187" y="547" type="line"/>
      <point x="108" y="547" type="line"/>
      <point x="-7" y="0" type="line"/>
      <point x="71" y="0" type="line"/>
    </contour>
  </outline>
</glyph>
<glyph name="Omacron" format="1">
  <advance width="242"/>
  <unicode hex="014C"/>
  <outline>
    <contour>
      <point x="168" y="830" type="line"/>
      <point x="302" y="830" type="line"/>
      <point x="319" y="909" type="line"/>
      <point x="185" y="909" type="line"/>
    </contour>
    <contour>
      <point x="288" y="594" type="line" smooth="yes"/>
      <point x="301" y="654"/>
      <point x="300" y="743"/>
      <point x="220" y="743" type="curve" smooth="yes"/>
      <point x="145" y="743"/>
      <point x="103" y="670"/>
      <point x="87" y="594" type="curve" smooth="yes"/>
      <point x="-8" y="141" type="line" smooth="yes"/>
      <point x="-23" y="71"/>
      <point x="-17" y="-8"/>
      <point x="60" y="-8" type="curve" smooth="yes"/>
      <point x="136" y="-8"/>
      <point x="175" y="65"/>
      <point x="192" y="141" type="curve" smooth="yes"/>
    </contour>
    <contour>
      <point x="109" y="141" type="line" smooth="yes"/>
      <point x="104" y="118"/>
      <point x="93" y="97"/>
      <point x="83" y="97" type="curve" smooth="yes"/>
      <point x="74" y="97"/>
      <point x="70" y="114"/>
      <point x="76" y="141" type="curve" smooth="yes"/>
      <point x="172" y="594" type="line" smooth="yes"/>
      <point x="177" y="618"/>
      <point x="187" y="638"/>
      <point x="198" y="638" type="curve" smooth="yes"/>
      <point x="209" y="638"/>
      <point x="210" y="617"/>
      <point x="205" y="594" type="curve" smooth="yes"/>
    </contour>
  </outline>
</glyph>
<glyph name="omacron" format="1">
  <advance width="223"/>
  <unicode hex="014D"/>
  <outline>
    <contour>
      <point x="128" y="642" type="line"/>
      <point x="262" y="642" type="line"/>
      <point x="279" y="721" type="line"/>
      <point x="145" y="721" type="line"/>
    </contour>
    <contour>
      <point x="245" y="414" type="line" smooth="yes"/>
      <point x="261" y="491"/>
      <point x="264" y="555"/>
      <point x="184" y="555" type="curve" smooth="yes"/>
      <point x="110" y="555"/>
      <point x="75" y="487"/>
      <point x="59" y="411" type="curve" smooth="yes"/>
      <point x="1" y="136" type="line" smooth="yes"/>
      <point x="-13" y="68"/>
      <point x="-16" y="-8"/>
      <point x="62" y="-8" type="curve" smooth="yes"/>
      <point x="134" y="-8"/>
      <point x="167" y="49"/>
      <point x="185" y="133" type="curve" smooth="yes"/>
    </contour>
    <contour>
      <point x="108" y="126" type="line"/>
      <point x="108" y="117"/>
      <point x="97" y="81"/>
      <point x="81" y="81" type="curve" smooth="yes"/>
      <point x="67" y="81"/>
      <point x="68" y="104"/>
      <point x="73" y="126" type="curve" smooth="yes"/>
      <point x="136" y="421" type="line" smooth="yes"/>
      <point x="142" y="448"/>
      <point x="150" y="467"/>
      <point x="164" y="467" type="curve" smooth="yes"/>
      <point x="180" y="467"/>
      <point x="177" y="446"/>
      <point x="171" y="421" type="curve" smooth="yes"/>
    </contour>
  </outline>
</glyph>
<glyph name="OE" format="1">
  <advance width="318"/>
  <unicode hex="0152"/>
  <outline>
    <contour>
      <point x="255" y="0" type="line"/>
      <point x="279" y="111" type="line"/>
      <point x="196" y="111" type="line"/>
      <point x="239" y="313" type="line"/>
      <point x="299" y="313" type="line"/>
      <point x="324" y="431" type="line"/>
      <point x="264" y="431" type="line"/>
      <point x="305" y="624" type="line"/>
      <point x="388" y="624" type="line"/>
      <point x="412" y="735" type="line"/>
      <point x="228" y="735" type="line" smooth="yes"/>
      <point x="154" y="735"/>
      <point x="114" y="671"/>
      <point x="96" y="584" type="curve" smooth="yes"/>
      <point x="4" y="151" type="line" smooth="yes"/>
      <point x="-13" y="66"/>
      <point x="-3" y="4"/>
      <point x="71" y="0" type="curve"/>
    </contour>
    <contour>
      <point x="122" y="151" type="line"/>
      <point x="120" y="143"/>
      <point x="107" y="97"/>
      <point x="92" y="97" type="curve" smooth="yes"/>
      <point x="82" y="97"/>
      <point x="81" y="124"/>
      <point x="87" y="151" type="curve" smooth="yes"/>
      <point x="179" y="584" type="line" smooth="yes"/>
      <point x="182" y="600"/>
      <point x="197" y="638"/>
      <point x="207" y="638" type="curve" smooth="yes"/>
      <point x="220" y="638"/>
      <point x="216" y="595"/>
      <point x="214" y="584" type="curve" smooth="yes"/>
    </contour>
    <contour>
      <point x="159" y="735" type="move" name="top"/>
    </contour>
  </outline>
</glyph>
<glyph name="Racute" format="1">
  <advance width="247"/>
  <unicode hex="0154"/>
  <outline>
    <contour>
      <point x="229" y="915" type="line"/>
      <point x="179" y="825" type="line"/>
      <point x="243" y="825" type="line"/>
      <point x="309" y="915" type="line"/>
    </contour>
    <contour>
      <point x="173" y="0" type="line"/>
      <point x="198" y="356" type="line"/>
      <point x="230" y="387"/>
      <point x="256" y="453"/>
      <point x="271" y="523" type="curve" smooth="yes"/>
      <point x="301" y="662"/>
      <point x="284" y="735"/>
      <point x="206" y="735" type="curve" smooth="yes"/>
      <point x="122" y="735" type="line"/>
      <point x="-33" y="0" type="line"/>
      <point x="49" y="0" type="line"/>
      <point x="117" y="320" type="line"/>
      <point x="92" y="0" type="line"/>
    </contour>
    <contour>
      <point x="182" y="628" type="line"/>
      <point x="187" y="628"/>
      <point x="199" y="629"/>
      <point x="203" y="618" type="curve"/>
      <point x="209" y="606"/>
      <point x="203" y="573"/>
      <point x="191" y="519" type="curve" smooth="yes"/>
      <point x="180" y="466"/>
      <point x="171" y="429"/>
      <point x="159" y="416" type="curve"/>
      <point x="153" y="408"/>
      <point x="142" y="405"/>
      <point x="135" y="405" type="curve"/>
    </contour>
  </outline>
</glyph>
<glyph name="racute" format="1">
  <advance width="178"/>
  <unicode hex="0155"/>
  <outline>
    <contour>
      <point x="165" y="727" type="line"/>
      <point x="115" y="637" type="line"/>
      <point x="178" y="637" type="line"/>
      <point x="245" y="727" type="line"/>
    </contour>
    <contour>
      <point x="238" y="555" type="line"/>
      <point x="204" y="555"/>
      <point x="178" y="536"/>
      <point x="163" y="517" type="curve"/>
      <point x="169" y="547" type="line"/>
      <point x="92" y="547" type="line"/>
      <point x="-23" y="0" type="line"/>
      <point x="53" y="0" type="line"/>
      <point x="134" y="380" type="line" smooth="yes"/>
      <point x="143" y="423"/>
      <point x="171" y="462"/>
      <point x="212" y="435" type="curve"/>
    </contour>
  </outline>
</glyph>
<glyph name="Rcommaaccent" format="1">
  <advance width="247"/>
  <unicode hex="0156"/>
  <outline>
    <contour>
      <point x="97" y="-54" type="line"/>
      <point x="29" y="-54" type="line"/>
      <point x="14" y="-123" type="line"/>
      <point x="32" y="-123" type="line"/>
      <point x="7" y="-188" type="line"/>
      <point x="56" y="-188" type="line"/>
      <point x="82" y="-123" type="line"/>
    </contour>
    <contour>
      <point x="192" y="0" type="line"/>
      <point x="217" y="356" type="line"/>
      <point x="250" y="387"/>
      <point x="276" y="453"/>
      <point x="291" y="523" type="curve" smooth="yes"/>
      <point x="320" y="662"/>
      <point x="304" y="735"/>
      <point x="226" y="735" type="curve" smooth="yes"/>
      <point x="142" y="735" type="line"/>
      <point x="-14" y="0" type="line"/>
      <point x="68" y="0" type="line"/>
      <point x="137" y="320" type="line"/>
      <point x="111" y="0" type="line"/>
    </contour>
    <contour>
      <point x="202" y="628" type="line"/>
      <point x="207" y="628"/>
      <point x="218" y="629"/>
      <point x="223" y="618" type="curve" smooth="yes"/>
      <point x="228" y="606"/>
      <point x="222" y="573"/>
      <point x="211" y="519" type="curve" smooth="yes"/>
      <point x="200" y="466"/>
      <point x="191" y="429"/>
      <point x="179" y="416" type="curve" smooth="yes"/>
      <point x="172" y="408"/>
      <point x="162" y="405"/>
      <point x="155" y="405" type="curve"/>
    </contour>
  </outline>
</glyph>
<glyph name="Sacute" format="1">
  <advance width="236"/>
  <unicode hex="015A"/>
  <outline>
    <contour>
      <point x="225" y="915" type="line"/>
      <point x="174" y="825" type="line"/>
      <point x="238" y="825" type="line"/>
      <point x="305" y="915" type="line"/>
    </contour>
    <contour>
      <point x="272" y="549" type="line"/>
      <point x="285" y="610"/>
      <point x="310" y="745"/>
      <point x="213" y="743" type="curve" smooth="yes"/>
      <point x="133" y="741"/>
      <point x="97" y="635"/>
      <point x="84" y="571" type="curve" smooth="yes"/>
      <point x="72" y="514"/>
      <point x="79" y="441"/>
      <point x="89" y="382" type="curve" smooth="yes"/>
      <point x="110" y="279"/>
      <point x="121" y="224"/>
      <point x="108" y="162" type="curve" smooth="yes"/>
      <point x="98" y="115"/>
      <point x="91" y="91"/>
      <point x="76" y="91" type="curve" smooth="yes"/>
      <point x="54" y="91"/>
      <point x="76" y="194"/>
      <point x="80" y="217" type="curve"/>
      <point x="-2" y="205" type="line"/>
      <point x="-16" y="138"/>
      <point x="-49" y="-8"/>
      <point x="55" y="-8" type="curve" smooth="yes"/>
      <point x="141" y="-8"/>
      <point x="176" y="97"/>
      <point x="191" y="167" type="curve" smooth="yes"/>
      <point x="207" y="241"/>
      <point x="194" y="311"/>
      <point x="177" y="398" type="curve" smooth="yes"/>
      <point x="163" y="471"/>
      <point x="155" y="523"/>
      <point x="165" y="571" type="curve" smooth="yes"/>
      <point x="174" y="614"/>
      <point x="182" y="644"/>
      <point x="194" y="644" type="curve" smooth="yes"/>
      <point x="210" y="644"/>
      <point x="193" y="563"/>
      <point x="187" y="537" type="curve"/>
    </contour>
  </outline>
</glyph>
<glyph name="Scircumflex" format="1">
  <advance width="236"/>
  <unicode hex="015C"/>
  <outline>
    <contour>
      <point x="206" y="890" type="line"/>
      <point x="145" y="800" type="line"/>
      <point x="210" y="800" type="line"/>
      <point x="235" y="839" type="line"/>
      <point x="244" y="800" type="line"/>
      <point x="309" y="800" type="line"/>
      <point x="287" y="890" type="line"/>
    </contour>
    <contour>
      <point x="273" y="549" type="line"/>
      <point x="286" y="610"/>
      <point x="311" y="745"/>
      <point x="215" y="743" type="curve" smooth="yes"/>
      <point x="134" y="741"/>
      <point x="99" y="635"/>
      <point x="85" y="571" type="curve" smooth="yes"/>
      <point x="73" y="514"/>
      <point x="80" y="441"/>
      <point x="90" y="382" type="curve" smooth="yes"/>
      <point x="111" y="279"/>
      <point x="122" y="224"/>
      <point x="109" y="162" type="curve" smooth="yes"/>
      <point x="99" y="115"/>
      <point x="92" y="91"/>
      <point x="77" y="91" type="curve" smooth="yes"/>
      <point x="55" y="91"/>
      <point x="77" y="194"/>
      <point x="82" y="217" type="curve"/>
      <point x="-1" y="205" type="line"/>
      <point x="-15" y="138"/>
      <point x="-48" y="-8"/>
      <point x="56" y="-8" type="curve" smooth="yes"/>
      <point x="142" y="-8"/>
      <point x="177" y="97"/>
      <point x="192" y="167" type="curve" smooth="yes"/>
      <point x="208" y="241"/>
      <point x="196" y="311"/>
      <point x="178" y="398" type="curve" smooth="yes"/>
      <point x="165" y="471"/>
      <point x="156" y="523"/>
      <point x="166" y="571" type="curve" smooth="yes"/>
      <point x="175" y="614"/>
      <point x="184" y="644"/>
      <point x="196" y="644" type="curve" smooth="yes"/>
      <point x="212" y="644"/>
      <point x="194" y="563"/>
      <point x="189" y="537" type="curve"/>
    </contour>
  </outline>
</glyph>
<glyph name="scaron" format="1">
  <advance width="215"/>
  <unicode hex="0161"/>
  <outline>
    <contour>
      <point x="234" y="407" type="line"/>
      <point x="245" y="461"/>
      <point x="259" y="555"/>
      <point x="177" y="555" type="curve" smooth="yes"/>
      <point x="117" y="555"/>
      <point x="79" y="495"/>
      <point x="64" y="425" type="curve" smooth="yes"/>
      <point x="49" y="354"/>
      <point x="70" y="312"/>
      <point x="85" y="260" type="curve" smooth="yes"/>
      <point x="96" y="218"/>
      <point x="108" y="177"/>
      <point x="101" y="142" type="curve" smooth="yes"/>
      <point x="92" y="100"/>
      <point x="85" y="76"/>
      <point x="71" y="76" type="curve" smooth="yes"/>
      <point x="57" y="76"/>
      <point x="62" y="124"/>
      <point x="69" y="159" type="curve"/>
      <point x="-2" y="159" type="line"/>
      <point x="-18" y="85"/>
      <point x="-31" y="-8"/>
      <point x="53" y="-8" type="curve" smooth="yes"/>
      <point x="131" y="-8"/>
      <point x="162" y="77"/>
      <point x="172" y="124" type="curve" smooth="yes"/>
      <point x="188" y="202"/>
      <point x="167" y="262"/>
      <point x="150" y="305" type="curve"/>
      <point x="141" y="334"/>
      <point x="126" y="371"/>
      <point x="135" y="414" type="curve" smooth="yes"/>
      <point x="140" y="435"/>
      <point x="148" y="471"/>
      <point x="161" y="471" type="curve" smooth="yes"/>
      <point x="176" y="471"/>
      <point x="169" y="424"/>
      <point x="166" y="407" type="curve"/>
    </contour>
    <contour>
      <point x="229" y="637" type="line"/>
      <point x="289" y="727" type="line"/>
      <point x="224" y="727" type="line"/>
      <point x="199" y="688" type="line"/>
      <point x="190" y="727" type="line"/>
      <point x="125" y="727" type="line"/>
      <point x="148" y="637" type="line"/>
    </contour>
  </outline>
</glyph>
<glyph name="tcaron" format="1">
  <advance width="281"/>
  <unicode hex="0165"/>
  <outline>
    <contour>
      <point x="376" y="735" type="line"/>
      <point x="295" y="735" type="line"/>
      <point x="271" y="624" type="line"/>
      <point x="296" y="624" type="line"/>
      <point x="243" y="494" type="line"/>
      <point x="291" y="494" type="line"/>
      <point x="352" y="624" type="line"/>
    </contour>
    <contour>
      <point x="140" y="682" type="line"/>
      <point x="112" y="547" type="line"/>
      <point x="79" y="547" type="line"/>
      <point x="59" y="456" type="line"/>
      <point x="92" y="456" type="line"/>
      <point x="-4" y="0" type="line"/>
      <point x="72" y="0" type="line"/>
      <point x="169" y="456" type="line"/>
      <point x="211" y="456" type="line"/>
      <point x="231" y="547" type="line"/>
      <point x="189" y="547" type="line"/>
      <point x="217" y="682" type="line"/>
    </contour>
  </outline>
</glyph>
<glyph name="Utilde" format="1">
  <advance width="250"/>
  <unicode hex="0168"/>
  <outline>
    <contour>
      <point x="229" y="735" type="line"/>
      <point x="102" y="141" type="line" smooth="yes"/>
      <point x="97" y="117"/>
      <point x="90" y="97"/>
      <point x="78" y="97" type="curve" smooth="yes"/>
      <point x="65" y="97"/>
      <point x="66" y="113"/>
      <point x="71" y="141" type="curve" smooth="yes"/>
      <point x="198" y="735" type="line"/>
      <point x="115" y="735" type="line"/>
      <point x="-11" y="141" type="line" smooth="yes"/>
      <point x="-26" y="66"/>
      <point x="-23" y="-8"/>
      <point x="56" y="-8" type="curve" smooth="yes"/>
      <point x="131" y="-8"/>
      <point x="168" y="58"/>
      <point x="185" y="141" type="curve" smooth="yes"/>
      <point x="312" y="735" type="line"/>
    </contour>
    <contour>
      <point x="166" y="811" type="line"/>
      <point x="172" y="818"/>
      <point x="200" y="841"/>
      <point x="212" y="841" type="curve" smooth="yes"/>
      <point x="232" y="841"/>
      <point x="239" y="822"/>
      <point x="262" y="822" type="curve" smooth="yes"/>
      <point x="280" y="822"/>
      <point x="297" y="834"/>
      <point x="308" y="847" type="curve"/>
      <point x="325" y="930" type="line"/>
      <point x="317" y="920"/>
      <point x="292" y="901"/>
      <point x="279" y="901" type="curve" smooth="yes"/>
      <point x="260" y="901"/>
      <point x="253" y="918"/>
      <point x="230" y="918" type="curve" smooth="yes"/>
      <point x="215" y="918"/>
      <point x="196" y="910"/>
      <point x="184" y="897" type="curve"/>
    </contour>
  </outline>
</glyph>
<glyph name="Ubreve" format="1">
  <advance width="250"/>
  <unicode hex="016C"/>
  <outline>
    <contour>
      <point x="229" y="735" type="line"/>
      <point x="103" y="141" type="line"/>
      <point x="97" y="117"/>
      <point x="90" y="97"/>
      <point x="78" y="97" type="curve" smooth="yes"/>
      <point x="65" y="97"/>
      <point x="66" y="113"/>
      <point x="72" y="141" type="curve" smooth="yes"/>
      <point x="198" y="735" type="line"/>
      <point x="115" y="735" type="line"/>
      <point x="-10" y="141" type="line" smooth="yes"/>
      <point x="-26" y="66"/>
      <point x="-23" y="-8"/>
      <point x="56" y="-8" type="curve" smooth="yes"/>
      <point x="131" y="-8"/>
      <point x="168" y="58"/>
      <point x="186" y="141" type="curve" smooth="yes"/>
      <point x="312" y="735" type="line"/>
    </contour>
    <contour>
      <point x="293" y="928" type="line"/>
      <point x="293" y="928"/>
      <point x="267" y="897"/>
      <point x="251" y="897" type="curve" smooth="yes"/>
      <point x="233" y="897"/>
      <point x="225" y="929"/>
      <point x="225" y="929" type="curve"/>
      <point x="172" y="872" type="line"/>
      <point x="179" y="846"/>
      <point x="205" y="824"/>
      <point x="236" y="824" type="curve" smooth="yes"/>
      <point x="267" y="824"/>
      <point x="296" y="844"/>
      <point x="320" y="872" type="curve"/>
    </contour>
  </outline>
</glyph>
<glyph name="Uhungarumlaut" format="1">
  <advance width="250"/>
  <unicode hex="0170"/>
  <outline>
    <contour>
      <point x="187" y="915" type="line"/>
      <point x="137" y="825" type="line"/>
      <point x="201" y="825" type="line"/>
      <point x="267" y="915" type="line"/>
    </contour>
    <contour>
      <point x="296" y="915" type="line"/>
      <point x="246" y="825" type="line"/>
      <point x="310" y="825" type="line"/>
      <point x="376" y="915" type="line"/>
    </contour>
    <contour>
      <point x="230" y="735" type="line"/>
      <point x="103" y="141" type="line" smooth="yes"/>
      <point x="98" y="117"/>
      <point x="91" y="97"/>
      <point x="79" y="97" type="curve" smooth="yes"/>
      <point x="66" y="97"/>
      <point x="66" y="113"/>
      <point x="72" y="141" type="curve" smooth="yes"/>
      <point x="199" y="735" type="line"/>
      <point x="116" y="735" type="line"/>
      <point x="-10" y="141" type="line" smooth="yes"/>
      <point x="-26" y="66"/>
      <point x="-22" y="-8"/>
      <point x="57" y="-8" type="curve" smooth="yes"/>
      <point x="132" y="-8"/>
      <point x="169" y="58"/>
      <point x="186" y="141" type="curve" smooth="yes"/>
      <point x="313" y="735" type="line"/>
    </contour>
  </outline>
</glyph>
<glyph name="uogonek" format="1">
  <advance width="232"/>
  <unicode hex="0173"/>
  <outline>
    <contour>
      <point x="123" y="116" type="line" smooth="yes"/>
      <point x="119" y="95"/>
      <point x="111" y="80"/>
      <point x="101" y="80" type="curve" smooth="yes"/>
      <point x="91" y="80"/>
      <point x="89" y="94"/>
      <point x="94" y="115" type="curve" smooth="yes"/>
      <point x="186" y="547" type="line"/>
      <point x="108" y="547" type="line"/>
      <point x="13" y="99" type="line" smooth="yes"/>
      <point x="6" y="66"/>
      <point x="-5" y="-8"/>
      <point x="44" y="-8" type="curve" smooth="yes"/>
      <point x="61" y="-8"/>
      <point x="91" y="13"/>
      <point x="104" y="28" type="curve"/>
      <point x="98" y="0" type="line"/>
      <point x="105" y="0" type="line"/>
      <point x="94" y="-11"/>
      <point x="85" y="-22"/>
      <point x="80" y="-28" type="curve"/>
      <point x="79" y="-29"/>
      <point x="78" y="-30"/>
      <point x="77" y="-31" type="curve"/>
      <point x="63" y="-50"/>
      <point x="45" y="-80"/>
      <point x="41" y="-103" type="curve"/>
      <point x="31" y="-148"/>
      <point x="48" y="-188"/>
      <point x="93" y="-188" type="curve" smooth="yes"/>
      <point x="107" y="-188"/>
      <point x="117" y="-185"/>
      <point x="135" y="-176" type="curve"/>
      <point x="156" y="-101" type="line"/>
      <point x="139" y="-112"/>
      <point x="123" y="-121"/>
      <point x="118" y="-121" type="curve" smooth="yes"/>
      <point x="108" y="-121"/>
      <point x="99" y="-112"/>
      <point x="105" y="-83" type="curve"/>
      <point x="107" y="-71"/>
      <point x="111" y="-60"/>
      <point x="116" y="-50" type="curve" smooth="yes"/>
      <point x="127" y="-28"/>
      <point x="137" y="-11"/>
      <point x="147" y="0" type="curve"/>
      <point x="177" y="0" type="line"/>
      <point x="294" y="547" type="line"/>
      <point x="215" y="547" type="line"/>
    </contour>
  </outline>
</glyph>
<glyph name="Wcircumflex" format="1">
  <advance width="334"/>
  <unicode hex="0174"/>
  <outline>
    <contour>
      <point x="250" y="890" type="line"/>
      <point x="189" y="800" type="line"/>
      <point x="254" y="800" type="line"/>
      <point x="280" y="839" type="line"/>
      <point x="288" y="800" type="line"/>
      <point x="353" y="800" type="line"/>
      <point x="331" y="890" type="line"/>
    </contour>
    <contour>
      <point x="131" y="0" type="line"/>
      <point x="202" y="0" type="line"/>
      <point x="412" y="735" type="line"/>
      <point x="334" y="735" type="line"/>
      <point x="305" y="627"/>
      <point x="270" y="499"/>
      <point x="241" y="391" type="curve"/>
      <point x="289" y="735" type="line"/>
      <point x="228" y="735" type="line"/>
      <point x="131" y="390" type="line"/>
      <point x="183" y="735" type="line"/>
      <point x="105" y="735" type="line"/>
      <point x="5" y="0" type="line"/>
      <point x="75" y="0" type="line"/>
      <point x="178" y="352" type="line"/>
    </contour>
  </outline>
</glyph>
<glyph name="Ydieresis" format="1">
  <advance width="236"/>
  <unicode hex="0178"/>
  <outline>
    <contour>
      <point x="188" y="735" type="line"/>
      <point x="106" y="735" type="line"/>
      <point x="85" y="313" type="line"/>
      <point x="19" y="0" type="line"/>
      <point x="102" y="0" type="line"/>
      <point x="168" y="313" type="line"/>
      <point x="327" y="735" type="line"/>
      <point x="245" y="735" type="line"/>
      <point x="221" y="663"/>
      <point x="195" y="592"/>
      <point x="171" y="521" type="curve"/>
    </contour>
    <contour>
      <point x="145" y="800" type="line"/>
      <point x="219" y="800" type="line"/>
      <point x="240" y="898" type="line"/>
      <point x="166" y="898" type="line"/>
    </contour>
    <contour>
      <point x="242" y="800" type="line"/>
      <point x="315" y="800" type="line"/>
      <point x="336" y="898" type="line"/>
      <point x="263" y="898" type="line"/>
    </contour>
  </outline>
</glyph>
<glyph name="zacute" format="1">
  <advance width="186"/>
  <unicode hex="017A"/>
  <outline>
    <contour>
      <point x="169" y="727" type="line"/>
      <point x="119" y="637" type="line"/>
      <point x="183" y="637" type="line"/>
      <point x="249" y="727" type="line"/>
    </contour>
    <contour>
      <point x="-43" y="0" type="line"/>
      <point x="121" y="0" type="line"/>
      <point x="140" y="92" type="line"/>
      <point x="57" y="92" type="line"/>
      <point x="220" y="465" type="line"/>
      <point x="237" y="547" type="line"/>
      <point x="85" y="547" type="line"/>
      <point x="66" y="455" type="line"/>
      <point x="136" y="455" type="line"/>
      <point x="-26" y="82" type="line"/>
    </contour>
  </outline>
</glyph>
<glyph name="Zdotaccent" format="1">
  <advance width="214"/>
  <unicode hex="017B"/>
  <outline>
    <contour>
      <point x="184" y="822" type="line"/>
      <point x="263" y="822" type="line"/>
      <point x="285" y="923" type="line"/>
      <point x="206" y="923" type="line"/>
    </contour>
    <contour>
      <point x="-51" y="0" type="line"/>
      <point x="138" y="0" type="line"/>
      <point x="160" y="107" type="line"/>
      <point x="56" y="107" type="line"/>
      <point x="271" y="628" type="line"/>
      <point x="294" y="735" type="line"/>
      <point x="118" y="735" type="line"/>
      <point x="95" y="628" type="line"/>
      <point x="182" y="628" type="line"/>
      <point x="-27" y="116" type="line"/>
    </contour>
  </outline>
</glyph>
<glyph name="Zcaron" format="1">
  <advance width="214"/>
  <unicode hex="017D"/>
  <outline>
    <contour>
      <point x="-50" y="0" type="line"/>
      <point x="139" y="0" type="line"/>
      <point x="162" y="107" type="line"/>
      <point x="58" y="107" type="line"/>
      <point x="273" y="628" type="line"/>
      <point x="295" y="735" type="line"/>
      <point x="119" y="735" type="line"/>
      <point x="97" y="628" type="line"/>
      <point x="184" y="628" type="line"/>
      <point x="-25" y="116" type="line"/>
    </contour>
    <contour>
      <point x="262" y="800" type="line"/>
      <point x="322" y="890" type="line"/>
      <point x="257" y="890" type="line"/>
      <point x="232" y="851" type="line"/>
      <point x="223" y="890" type="line"/>
      <point x="158" y="890" type="line"/>
      <point x="181" y="800" type="line"/>
    </contour>
  </outline>
</glyph>
<glyph name="caron" format="1">
  <advance width="329"/>
  <unicode hex="02C7"/>
  <outline>
    <contour>
      <point x="253" y="637" type="line"/>
      <point x="314" y="727" type="line"/>
      <point x="249" y="727" type="line"/>
      <point x="223" y="688" type="line"/>
      <point x="215" y="727" type="line"/>
      <point x="150" y="727" type="line"/>
      <point x="172" y="637" type="line"/>
    </contour>
    <contour>
      <point x="232" y="547" type="move" name="_top"/>
    </contour>
  </outline>
</glyph>
<glyph name="ogonek" format="1">
  <advance width="330"/>
  <unicode hex="02DB"/>
  <outline>
    <contour>
      <point x="145" y="0" type="line"/>
      <point x="133" y="-12"/>
      <point x="125" y="-22"/>
      <point x="120" y="-28" type="curve"/>
      <point x="119" y="-29"/>
      <point x="118" y="-30"/>
      <point x="117" y="-31" type="curve"/>
      <point x="103" y="-50"/>
      <point x="85" y="-80"/>
      <point x="81" y="-103" type="curve"/>
      <point x="71" y="-148"/>
      <point x="88" y="-188"/>
      <point x="133" y="-188" type="curve" smooth="yes"/>
      <point x="146" y="-188"/>
      <point x="157" y="-185"/>
      <point x="175" y="-176" type="curve"/>
      <point x="196" y="-103" type="line"/>
      <point x="176" y="-114"/>
      <point x="162" y="-121"/>
      <point x="157" y="-121" type="curve" smooth="yes"/>
      <point x="148" y="-121"/>
      <point x="138" y="-112"/>
      <point x="144" y="-83" type="curve"/>
      <point x="146" y="-71"/>
      <point x="151" y="-60"/>
      <point x="156" y="-50" type="curve"/>
      <point x="166" y="-27"/>
      <point x="176" y="-12"/>
      <point x="186" y="0" type="curve"/>
    </contour>
    <contour>
      <point x="196" y="10" type="move" name="_ogonek"/>
    </contour>
  </outline>
</glyph>
<glyph name="tilde" format="1">
  <advance width="330"/>
  <unicode hex="02DC"/>
  <outline>
    <contour>
      <point x="142" y="623" type="line"/>
      <point x="149" y="630"/>
      <point x="177" y="653"/>
      <point x="189" y="653" type="curve" smooth="yes"/>
      <point x="209" y="653"/>
      <point x="216" y="634"/>
      <point x="239" y="634" type="curve" smooth="yes"/>
      <point x="257" y="634"/>
      <point x="273" y="646"/>
      <point x="284" y="659" type="curve"/>
      <point x="302" y="742" type="line"/>
      <point x="294" y="732"/>
      <point x="269" y="713"/>
      <point x="256" y="713" type="curve" smooth="yes"/>
      <point x="237" y="713"/>
      <point x="229" y="730"/>
      <point x="206" y="730" type="curve" smooth="yes"/>
      <point x="191" y="730"/>
      <point x="172" y="722"/>
      <point x="161" y="709" type="curve"/>
    </contour>
    <contour>
      <point x="222" y="547" type="move" name="_top"/>
    </contour>
  </outline>
</glyph>
<glyph name="emdash" format="1">
  <advance width="315"/>
  <unicode hex="2014"/>
  <outline>
    <contour>
      <point x="41" y="317" type="line"/>
      <point x="300" y="317" type="line"/>
      <point x="320" y="412" type="line"/>
      <point x="61" y="412" type="line"/>
    </contour>
  </outline>
</glyph>
<glyph name="quotedblbase" format="1">
  <advance width="213"/>
  <unicode hex="201E"/>
  <outline>
    <contour>
      <point x="112" y="111" type="line"/>
      <point x="31" y="111" type="line"/>
      <point x="7" y="0" type="line"/>
      <point x="28" y="0" type="line"/>
      <point x="-19" y="-130" type="line"/>
      <point x="28" y="-130" type="line"/>
      <point x="88" y="0" type="line"/>
    </contour>
    <contour>
      <point x="200" y="111" type="line"/>
      <point x="119" y="111" type="line"/>
      <point x="95" y="0" type="line"/>
      <point x="116" y="0" type="line"/>
      <point x="68" y="-130" type="line"/>
      <point x="116" y="-130" type="line"/>
      <point x="176" y="0" type="line"/>
    </contour>
  </outline>
</glyph>
<glyph name="uni201F" format="1">
  <advance width="228"/>
  <unicode hex="201F"/>
  <outline>
    <contour>
      <point x="97" y="735" type="line"/>
      <point x="74" y="624" type="line"/>
      <point x="79" y="494" type="line"/>
      <point x="127" y="494" type="line"/>
      <point x="130" y="624" type="line"/>
      <point x="155" y="624" type="line"/>
      <point x="178" y="735" type="line"/>
    </contour>
    <contour>
      <point x="215" y="735" type="line"/>
      <point x="192" y="624" type="line"/>
      <point x="197" y="494" type="line"/>
      <point x="245" y="494" type="line"/>
      <point x="248" y="624" type="line"/>
      <point x="273" y="624" type="line"/>
      <point x="296" y="735" type="line"/>
    </contour>
  </outline>
</glyph>
<glyph name="bullet" format="1">
  <advance width="224"/>
  <unicode hex="2022"/>
  <outline>
    <contour>
      <point x="45" y="355"/>
      <point x="75" y="317"/>
      <point x="121" y="317" type="curve" smooth="yes"/>
      <point x="167" y="317"/>
      <point x="213" y="355"/>
      <point x="223" y="401" type="curve" smooth="yes"/>
      <point x="233" y="447"/>
      <point x="203" y="485"/>
      <point x="157" y="485" type="curve" smooth="yes"/>
      <point x="111" y="485"/>
      <point x="65" y="447"/>
      <point x="55" y="401" type="curve" smooth="yes"/>
    </contour>
  </outline>
</glyph>
<glyph name="ellipsis" format="1">
  <advance width="318"/>
  <unicode hex="2026"/>
  <outline>
    <contour>
      <point x="1" y="0" type="line"/>
      <point x="82" y="0" type="line"/>
      <point x="105" y="111" type="line"/>
      <point x="24" y="111" type="line"/>
    </contour>
    <contour>
      <point x="105" y="0" type="line"/>
      <point x="186" y="0" type="line"/>
      <point x="209" y="111" type="line"/>
      <point x="128" y="111" type="line"/>
    </contour>
    <contour>
      <point x="209" y="0" type="line"/>
      <point x="290" y="0" type="line"/>
      <point x="313" y="111" type="line"/>
      <point x="232" y="111" type="line"/>
    </contour>
  </outline>
</glyph>
<glyph name="Euro" format="1">
  <advance width="268"/>
  <unicode hex="20AC"/>
  <outline>
    <contour>
      <point x="53" y="401" type="line"/>
      <point x="84" y="401" type="line"/>
      <point x="69" y="334" type="line"/>
      <point x="38" y="334" type="line"/>
      <point x="24" y="267" type="line"/>
      <point x="55" y="267" type="line"/>
      <point x="31" y="151" type="line" smooth="yes"/>
      <point x="24" y="121"/>
      <point x="22" y="94"/>
      <point x="25" y="71" type="curve"/>
      <point x="25" y="55"/>
      <point x="32" y="33"/>
      <point x="40" y="17" type="curve"/>
      <point x="49" y="2"/>
      <point x="67" y="-8"/>
      <point x="92" y="-8" type="curve" smooth="yes"/>
      <point x="119" y="-8"/>
      <point x="139" y="2"/>
      <point x="154" y="17" type="curve" smooth="yes"/>
      <point x="170" y="34"/>
      <point x="184" y="54"/>
      <point x="194" y="71" type="curve"/>
      <point x="204" y="94"/>
      <point x="214" y="121"/>
      <point x="222" y="151" type="curve"/>
      <point x="230" y="192" type="line"/>
      <point x="151" y="192" type="line"/>
      <point x="143" y="151" type="line" smooth="yes"/>
      <point x="141" y="142"/>
      <point x="137" y="131"/>
      <point x="135" y="124" type="curve"/>
      <point x="129" y="111"/>
      <point x="121" y="97"/>
      <point x="115" y="97" type="curve" smooth="yes"/>
      <point x="115" y="97"/>
      <point x="113" y="102"/>
      <point x="112" y="105" type="curve"/>
      <point x="113" y="105" type="line"/>
      <point x="110" y="115"/>
      <point x="109" y="129"/>
      <point x="114" y="151" type="curve" smooth="yes"/>
      <point x="138" y="267" type="line"/>
      <point x="206" y="267" type="line"/>
      <point x="220" y="334" type="line"/>
      <point x="152" y="334" type="line"/>
      <point x="167" y="401" type="line"/>
      <point x="235" y="401" type="line"/>
      <point x="249" y="468" type="line"/>
      <point x="181" y="468" type="line"/>
      <point x="206" y="584" type="line" smooth="yes"/>
      <point x="208" y="594"/>
      <point x="211" y="603"/>
      <point x="214" y="611" type="curve"/>
      <point x="220" y="624"/>
      <point x="227" y="638"/>
      <point x="230" y="638" type="curve" smooth="yes"/>
      <point x="231" y="638"/>
      <point x="234" y="634"/>
      <point x="236" y="630" type="curve"/>
      <point x="235" y="630" type="line"/>
      <point x="238" y="619"/>
      <point x="239" y="604"/>
      <point x="235" y="584" type="curve" smooth="yes"/>
      <point x="226" y="543" type="line"/>
      <point x="305" y="543" type="line"/>
      <point x="314" y="584" type="line"/>
      <point x="319" y="613"/>
      <point x="321" y="640"/>
      <point x="319" y="663" type="curve" smooth="yes"/>
      <point x="317" y="680"/>
      <point x="314" y="699"/>
      <point x="303" y="718" type="curve" smooth="yes"/>
      <point x="294" y="733"/>
      <point x="278" y="743"/>
      <point x="251" y="743" type="curve" smooth="yes"/>
      <point x="225" y="743"/>
      <point x="204" y="733"/>
      <point x="189" y="718" type="curve" smooth="yes"/>
      <point x="172" y="701"/>
      <point x="159" y="680"/>
      <point x="150" y="663" type="curve"/>
      <point x="139" y="640"/>
      <point x="129" y="613"/>
      <point x="123" y="584" type="curve" smooth="yes"/>
      <point x="98" y="468" type="line"/>
      <point x="67" y="468" type="line"/>
    </contour>
  </outline>
</glyph>
<glyph name="trademark" format="1">
  <advance width="305"/>
  <unicode hex="2122"/>
  <outline>
    <contour>
      <point x="128" y="684" type="line"/>
      <point x="67" y="401" type="line"/>
      <point x="118" y="401" type="line"/>
      <point x="179" y="684" type="line"/>
      <point x="210" y="684" type="line"/>
      <point x="220" y="735" type="line"/>
      <point x="108" y="735" type="line"/>
      <point x="98" y="684" type="line"/>
    </contour>
    <contour>
      <point x="243" y="401" type="line"/>
      <point x="248" y="418"/>
      <point x="293" y="560"/>
      <point x="299" y="577" type="curve"/>
      <point x="261" y="401" type="line"/>
      <point x="304" y="401" type="line"/>
      <point x="375" y="735" type="line"/>
      <point x="329" y="735" type="line"/>
      <point x="320" y="706"/>
      <point x="287" y="627"/>
      <point x="277" y="598" type="curve"/>
      <point x="285" y="735" type="line"/>
      <point x="235" y="735" type="line"/>
      <point x="164" y="401" type="line"/>
      <point x="206" y="401" type="line"/>
      <point x="244" y="577" type="line"/>
      <point x="224" y="401" type="line"/>
    </contour>
  </outline>
</glyph>
<glyph name="minus" format="1">
  <advance width="257"/>
  <unicode hex="2212"/>
  <outline>
    <contour>
      <point x="42" y="317" type="line"/>
      <point x="244" y="317" type="line"/>
      <point x="262" y="401" type="line"/>
      <point x="60" y="401" type="line"/>
    </contour>
  </outline>
</glyph>
<glyph name="fi" format="1">
  <advance width="256"/>
  <unicode hex="FB01"/>
  <outline>
    <contour>
      <point x="66" y="0" type="line"/>
      <point x="163" y="456" type="line"/>
      <point x="194" y="456" type="line"/>
      <point x="97" y="0" type="line"/>
      <point x="175" y="0" type="line"/>
      <point x="292" y="547" type="line"/>
      <point x="183" y="547" type="line"/>
      <point x="191" y="585" type="line" smooth="yes"/>
      <point x="196" y="610"/>
      <point x="202" y="637"/>
      <point x="213" y="647" type="curve"/>
      <point x="219" y="652"/>
      <point x="231" y="653"/>
      <point x="241" y="646" type="curve"/>
      <point x="258" y="729" type="line"/>
      <point x="248" y="736"/>
      <point x="236" y="739"/>
      <point x="223" y="739" type="curve" smooth="yes"/>
      <point x="150" y="739"/>
      <point x="127" y="646"/>
      <point x="111" y="579" type="curve"/>
      <point x="105" y="547" type="line"/>
      <point x="74" y="547" type="line"/>
      <point x="54" y="456" type="line"/>
      <point x="85" y="456" type="line"/>
      <point x="-11" y="0" type="line"/>
    </contour>
  </outline>
</glyph>
